<?xml version="1.0" encoding="UTF-8" standalone="no"?>
<svg
   xmlns:dc="http://purl.org/dc/elements/1.1/"
   xmlns:cc="http://creativecommons.org/ns#"
   xmlns:rdf="http://www.w3.org/1999/02/22-rdf-syntax-ns#"
   xmlns:svg="http://www.w3.org/2000/svg"
   xmlns="http://www.w3.org/2000/svg"
   id="svg798"
   version="1.1"
   viewBox="0 0 56.739277 50.087326"
   height="50.087326mm"
   width="56.739277mm">
  <defs
     id="defs792">
    <clipPath
       id="clipPath99"
       clipPathUnits="userSpaceOnUse">
      <path
         id="path97"
         d="M 0,0 H 161 V 142 H 0 Z" />
    </clipPath>
  </defs>
  <metadata
     id="metadata795">
    <rdf:RDF>
      <cc:Work
         rdf:about="">
        <dc:format>image/svg+xml</dc:format>
        <dc:type
           rdf:resource="http://purl.org/dc/dcmitype/StillImage" />
        <dc:title></dc:title>
      </cc:Work>
    </rdf:RDF>
  </metadata>
  <g
     transform="translate(232.47679,-44.41467)"
     id="layer1">
    <g
       transform="matrix(0.35277777,0,0,-0.35277777,-232.47683,94.509069)"
       id="g91">
      <g
         id="g93">
        <g
           clip-path="url(#clipPath99)"
           id="g95">
          <g
             transform="scale(0.1)"
             id="g101">
            <path
               id="path103"
               style="fill:none;stroke:#211e1e;stroke-width:9.99750042;stroke-linecap:butt;stroke-linejoin:miter;stroke-miterlimit:4.75;stroke-dasharray:none;stroke-opacity:1"
               d="m 780.121,775.699 489.219,-285.39 m -489.219,285.39 h 733.829 m -733.829,0 L 1350.9,1183.4 M 780.121,775.699 739.34,1305.7 M 127.809,1020.31 780.121,775.699 M 739.34,1305.7 127.809,1020.31 M 1350.9,1183.4 739.34,1305.7 M 1513.95,775.699 1350.9,1183.4 m -81.56,-693.091 244.61,285.39" />
            <path
               id="path105"
               style="fill:#b2d2e2;fill-opacity:1;fill-rule:evenodd;stroke:none"
               d="m 239.41,1017.93 c 0,64.69 -52.5,117.19 -117.18,117.19 C 57.5,1135.12 5,1082.62 5,1017.93 5,953.238 57.5,900.699 122.23,900.699 c 64.68,0 117.18,52.539 117.18,117.231" />
            <path
               id="path107"
               style="fill:none;stroke:#000000;stroke-width:9.99750042;stroke-linecap:butt;stroke-linejoin:miter;stroke-miterlimit:4;stroke-dasharray:none;stroke-opacity:1"
               d="m 239.41,1017.93 c 0,64.69 -52.5,117.19 -117.18,117.19 C 57.5,1135.12 5,1082.62 5,1017.93 5,953.238 57.5,900.699 122.23,900.699 c 64.68,0 117.18,52.539 117.18,117.231" />
            <path
               id="path109"
               style="fill:#b2d2e2;fill-opacity:1;fill-rule:evenodd;stroke:none"
               d="m 858.051,1297.77 c 0,64.69 -52.5,117.23 -117.231,117.23 -64.691,0 -117.191,-52.54 -117.191,-117.23 0,-64.72 52.5,-117.22 117.191,-117.22 64.731,0 117.231,52.5 117.231,117.22" />
            <path
               id="path111"
               style="fill:none;stroke:#000000;stroke-width:9.99750042;stroke-linecap:butt;stroke-linejoin:miter;stroke-miterlimit:4;stroke-dasharray:none;stroke-opacity:1"
               d="m 858.051,1297.77 c 0,64.69 -52.5,117.23 -117.231,117.23 -64.691,0 -117.191,-52.54 -117.191,-117.23 0,-64.72 52.5,-117.22 117.191,-117.22 64.731,0 117.231,52.5 117.231,117.22" />
            <path
               id="path113"
               style="fill:#b2d2e2;fill-opacity:1;fill-rule:evenodd;stroke:none"
               d="m 896.84,773.281 c 0,64.649 -52.5,117.188 -117.231,117.188 -64.687,0 -117.187,-52.539 -117.187,-117.188 0,-64.73 52.5,-117.23 117.187,-117.23 64.731,0 117.231,52.5 117.231,117.23" />
            <path
               id="path115"
               style="fill:none;stroke:#000000;stroke-width:9.99750042;stroke-linecap:butt;stroke-linejoin:miter;stroke-miterlimit:4;stroke-dasharray:none;stroke-opacity:1"
               d="m 896.84,773.281 c 0,64.649 -52.5,117.188 -117.231,117.188 -64.687,0 -117.187,-52.539 -117.187,-117.188 0,-64.73 52.5,-117.23 117.187,-117.23 64.731,0 117.231,52.5 117.231,117.23" />
            <path
               id="path117"
               style="fill:#b2d2e2;fill-opacity:1;fill-rule:evenodd;stroke:none"
               d="m 1479.65,1175.59 c 0,64.68 -52.5,117.22 -117.19,117.22 -64.73,0 -117.23,-52.54 -117.23,-117.22 0,-64.69 52.5,-117.19 117.23,-117.19 64.69,0 117.19,52.5 117.19,117.19" />
            <path
               id="path119"
               style="fill:none;stroke:#000000;stroke-width:9.99750042;stroke-linecap:butt;stroke-linejoin:miter;stroke-miterlimit:4;stroke-dasharray:none;stroke-opacity:1"
               d="m 1479.65,1175.59 c 0,64.68 -52.5,117.22 -117.19,117.22 -64.73,0 -117.23,-52.54 -117.23,-117.22 0,-64.69 52.5,-117.19 117.23,-117.19 64.69,0 117.19,52.5 117.19,117.19" />
            <g
               transform="scale(10)"
               id="g121">
              <text
                 id="text131"
                 style="font-variant:normal;font-weight:normal;font-size:10px;font-family:FreeSerif;-inkscape-font-specification:FreeSerifItalic;writing-mode:lr-tb;fill:#000000;fill-opacity:1;fill-rule:nonzero;stroke:none"
                 transform="matrix(1,0,0,-1,132.684,115.144)">
                <tspan
                   id="tspan123"
                   y="0"
                   x="0">Q</tspan>
                <tspan
                   id="tspan125"
                   y="-11.4441"
                   x="-65.2313 -58.651222">NT</tspan>
                <tspan
                   id="tspan127"
                   y="16.6008"
                   x="-128.3188 -120.03872">WA</tspan>
                <tspan
                   id="tspan129"
                   y="41.069199"
                   x="-59.963699 -55.623859">SA</tspan>
              </text>
            </g>
            <path
               id="path133"
               style="fill:#b2d2e2;fill-opacity:1;fill-rule:evenodd;stroke:none"
               d="m 1380,477.031 c 0,64.688 -52.5,117.231 -117.23,117.231 -64.68,0 -117.18,-52.543 -117.18,-117.231 0,-64.691 52.5,-117.23 117.18,-117.23 64.73,0 117.23,52.539 117.23,117.23" />
            <path
               id="path135"
               style="fill:none;stroke:#000000;stroke-width:9.99750042;stroke-linecap:butt;stroke-linejoin:miter;stroke-miterlimit:4;stroke-dasharray:none;stroke-opacity:1"
               d="m 1380,477.031 c 0,64.688 -52.5,117.231 -117.23,117.231 -64.68,0 -117.18,-52.543 -117.18,-117.231 0,-64.691 52.5,-117.23 117.18,-117.23 64.73,0 117.23,52.539 117.23,117.23" />
            <g
               transform="scale(10)"
               id="g137">
              <text
                 id="text141"
                 style="font-variant:normal;font-weight:normal;font-size:10px;font-family:FreeSerif;-inkscape-font-specification:FreeSerifItalic;writing-mode:lr-tb;fill:#000000;fill-opacity:1;fill-rule:nonzero;stroke:none"
                 transform="matrix(1,0,0,-1,121.961,44.5293)">
                <tspan
                   id="tspan139"
                   y="0"
                   x="0">V</tspan>
              </text>
            </g>
            <path
               id="path143"
               style="fill:#b2d2e2;fill-opacity:1;fill-rule:evenodd;stroke:none"
               d="m 1603.36,773.281 c 0,64.649 -52.54,117.188 -117.23,117.188 -64.68,0 -117.18,-52.539 -117.18,-117.188 0,-64.73 52.5,-117.23 117.18,-117.23 64.69,0 117.23,52.5 117.23,117.23" />
            <path
               id="path145"
               style="fill:none;stroke:#000000;stroke-width:9.99750042;stroke-linecap:butt;stroke-linejoin:miter;stroke-miterlimit:4;stroke-dasharray:none;stroke-opacity:1"
               d="m 1603.36,773.281 c 0,64.649 -52.54,117.188 -117.23,117.188 -64.68,0 -117.18,-52.539 -117.18,-117.188 0,-64.73 52.5,-117.23 117.18,-117.23 64.69,0 117.23,52.5 117.23,117.23" />
            <g
               transform="scale(10)"
               id="g147">
              <text
                 id="text151"
                 style="font-variant:normal;font-weight:normal;font-size:10px;font-family:FreeSerif;-inkscape-font-specification:FreeSerifItalic;writing-mode:lr-tb;fill:#000000;fill-opacity:1;fill-rule:nonzero;stroke:none"
                 transform="matrix(1,0,0,-1,138.642,74.0797)">
                <tspan
                   id="tspan149"
                   y="0"
                   x="0 6.3898492 10.309768">NSW</tspan>
              </text>
            </g>
            <path
               id="path153"
               style="fill:#b2d2e2;fill-opacity:1;fill-rule:evenodd;stroke:none"
               d="m 1427.89,122.422 c 0,64.648 -52.5,117.187 -117.23,117.187 -64.68,0 -117.18,-52.539 -117.18,-117.187 0,-64.7228 52.5,-117.22278 117.18,-117.22278 64.73,0 117.23,52.49998 117.23,117.22278" />
            <path
               id="path155"
               style="fill:none;stroke:#000000;stroke-width:9.99750042;stroke-linecap:butt;stroke-linejoin:miter;stroke-miterlimit:4;stroke-dasharray:none;stroke-opacity:1"
               d="m 1427.89,122.422 c 0,64.648 -52.5,117.187 -117.23,117.187 -64.68,0 -117.18,-52.539 -117.18,-117.187 0,-64.7228 52.5,-117.22278 117.18,-117.22278 64.73,0 117.23,52.49998 117.23,117.22278" />
            <g
               transform="scale(10)"
               id="g157">
              <text
                 id="text161"
                 style="font-variant:normal;font-weight:normal;font-size:10px;font-family:FreeSerif;-inkscape-font-specification:FreeSerifItalic;writing-mode:lr-tb;fill:#000000;fill-opacity:1;fill-rule:nonzero;stroke:none"
                 transform="matrix(1,0,0,-1,127.258,8.97539)">
                <tspan
                   id="tspan159"
                   y="0"
                   x="0">T</tspan>
              </text>
            </g>
          </g>
        </g>
      </g>
    </g>
  </g>
</svg>
