<?xml version="1.0" encoding="UTF-8" standalone="no"?>
<svg
   xmlns:dc="http://purl.org/dc/elements/1.1/"
   xmlns:cc="http://creativecommons.org/ns#"
   xmlns:rdf="http://www.w3.org/1999/02/22-rdf-syntax-ns#"
   xmlns:svg="http://www.w3.org/2000/svg"
   xmlns="http://www.w3.org/2000/svg"
   id="svg679"
   version="1.1"
   viewBox="0 0 67.196213 56.165558"
   height="56.165558mm"
   width="67.196213mm">
  <defs
     id="defs673">
    <clipPath
       id="clipPath55"
       clipPathUnits="userSpaceOnUse">
      <path
         id="path53"
         d="M 0,0 H 192 V 160 H 0 Z" />
    </clipPath>
  </defs>
  <metadata
     id="metadata676">
    <rdf:RDF>
      <cc:Work
         rdf:about="">
        <dc:format>image/svg+xml</dc:format>
        <dc:type
           rdf:resource="http://purl.org/dc/dcmitype/StillImage" />
        <dc:title></dc:title>
      </cc:Work>
    </rdf:RDF>
  </metadata>
  <g
     transform="translate(65.348106,-89.756502)"
     id="layer1">
    <g
       transform="matrix(0.35277777,0,0,-0.35277777,-65.612529,145.93648)"
       id="g47">
      <g
         id="g49">
        <g
           clip-path="url(#clipPath55)"
           id="g51">
          <g
             transform="scale(0.1)"
             id="g57">
            <path
               id="path59"
               style="fill:none;stroke:#231f20;stroke-width:4.73799992;stroke-linecap:butt;stroke-linejoin:miter;stroke-miterlimit:10;stroke-dasharray:none;stroke-opacity:1"
               d="m 1314.88,302.148 24.89,583.942 m 0,0 H 688.281 m -24.883,454.85 42.653,-776.991 m 620.669,-52.148 c 0,0 0,0 3.16,-2.391 3.17,-2.34 9.46,-7.07 16.57,-8.672 7.1,-1.558 15.03,0 20.54,-3.117 5.55,-3.172 8.67,-11.101 14.22,-13.441 5.51,-2.379 13.4,0.781 21.33,0 7.89,-0.782 15.78,-5.508 21.29,-13.442 5.55,-7.886 8.71,-18.937 17.38,-27.617 8.71,-8.711 22.93,-15.031 34.77,-22.101 11.83,-7.11 21.29,-15 30.78,-16.61 9.49,-1.558 18.94,3.172 30,4.731 11.05,1.597 23.71,0 37.11,-0.782 13.43,-0.777 27.65,-0.777 44.25,-3.16 16.57,-2.347 35.51,-7.109 45,-13.398 9.46,-6.332 9.46,-14.219 11.06,-26.063 1.56,-11.867 4.73,-27.648 9.45,-38.707 4.77,-11.051 11.06,-17.383 20.55,-25.269 9.45,-7.891 22.11,-17.383 28.44,-22.114 6.29,-4.726 6.29,-4.726 6.29,-4.726 M 1336.17,762.93 c 0,0 0,0 64.77,-5.551 64.76,-5.5 194.26,-16.559 262.97,-22.891 68.71,-6.328 76.6,-7.886 86.87,-5.508 10.24,2.348 22.89,8.68 35.51,11.84 12.66,3.16 25.27,3.16 37.11,-1.601 11.87,-4.731 22.93,-14.219 31.6,-15.778 8.67,-1.562 15,4.719 22.89,7.887 7.89,3.16 17.38,3.16 22.11,3.16 4.77,0 4.77,0 4.77,0 m -720.2,151.602 4.77,374.3" />
            <g
               transform="scale(10)"
               id="g61">
              <text
                 id="text87"
                 style="font-variant:normal;font-weight:normal;font-size:8px;font-family:TimesNewRomanPSMT;-inkscape-font-specification:TimesNewRomanPSMT;writing-mode:lr-tb;fill:#231f20;fill-opacity:1;fill-rule:nonzero;stroke:none"
                 transform="matrix(1,0,0,-1,25.9516,88.6652)">
                <tspan
                   id="tspan63"
                   y="0"
                   x="0 7.552 11.104 14.216 16.440001 19.992001 22.656">Western</tspan>
                <tspan
                   id="tspan65"
                   y="7.6855502"
                   x="-1.33555 4.4404502 8.4404497 11.55245 13.77645 16.440451 19.992451 22.21645 24.440451">Australia</tspan>
                <tspan
                   id="tspan67"
                   y="-23.635151"
                   x="52.68985 58.465851 62.465851 65.129852 67.353851 71.353851 74.905853 77.569847">Northern</tspan>
                <tspan
                   id="tspan69"
                   y="-15.9496"
                   x="52.691414 57.579414 61.131413 63.795414 66.459412 68.683411 70.90741 74.90741 77.571411">Territory</tspan>
                <tspan
                   id="tspan71"
                   y="13.7422"
                   x="63.702312 68.150314 72.150314 76.150314 78.374313">South</tspan>
                <tspan
                   id="tspan73"
                   y="21.42775"
                   x="58.376141 64.152145 68.152145 71.264145 73.488144 76.152145 79.70414 81.928139 84.152145">Australia</tspan>
                <tspan
                   id="tspan75"
                   y="-7.9999499"
                   x="101.64064 107.41664 111.41664 114.96864 118.52065 122.52065 125.63264 127.85664 131.40865 135.40865">Queensland</tspan>
                <tspan
                   id="tspan77"
                   y="24.022751"
                   x="125.82655 131.60254 135.15454">New</tspan>
                <tspan
                   id="tspan79"
                   y="33.62236"
                   x="124.04373 128.49173 132.49173 136.49173 138.71573">South</tspan>
                <tspan
                   id="tspan81"
                   y="43.222359"
                   x="123.38553 130.93753 134.48953 136.71353 140.26553">Wales</tspan>
                <tspan
                   id="tspan83"
                   y="57.68716"
                   x="110.25973 116.03573 118.25973 121.81173 124.03573 128.03574 130.69972 132.92374">Victoria</tspan>
                <tspan
                   id="tspan85"
                   y="82.744164"
                   x="82.552727 87.440727 90.992729 94.104729 100.32873 103.88073 107.88073 110.10473">Tasmania</tspan>
              </text>
            </g>
            <path
               id="path89"
               style="fill:none;stroke:#d6c27a;stroke-width:15;stroke-linecap:butt;stroke-linejoin:miter;stroke-miterlimit:10;stroke-dasharray:none;stroke-opacity:1"
               d="m 1438.87,148.16 c -5.55,-0.39 -5.55,-6.711 -3.56,-21.32 1.96,-14.61 5.9,-37.5002 11.06,-52.8908 5.11,-15.3984 11.44,-23.289 17.77,-30.789 6.29,-7.5391 12.62,-14.6094 18.95,-20.5391 6.29,-5.9023 12.61,-10.6719 18.55,-13.05079 5.9,-2.33984 11.45,-2.33984 18.56,0 7.1,2.37889 15.78,7.14849 22.5,11.05079 6.71,3.9883 11.44,7.1094 16.56,7.1094 5.15,0 10.66,-3.1211 14.22,-0.7813 3.55,2.3906 5.15,10.2813 6.32,17.7813 1.18,7.5 2,14.6093 4.34,25.2695 2.38,10.6602 6.33,24.8789 8.32,37.109 1.95,12.231 1.95,22.5 2.34,27.231 0.4,4.762 1.18,3.98 -3.55,3.98 -4.73,0 -15,0.782 -22.11,-0.429 -7.11,-1.172 -11.05,-4.34 -16.56,-6.289 -5.55,-1.993 -12.66,-2.774 -21.72,-3.942 -9.1,-1.211 -20.16,-2.781 -31.21,-1.211 -11.06,1.602 -22.11,6.321 -33.17,11.442 -11.05,5.16 -22.1,10.66 -27.61,10.269 M 865.551,1509.14 c -12.621,-5.51 -31.571,-8.67 -55.281,-14.22 -23.668,-5.51 -52.11,-13.4 -73.43,-34.72 -21.328,-21.33 -35.512,-56.06 -39.5,-77.39 -3.942,-21.33 2.39,-29.22 5.551,-33.16 3.16,-3.99 3.16,-3.99 -12.621,-3.99 -15.821,0 -47.379,0 -63.2,0 -15.781,0 -15.781,0 -15.781,6.33 0,6.33 0,18.99 -15,30.04 -15,11.06 -45,20.51 -69.488,28.4 -24.5,7.89 -43.442,14.22 -67.11,5.55 -23.711,-8.71 -52.152,-32.39 -73.441,-59.22 -21.328,-26.88 -35.551,-56.88 -48.98,-82.15 -13.399,-25.27 -26.059,-45.78 -45,-63.95 -18.95,-18.16 -44.219,-33.94 -69.5,-52.14 -25.27,-18.13 -50.54,-38.68 -68.711,-52.9 -18.161,-14.21 -29.219,-22.1 -45,-33.94 -15.7777,-11.84 -36.3285,-27.66 -52.8871,-45 -16.6016,-17.38 -29.2227,-36.328 -35.5508,-57.66 -6.3203,-21.321 -6.3203,-45 -4.7227,-69.489 1.5625,-24.492 4.7227,-49.73 13.4024,-68.711 8.7109,-18.941 22.9297,-31.558 36.3203,-52.109 13.4375,-20.512 26.0586,-48.941 39.4999,-71.051 13.43,-22.109 27.649,-37.89 41.828,-59.219 14.223,-21.332 28.442,-48.171 41.102,-74.261 12.609,-26.059 23.668,-51.328 32.34,-70.27 8.711,-18.949 15.039,-31.609 13.437,-45 -1.558,-13.441 -11.058,-27.621 -18.949,-37.109 -7.891,-9.5 -14.219,-14.219 -15.777,-18.949 -1.602,-4.762 1.558,-9.493 13.398,-14.223 11.879,-4.719 32.379,-9.488 53.711,-8.668 21.328,0.777 43.437,7.07 58.437,12.621 15,5.508 22.891,10.27 41.832,21.328 18.95,11.051 48.989,28.391 71.879,38.672 22.891,10.27 38.672,13.438 54.493,15.816 15.777,2.34 31.558,3.903 47.378,9.454 15.79,5.546 31.571,15 52.11,26.839 20.512,11.868 45.781,26.09 72.66,40.27 26.84,14.219 55.27,28.437 75.781,40.269 20.547,11.879 33.168,21.329 56.879,26.879 23.668,5.512 58.43,7.11 86.828,7.891 28.442,0.781 50.551,0.781 75.043,-4.73 24.489,-5.54 51.329,-16.598 74.999,-32.379 23.71,-15.782 44.26,-36.332 60.82,-60.039 16.56,-23.672 29.22,-50.551 37.89,-67.891 8.71,-17.379 13.44,-25.27 15.78,-29.223 2.39,-3.937 2.39,-3.937 6.33,2.352 3.95,6.32 11.88,18.98 21.33,34.762 9.49,15.82 20.55,34.769 26.84,45.82 6.32,11.058 7.93,14.18 9.49,15 1.56,0.777 3.16,-0.82 6.33,-7.891 3.16,-7.109 7.89,-19.761 11.05,-33.98 3.13,-14.219 4.73,-30 10.27,-48.172 5.51,-18.16 15,-38.707 24.46,-59.219 9.49,-20.539 18.98,-41.051 31.6,-56.051 12.62,-15 28.44,-24.488 48.16,-34.769 19.73,-10.27 43.44,-21.32 60,-29.211 16.6,-7.899 26.1,-12.617 39.5,-10.238 13.43,2.339 30.78,11.839 48.16,10.238 17.38,-1.57 34.76,-14.18 52.93,-18.949 18.16,-4.731 37.11,-1.559 56.83,4.769 19.73,6.281 40.28,15.781 60.82,20.5 20.51,4.731 41.06,4.731 54.5,5.512 13.4,0.82 19.72,2.379 26.05,11.879 6.29,9.449 12.62,26.832 19.73,45.781 7.11,18.981 15,39.488 24.49,62.379 9.45,22.891 20.51,48.16 33.95,77.379 13.43,29.223 29.21,62.391 41.83,88.441 12.66,26.051 22.11,45.039 29.22,74.258 7.11,29.223 11.88,68.672 11.88,104.223 0,35.539 -4.77,67.109 -11.88,93.98 -7.11,26.84 -16.56,48.949 -26.05,67.891 -9.46,18.949 -18.95,34.769 -31.57,49.769 -12.65,15 -28.43,29.219 -54.49,48.938 -26.05,19.731 -62.38,45.001 -86.87,69.491 -24.46,24.5 -37.11,48.17 -52.11,75 -15,26.88 -32.39,56.88 -43.44,88.44 -11.06,31.6 -15.78,64.77 -21.33,97.15 -5.51,32.38 -11.83,63.95 -25.27,73.44 -13.4,9.49 -33.95,-3.17 -48.17,16.6 -14.21,19.73 -22.11,71.84 -29.21,109.73 -7.11,37.93 -13.4,61.6 -18.17,63.98 -4.73,2.34 -7.89,-16.6 -11.83,-30 -3.95,-13.44 -8.68,-21.33 -14.22,-37.15 -5.51,-15.78 -11.84,-39.45 -18.17,-61.56 -6.29,-22.11 -12.61,-42.66 -19.72,-71.09 -7.11,-28.4 -15,-64.73 -19.73,-86.84 -4.77,-22.11 -6.33,-30 -11.88,-40.27 -5.5,-10.28 -15,-22.89 -24.49,-32.39 -9.45,-9.49 -18.9,-15.78 -29.18,-17.38 -10.27,-1.56 -21.33,1.6 -34.76,7.11 -13.4,5.55 -29.22,13.44 -69.5,37.11 -40.27,23.71 -105.03,63.16 -137.38,82.93 -32.38,19.73 -32.38,19.73 -20.55,29.22 11.84,9.49 35.55,28.44 49.77,43.44 14.22,15 18.95,26.05 28.44,36.29 9.45,10.27 23.67,19.76 32.34,29.21 8.71,9.5 11.88,18.99 9.49,22.93 -2.38,3.95 -10.27,2.35 -35.54,0.78 -25.28,-1.6 -67.89,-3.16 -101.88,0.79 -33.94,3.94 -59.221,13.43 -80.541,19.72 -21.289,6.33 -38.68,9.49 -50.508,7.15 -11.883,-2.38 -18.172,-10.27 -30.82,-15.82" />
          </g>
        </g>
      </g>
    </g>
  </g>
</svg>
