<?xml version="1.0" encoding="UTF-8" standalone="no"?>
<svg
   xmlns:dc="http://purl.org/dc/elements/1.1/"
   xmlns:cc="http://creativecommons.org/ns#"
   xmlns:rdf="http://www.w3.org/1999/02/22-rdf-syntax-ns#"
   xmlns:svg="http://www.w3.org/2000/svg"
   xmlns="http://www.w3.org/2000/svg"
   id="svg2410"
   version="1.1"
   viewBox="0 0 90.852295 82.739174"
   height="82.739174mm"
   width="90.852295mm">
<rect width="100%" height="100%" fill="rgba(255, 255, 255, 0.5)" />
  <defs
     id="defs2404" />
  <metadata
     id="metadata2407">
    <rdf:RDF>
      <cc:Work
         rdf:about="">
        <dc:format>image/svg+xml</dc:format>
        <dc:type
           rdf:resource="http://purl.org/dc/dcmitype/StillImage" />
        <dc:title></dc:title>
      </cc:Work>
    </rdf:RDF>
  </metadata>
  <g
     transform="translate(-93.726467,-166.86163)"
     id="layer1">
    <path
       d="m 142.38963,172.36456 c -1e-5,0.35423 -0.0346,0.70506 -0.10367,1.0525 -0.0691,0.34744 -0.17144,0.6848 -0.307,1.01207 -0.13556,0.32727 -0.30175,0.63818 -0.49857,0.93272 -0.19681,0.29455 -0.42045,0.56707 -0.67093,0.81757 -0.25048,0.25048 -0.523,0.47412 -0.81754,0.67093 -0.29455,0.1968 -0.60546,0.36299 -0.93273,0.49856 -0.32729,0.13556 -0.66465,0.23789 -1.01207,0.307 -0.34744,0.0691 -0.69827,0.10366 -1.05252,0.10368 -0.35425,-2e-5 -0.70508,-0.0346 -1.05253,-0.10368 -0.34744,-0.0691 -0.6848,-0.17145 -1.01207,-0.30701 -0.32728,-0.13558 -0.63819,-0.30176 -0.93274,-0.49857 -0.29454,-0.19679 -0.56705,-0.42043 -0.81754,-0.67091 -0.25048,-0.2505 -0.47412,-0.52302 -0.67094,-0.81757 -0.1968,-0.29454 -0.36299,-0.60545 -0.49855,-0.93272 -0.13557,-0.32727 -0.2379,-0.66463 -0.307,-1.01207 -0.0691,-0.34744 -0.10366,-0.69827 -0.10366,-1.0525 0,-0.35425 0.0346,-0.7051 0.10366,-1.05255 0.0691,-0.34744 0.17143,-0.6848 0.307,-1.01207 0.13556,-0.32728 0.30175,-0.63819 0.49855,-0.93272 0.19682,-0.29454 0.42046,-0.56706 0.67094,-0.81754 0.25049,-0.2505 0.523,-0.47415 0.81754,-0.67096 0.29453,-0.19679 0.60544,-0.36298 0.93273,-0.49855 0.32727,-0.13556 0.66463,-0.23789 1.01208,-0.30699 0.34745,-0.0691 0.69828,-0.10365 1.05253,-0.10365 0.35425,0 0.70508,0.0345 1.05252,0.10365 0.34742,0.0691 0.68478,0.17143 1.01207,0.30699 0.32727,0.13557 0.63818,0.30176 0.93273,0.49857 0.29454,0.19679 0.56706,0.42044 0.81754,0.67094 0.25048,0.25048 0.47412,0.523 0.67093,0.81754 0.19682,0.29453 0.36301,0.60544 0.49857,0.93272 0.13556,0.32727 0.23789,0.66463 0.307,1.01207 0.0691,0.34745 0.10366,0.6983 0.10367,1.05255 z"
       style="fill:#ffffff;fill-opacity:1;fill-rule:nonzero;stroke:none;stroke-width:0.21580119"
       id="path904" />
    <path
       d="m 142.38963,172.36456 c -1e-5,0.35423 -0.0346,0.70506 -0.10367,1.0525 -0.0691,0.34744 -0.17144,0.6848 -0.307,1.01207 -0.13556,0.32727 -0.30175,0.63818 -0.49857,0.93272 -0.19681,0.29455 -0.42045,0.56707 -0.67093,0.81757 -0.25048,0.25048 -0.523,0.47412 -0.81754,0.67093 -0.29455,0.1968 -0.60546,0.36299 -0.93273,0.49856 -0.32729,0.13556 -0.66465,0.23789 -1.01207,0.307 -0.34744,0.0691 -0.69827,0.10366 -1.05252,0.10368 -0.35425,-2e-5 -0.70508,-0.0346 -1.05253,-0.10368 -0.34744,-0.0691 -0.6848,-0.17145 -1.01207,-0.30701 -0.32728,-0.13558 -0.63819,-0.30176 -0.93274,-0.49857 -0.29454,-0.19679 -0.56705,-0.42043 -0.81754,-0.67091 -0.25048,-0.2505 -0.47412,-0.52302 -0.67094,-0.81757 -0.1968,-0.29454 -0.36299,-0.60545 -0.49855,-0.93272 -0.13557,-0.32727 -0.2379,-0.66463 -0.307,-1.01207 -0.0691,-0.34744 -0.10366,-0.69827 -0.10366,-1.0525 0,-0.35425 0.0346,-0.7051 0.10366,-1.05255 0.0691,-0.34744 0.17143,-0.6848 0.307,-1.01207 0.13556,-0.32728 0.30175,-0.63819 0.49855,-0.93272 0.19682,-0.29454 0.42046,-0.56706 0.67094,-0.81754 0.25049,-0.2505 0.523,-0.47415 0.81754,-0.67096 0.29453,-0.19679 0.60544,-0.36298 0.93273,-0.49855 0.32727,-0.13556 0.66463,-0.23789 1.01208,-0.30699 0.34745,-0.0691 0.69828,-0.10365 1.05253,-0.10365 0.35425,0 0.70508,0.0345 1.05252,0.10365 0.34742,0.0691 0.68478,0.17143 1.01207,0.30699 0.32727,0.13557 0.63818,0.30176 0.93273,0.49857 0.29454,0.19679 0.56706,0.42044 0.81754,0.67094 0.25048,0.25048 0.47412,0.523 0.67093,0.81754 0.19682,0.29453 0.36301,0.60544 0.49857,0.93272 0.13556,0.32727 0.23789,0.66463 0.307,1.01207 0.0691,0.34745 0.10366,0.6983 0.10367,1.05255 z"
       style="fill:none;stroke:#000000;stroke-width:0.21580119;stroke-linecap:butt;stroke-linejoin:miter;stroke-miterlimit:10;stroke-dasharray:none;stroke-opacity:1"
       id="path906" />
    <path
       d="m 113.25647,190.27605 c 0,0.35424 -0.0346,0.70507 -0.10367,1.05251 -0.0691,0.34744 -0.17145,0.6848 -0.30701,1.01207 -0.13557,0.32727 -0.30176,0.63818 -0.49857,0.93272 -0.19679,0.29453 -0.42044,0.56704 -0.67093,0.81754 -0.25048,0.25048 -0.52299,0.47413 -0.81754,0.67094 -0.29455,0.19681 -0.60546,0.36299 -0.93273,0.49857 -0.32727,0.13556 -0.66463,0.2379 -1.01207,0.30701 -0.34744,0.0691 -0.69827,0.10366 -1.0525,0.10367 -0.35425,-1e-5 -0.70509,-0.0346 -1.05252,-0.10369 -0.34745,-0.0691 -0.68482,-0.17143 -1.01209,-0.30701 -0.32728,-0.13557 -0.63819,-0.30176 -0.93273,-0.49855 -0.29453,-0.19681 -0.56705,-0.42046 -0.81753,-0.67094 -0.25048,-0.2505 -0.47413,-0.52301 -0.67095,-0.81754 -0.19681,-0.29455 -0.36299,-0.60547 -0.49856,-0.93274 -0.13557,-0.32727 -0.2379,-0.66463 -0.30699,-1.01205 -0.0691,-0.34744 -0.10368,-0.69827 -0.10367,-1.05251 -1e-5,-0.35424 0.0345,-0.70509 0.10367,-1.05253 0.0691,-0.34743 0.17142,-0.68479 0.30699,-1.01207 0.13557,-0.32728 0.30175,-0.63819 0.49856,-0.93272 0.19682,-0.29455 0.42047,-0.56706 0.67095,-0.81754 0.25048,-0.25049 0.523,-0.47415 0.81753,-0.67095 0.29454,-0.1968 0.60545,-0.36298 0.93273,-0.49856 0.32727,-0.13556 0.66464,-0.23789 1.01209,-0.307 0.34743,-0.0691 0.69827,-0.10366 1.05252,-0.10366 0.35423,0 0.70506,0.0345 1.0525,0.10366 0.34744,0.0691 0.6848,0.17144 1.01207,0.307 0.32727,0.13558 0.63818,0.30176 0.93273,0.49857 0.29455,0.19679 0.56706,0.42045 0.81754,0.67094 0.25049,0.25048 0.47414,0.52299 0.67093,0.81753 0.19681,0.29454 0.363,0.60545 0.49857,0.93272 0.13556,0.32727 0.2379,0.66463 0.30701,1.01208 0.0691,0.34744 0.10367,0.69829 0.10367,1.05253 z"
       style="fill:#cccccc;fill-opacity:1;fill-rule:nonzero;stroke:none;stroke-width:0.21580119"
       id="path908" />
    <path
       d="m 113.25647,190.27605 c 0,0.35424 -0.0346,0.70507 -0.10367,1.05251 -0.0691,0.34744 -0.17145,0.6848 -0.30701,1.01207 -0.13557,0.32727 -0.30176,0.63818 -0.49857,0.93272 -0.19679,0.29453 -0.42044,0.56704 -0.67093,0.81754 -0.25048,0.25048 -0.52299,0.47413 -0.81754,0.67094 -0.29455,0.19681 -0.60546,0.36299 -0.93273,0.49857 -0.32727,0.13556 -0.66463,0.2379 -1.01207,0.30701 -0.34744,0.0691 -0.69827,0.10366 -1.0525,0.10367 -0.35425,-1e-5 -0.70509,-0.0346 -1.05252,-0.10369 -0.34745,-0.0691 -0.68482,-0.17143 -1.01209,-0.30701 -0.32728,-0.13557 -0.63819,-0.30176 -0.93273,-0.49855 -0.29453,-0.19681 -0.56705,-0.42046 -0.81753,-0.67094 -0.25048,-0.2505 -0.47413,-0.52301 -0.67095,-0.81754 -0.19681,-0.29455 -0.36299,-0.60547 -0.49856,-0.93274 -0.13557,-0.32727 -0.2379,-0.66463 -0.30699,-1.01205 -0.0691,-0.34744 -0.10368,-0.69827 -0.10367,-1.05251 -1e-5,-0.35424 0.0345,-0.70509 0.10367,-1.05253 0.0691,-0.34743 0.17142,-0.68479 0.30699,-1.01207 0.13557,-0.32728 0.30175,-0.63819 0.49856,-0.93272 0.19682,-0.29455 0.42047,-0.56706 0.67095,-0.81754 0.25048,-0.25049 0.523,-0.47415 0.81753,-0.67095 0.29454,-0.1968 0.60545,-0.36298 0.93273,-0.49856 0.32727,-0.13556 0.66464,-0.23789 1.01209,-0.307 0.34743,-0.0691 0.69827,-0.10366 1.05252,-0.10366 0.35423,0 0.70506,0.0345 1.0525,0.10366 0.34744,0.0691 0.6848,0.17144 1.01207,0.307 0.32727,0.13558 0.63818,0.30176 0.93273,0.49857 0.29455,0.19679 0.56706,0.42045 0.81754,0.67094 0.25049,0.25048 0.47414,0.52299 0.67093,0.81753 0.19681,0.29454 0.363,0.60545 0.49857,0.93272 0.13556,0.32727 0.2379,0.66463 0.30701,1.01208 0.0691,0.34744 0.10367,0.69829 0.10367,1.05253 z"
       style="fill:none;stroke:#000000;stroke-width:0.21580119;stroke-linecap:butt;stroke-linejoin:miter;stroke-miterlimit:10;stroke-dasharray:none;stroke-opacity:1"
       id="path910" />
    <path
       d="m 142.38963,190.27605 c -1e-5,0.35424 -0.0346,0.70507 -0.10367,1.05251 -0.0691,0.34744 -0.17144,0.6848 -0.307,1.01207 -0.13556,0.32727 -0.30175,0.63818 -0.49857,0.93272 -0.19681,0.29453 -0.42045,0.56704 -0.67093,0.81754 -0.25048,0.25048 -0.523,0.47413 -0.81754,0.67094 -0.29455,0.19681 -0.60546,0.36299 -0.93273,0.49857 -0.32729,0.13556 -0.66465,0.2379 -1.01207,0.30701 -0.34744,0.0691 -0.69827,0.10366 -1.05252,0.10367 -0.35425,-1e-5 -0.70508,-0.0346 -1.05253,-0.10369 -0.34744,-0.0691 -0.6848,-0.17143 -1.01207,-0.30701 -0.32728,-0.13557 -0.63819,-0.30176 -0.93274,-0.49855 -0.29454,-0.19681 -0.56705,-0.42046 -0.81754,-0.67094 -0.25048,-0.2505 -0.47412,-0.52301 -0.67094,-0.81754 -0.1968,-0.29455 -0.36299,-0.60547 -0.49855,-0.93274 -0.13557,-0.32727 -0.2379,-0.66463 -0.307,-1.01205 -0.0691,-0.34744 -0.10366,-0.69827 -0.10366,-1.05251 0,-0.35424 0.0346,-0.70509 0.10366,-1.05253 0.0691,-0.34743 0.17143,-0.68479 0.307,-1.01207 0.13556,-0.32728 0.30175,-0.63819 0.49855,-0.93272 0.19682,-0.29455 0.42046,-0.56706 0.67094,-0.81754 0.25049,-0.25049 0.523,-0.47415 0.81754,-0.67095 0.29453,-0.1968 0.60544,-0.36298 0.93273,-0.49856 0.32727,-0.13556 0.66463,-0.23789 1.01208,-0.307 0.34745,-0.0691 0.69828,-0.10366 1.05253,-0.10366 0.35425,0 0.70508,0.0345 1.05252,0.10366 0.34742,0.0691 0.68478,0.17144 1.01207,0.307 0.32727,0.13558 0.63818,0.30176 0.93273,0.49857 0.29454,0.19679 0.56706,0.42045 0.81754,0.67094 0.25048,0.25048 0.47412,0.52299 0.67093,0.81753 0.19682,0.29454 0.36301,0.60545 0.49857,0.93272 0.13556,0.32727 0.23789,0.66463 0.307,1.01208 0.0691,0.34744 0.10366,0.69829 0.10367,1.05253 z"
       style="fill:#cccccc;fill-opacity:1;fill-rule:nonzero;stroke:none;stroke-width:0.21580119"
       id="path912" />
    <path
       d="m 142.38963,190.27605 c -1e-5,0.35424 -0.0346,0.70507 -0.10367,1.05251 -0.0691,0.34744 -0.17144,0.6848 -0.307,1.01207 -0.13556,0.32727 -0.30175,0.63818 -0.49857,0.93272 -0.19681,0.29453 -0.42045,0.56704 -0.67093,0.81754 -0.25048,0.25048 -0.523,0.47413 -0.81754,0.67094 -0.29455,0.19681 -0.60546,0.36299 -0.93273,0.49857 -0.32729,0.13556 -0.66465,0.2379 -1.01207,0.30701 -0.34744,0.0691 -0.69827,0.10366 -1.05252,0.10367 -0.35425,-1e-5 -0.70508,-0.0346 -1.05253,-0.10369 -0.34744,-0.0691 -0.6848,-0.17143 -1.01207,-0.30701 -0.32728,-0.13557 -0.63819,-0.30176 -0.93274,-0.49855 -0.29454,-0.19681 -0.56705,-0.42046 -0.81754,-0.67094 -0.25048,-0.2505 -0.47412,-0.52301 -0.67094,-0.81754 -0.1968,-0.29455 -0.36299,-0.60547 -0.49855,-0.93274 -0.13557,-0.32727 -0.2379,-0.66463 -0.307,-1.01205 -0.0691,-0.34744 -0.10366,-0.69827 -0.10366,-1.05251 0,-0.35424 0.0346,-0.70509 0.10366,-1.05253 0.0691,-0.34743 0.17143,-0.68479 0.307,-1.01207 0.13556,-0.32728 0.30175,-0.63819 0.49855,-0.93272 0.19682,-0.29455 0.42046,-0.56706 0.67094,-0.81754 0.25049,-0.25049 0.523,-0.47415 0.81754,-0.67095 0.29453,-0.1968 0.60544,-0.36298 0.93273,-0.49856 0.32727,-0.13556 0.66463,-0.23789 1.01208,-0.307 0.34745,-0.0691 0.69828,-0.10366 1.05253,-0.10366 0.35425,0 0.70508,0.0345 1.05252,0.10366 0.34742,0.0691 0.68478,0.17144 1.01207,0.307 0.32727,0.13558 0.63818,0.30176 0.93273,0.49857 0.29454,0.19679 0.56706,0.42045 0.81754,0.67094 0.25048,0.25048 0.47412,0.52299 0.67093,0.81753 0.19682,0.29454 0.36301,0.60545 0.49857,0.93272 0.13556,0.32727 0.23789,0.66463 0.307,1.01208 0.0691,0.34744 0.10366,0.69829 0.10367,1.05253 z"
       style="fill:none;stroke:#000000;stroke-width:0.21580119;stroke-linecap:butt;stroke-linejoin:miter;stroke-miterlimit:10;stroke-dasharray:none;stroke-opacity:1"
       id="path914" />
    <path
       d="m 171.52279,190.27605 c -10e-6,0.35424 -0.0346,0.70507 -0.10367,1.05251 -0.0691,0.34744 -0.17147,0.6848 -0.30704,1.01207 -0.13556,0.32727 -0.30175,0.63818 -0.49856,0.93272 -0.19679,0.29453 -0.42043,0.56704 -0.67091,0.81754 -0.25048,0.25048 -0.52301,0.47413 -0.81756,0.67094 -0.29453,0.19681 -0.60544,0.36299 -0.93271,0.49857 -0.32728,0.13556 -0.66464,0.2379 -1.01207,0.30701 -0.34744,0.0691 -0.69827,0.10366 -1.05251,0.10367 -0.35424,-1e-5 -0.70509,-0.0346 -1.05254,-0.10369 -0.34744,-0.0691 -0.6848,-0.17143 -1.01207,-0.30701 -0.32729,-0.13557 -0.6382,-0.30176 -0.93272,-0.49855 -0.29455,-0.19681 -0.56706,-0.42046 -0.81754,-0.67094 -0.2505,-0.2505 -0.47415,-0.52301 -0.67094,-0.81754 -0.19681,-0.29455 -0.363,-0.60547 -0.49856,-0.93274 -0.13557,-0.32727 -0.2379,-0.66463 -0.30701,-1.01205 -0.0691,-0.34744 -0.10366,-0.69827 -0.10365,-1.05251 -1e-5,-0.35424 0.0345,-0.70509 0.10366,-1.05253 0.0691,-0.34743 0.17143,-0.68479 0.307,-1.01207 0.13556,-0.32728 0.30175,-0.63819 0.49854,-0.93272 0.19681,-0.29455 0.42046,-0.56706 0.67096,-0.81754 0.25048,-0.25049 0.52299,-0.47415 0.81754,-0.67095 0.29452,-0.1968 0.60543,-0.36298 0.93272,-0.49856 0.32727,-0.13556 0.66463,-0.23789 1.01207,-0.307 0.34745,-0.0691 0.6983,-0.10366 1.05254,-0.10366 0.35424,0 0.70507,0.0345 1.05252,0.10366 0.34742,0.0691 0.68478,0.17144 1.01206,0.307 0.32727,0.13558 0.63818,0.30176 0.93271,0.49857 0.29455,0.19679 0.56708,0.42045 0.81756,0.67094 0.25048,0.25048 0.47413,0.52299 0.67093,0.81753 0.19679,0.29454 0.36298,0.60545 0.49855,0.93272 0.13556,0.32727 0.23791,0.66463 0.30703,1.01208 0.0691,0.34744 0.10366,0.69829 0.10367,1.05253 z"
       style="fill:#cccccc;fill-opacity:1;fill-rule:nonzero;stroke:none;stroke-width:0.21580119"
       id="path916" />
    <path
       d="m 171.52279,190.27605 c -10e-6,0.35424 -0.0346,0.70507 -0.10367,1.05251 -0.0691,0.34744 -0.17147,0.6848 -0.30704,1.01207 -0.13556,0.32727 -0.30175,0.63818 -0.49856,0.93272 -0.19679,0.29453 -0.42043,0.56704 -0.67091,0.81754 -0.25048,0.25048 -0.52301,0.47413 -0.81756,0.67094 -0.29453,0.19681 -0.60544,0.36299 -0.93271,0.49857 -0.32728,0.13556 -0.66464,0.2379 -1.01207,0.30701 -0.34744,0.0691 -0.69827,0.10366 -1.05251,0.10367 -0.35424,-1e-5 -0.70509,-0.0346 -1.05254,-0.10369 -0.34744,-0.0691 -0.6848,-0.17143 -1.01207,-0.30701 -0.32729,-0.13557 -0.6382,-0.30176 -0.93272,-0.49855 -0.29455,-0.19681 -0.56706,-0.42046 -0.81754,-0.67094 -0.2505,-0.2505 -0.47415,-0.52301 -0.67094,-0.81754 -0.19681,-0.29455 -0.363,-0.60547 -0.49856,-0.93274 -0.13557,-0.32727 -0.2379,-0.66463 -0.30701,-1.01205 -0.0691,-0.34744 -0.10366,-0.69827 -0.10365,-1.05251 -1e-5,-0.35424 0.0345,-0.70509 0.10366,-1.05253 0.0691,-0.34743 0.17143,-0.68479 0.307,-1.01207 0.13556,-0.32728 0.30175,-0.63819 0.49854,-0.93272 0.19681,-0.29455 0.42046,-0.56706 0.67096,-0.81754 0.25048,-0.25049 0.52299,-0.47415 0.81754,-0.67095 0.29452,-0.1968 0.60543,-0.36298 0.93272,-0.49856 0.32727,-0.13556 0.66463,-0.23789 1.01207,-0.307 0.34745,-0.0691 0.6983,-0.10366 1.05254,-0.10366 0.35424,0 0.70507,0.0345 1.05252,0.10366 0.34742,0.0691 0.68478,0.17144 1.01206,0.307 0.32727,0.13558 0.63818,0.30176 0.93271,0.49857 0.29455,0.19679 0.56708,0.42045 0.81756,0.67094 0.25048,0.25048 0.47413,0.52299 0.67093,0.81753 0.19679,0.29454 0.36298,0.60545 0.49855,0.93272 0.13556,0.32727 0.23791,0.66463 0.30703,1.01208 0.0691,0.34744 0.10366,0.69829 0.10367,1.05253 z"
       style="fill:none;stroke:#000000;stroke-width:0.21580119;stroke-linecap:butt;stroke-linejoin:miter;stroke-miterlimit:10;stroke-dasharray:none;stroke-opacity:1"
       id="path918" />
    <path
       d="m 104.62443,208.18755 c -2e-5,0.35423 -0.0346,0.70507 -0.10369,1.05251 -0.0691,0.34742 -0.17145,0.68478 -0.30701,1.01207 -0.13556,0.32727 -0.30175,0.63818 -0.49854,0.93272 -0.19681,0.29454 -0.42046,0.56706 -0.67094,0.81755 -0.25049,0.25048 -0.523,0.47412 -0.81756,0.67093 -0.29454,0.19679 -0.60543,0.36298 -0.93271,0.49855 -0.32728,0.13556 -0.66464,0.2379 -1.01206,0.30702 -0.347442,0.0691 -0.698282,0.10367 -1.052522,0.10368 -0.35425,-1e-5 -0.7051,-0.0346 -1.05255,-0.10368 -0.34744,-0.0691 -0.6848,-0.17144 -1.01207,-0.307 -0.32728,-0.13558 -0.63819,-0.30176 -0.93272,-0.49857 -0.29454,-0.19681 -0.56706,-0.42045 -0.81754,-0.67093 -0.25048,-0.25049 -0.47413,-0.52301 -0.67094,-0.81754 -0.19681,-0.29455 -0.36299,-0.60546 -0.49855,-0.93273 -0.13558,-0.32729 -0.23791,-0.66465 -0.307,-1.01207 -0.0691,-0.34744 -0.10366,-0.69828 -0.10366,-1.05251 0,-0.35425 0.0345,-0.70509 0.10366,-1.05254 0.0691,-0.34743 0.17142,-0.68479 0.307,-1.01206 0.13556,-0.32727 0.30174,-0.6382 0.49855,-0.93275 0.19681,-0.29452 0.42046,-0.56704 0.67094,-0.81752 0.25048,-0.25048 0.523,-0.47414 0.81754,-0.67094 0.29453,-0.19683 0.60544,-0.36301 0.93272,-0.49857 0.32727,-0.13555 0.66463,-0.23789 1.01207,-0.307 0.34745,-0.0691 0.6983,-0.10365 1.05255,-0.10365 0.35424,0 0.70508,0.0346 1.052522,0.10366 0.34742,0.0691 0.68478,0.17144 1.01206,0.30699 0.32728,0.13556 0.63817,0.30174 0.93273,0.49857 0.29454,0.1968 0.56705,0.42046 0.81754,0.67094 0.25048,0.25048 0.47413,0.523 0.67094,0.81752 0.19679,0.29455 0.36298,0.60548 0.49854,0.93275 0.13556,0.32727 0.2379,0.66463 0.30701,1.01208 0.0691,0.34743 0.10367,0.69827 0.10369,1.05252 z"
       style="fill:#ffffff;fill-opacity:1;fill-rule:nonzero;stroke:none;stroke-width:0.21580119"
       id="path920" />
    <path
       d="m 104.62443,208.18755 c -2e-5,0.35423 -0.0346,0.70507 -0.10369,1.05251 -0.0691,0.34742 -0.17145,0.68478 -0.30701,1.01207 -0.13556,0.32727 -0.30175,0.63818 -0.49854,0.93272 -0.19681,0.29454 -0.42046,0.56706 -0.67094,0.81755 -0.25049,0.25048 -0.523,0.47412 -0.81756,0.67093 -0.29454,0.19679 -0.60543,0.36298 -0.93271,0.49855 -0.32728,0.13556 -0.66464,0.2379 -1.01206,0.30702 -0.347442,0.0691 -0.698282,0.10367 -1.052522,0.10368 -0.35425,-1e-5 -0.7051,-0.0346 -1.05255,-0.10368 -0.34744,-0.0691 -0.6848,-0.17144 -1.01207,-0.307 -0.32728,-0.13558 -0.63819,-0.30176 -0.93272,-0.49857 -0.29454,-0.19681 -0.56706,-0.42045 -0.81754,-0.67093 -0.25048,-0.25049 -0.47413,-0.52301 -0.67094,-0.81754 -0.19681,-0.29455 -0.36299,-0.60546 -0.49855,-0.93273 -0.13558,-0.32729 -0.23791,-0.66465 -0.307,-1.01207 -0.0691,-0.34744 -0.10366,-0.69828 -0.10366,-1.05251 0,-0.35425 0.0345,-0.70509 0.10366,-1.05254 0.0691,-0.34743 0.17142,-0.68479 0.307,-1.01206 0.13556,-0.32727 0.30174,-0.6382 0.49855,-0.93275 0.19681,-0.29452 0.42046,-0.56704 0.67094,-0.81752 0.25048,-0.25048 0.523,-0.47414 0.81754,-0.67094 0.29453,-0.19683 0.60544,-0.36301 0.93272,-0.49857 0.32727,-0.13555 0.66463,-0.23789 1.01207,-0.307 0.34745,-0.0691 0.6983,-0.10365 1.05255,-0.10365 0.35424,0 0.70508,0.0346 1.052522,0.10366 0.34742,0.0691 0.68478,0.17144 1.01206,0.30699 0.32728,0.13556 0.63817,0.30174 0.93273,0.49857 0.29454,0.1968 0.56705,0.42046 0.81754,0.67094 0.25048,0.25048 0.47413,0.523 0.67094,0.81752 0.19679,0.29455 0.36298,0.60548 0.49854,0.93275 0.13556,0.32727 0.2379,0.66463 0.30701,1.01208 0.0691,0.34743 0.10367,0.69827 0.10369,1.05252 z"
       style="fill:none;stroke:#000000;stroke-width:0.21580119;stroke-linecap:butt;stroke-linejoin:miter;stroke-miterlimit:10;stroke-dasharray:none;stroke-opacity:1"
       id="path922" />
    <path
       d="m 121.88852,208.18755 c -2e-5,0.35423 -0.0346,0.70507 -0.10369,1.05251 -0.0691,0.34742 -0.17144,0.68478 -0.307,1.01207 -0.13557,0.32727 -0.30176,0.63818 -0.49855,0.93272 -0.19682,0.29454 -0.42047,0.56706 -0.67096,0.81755 -0.25048,0.25048 -0.52299,0.47412 -0.81754,0.67093 -0.29454,0.19679 -0.60545,0.36298 -0.93273,0.49855 -0.32729,0.13556 -0.66465,0.2379 -1.01207,0.30702 -0.34742,0.0691 -0.69826,0.10367 -1.05249,0.10368 -0.35425,-1e-5 -0.7051,-0.0346 -1.05253,-0.10368 -0.34744,-0.0691 -0.6848,-0.17144 -1.01207,-0.307 -0.32727,-0.13558 -0.63818,-0.30176 -0.93273,-0.49857 -0.29453,-0.19681 -0.56705,-0.42045 -0.81753,-0.67093 -0.25048,-0.25049 -0.47413,-0.52301 -0.67094,-0.81754 -0.19682,-0.29455 -0.36301,-0.60546 -0.49857,-0.93273 -0.13556,-0.32729 -0.23789,-0.66465 -0.307,-1.01207 -0.0691,-0.34744 -0.10367,-0.69828 -0.10366,-1.05251 -1e-5,-0.35425 0.0345,-0.70509 0.10366,-1.05254 0.0691,-0.34743 0.17144,-0.68479 0.307,-1.01206 0.13556,-0.32727 0.30175,-0.6382 0.49857,-0.93275 0.19681,-0.29452 0.42046,-0.56704 0.67094,-0.81752 0.25048,-0.25048 0.523,-0.47414 0.81753,-0.67094 0.29455,-0.19683 0.60546,-0.36301 0.93273,-0.49857 0.32727,-0.13555 0.66463,-0.23789 1.01207,-0.307 0.34743,-0.0691 0.69828,-0.10365 1.05253,-0.10365 0.35423,0 0.70507,0.0346 1.05249,0.10366 0.34742,0.0691 0.68478,0.17144 1.01207,0.30699 0.32728,0.13556 0.63819,0.30174 0.93273,0.49857 0.29455,0.1968 0.56706,0.42046 0.81754,0.67094 0.25049,0.25048 0.47414,0.523 0.67096,0.81752 0.19679,0.29455 0.36298,0.60548 0.49855,0.93275 0.13556,0.32727 0.23789,0.66463 0.307,1.01208 0.0691,0.34743 0.10367,0.69827 0.10369,1.05252 z"
       style="fill:#ffffff;fill-opacity:1;fill-rule:nonzero;stroke:none;stroke-width:0.21580119"
       id="path924" />
    <path
       d="m 121.88852,208.18755 c -2e-5,0.35423 -0.0346,0.70507 -0.10369,1.05251 -0.0691,0.34742 -0.17144,0.68478 -0.307,1.01207 -0.13557,0.32727 -0.30176,0.63818 -0.49855,0.93272 -0.19682,0.29454 -0.42047,0.56706 -0.67096,0.81755 -0.25048,0.25048 -0.52299,0.47412 -0.81754,0.67093 -0.29454,0.19679 -0.60545,0.36298 -0.93273,0.49855 -0.32729,0.13556 -0.66465,0.2379 -1.01207,0.30702 -0.34742,0.0691 -0.69826,0.10367 -1.05249,0.10368 -0.35425,-1e-5 -0.7051,-0.0346 -1.05253,-0.10368 -0.34744,-0.0691 -0.6848,-0.17144 -1.01207,-0.307 -0.32727,-0.13558 -0.63818,-0.30176 -0.93273,-0.49857 -0.29453,-0.19681 -0.56705,-0.42045 -0.81753,-0.67093 -0.25048,-0.25049 -0.47413,-0.52301 -0.67094,-0.81754 -0.19682,-0.29455 -0.36301,-0.60546 -0.49857,-0.93273 -0.13556,-0.32729 -0.23789,-0.66465 -0.307,-1.01207 -0.0691,-0.34744 -0.10367,-0.69828 -0.10366,-1.05251 -1e-5,-0.35425 0.0345,-0.70509 0.10366,-1.05254 0.0691,-0.34743 0.17144,-0.68479 0.307,-1.01206 0.13556,-0.32727 0.30175,-0.6382 0.49857,-0.93275 0.19681,-0.29452 0.42046,-0.56704 0.67094,-0.81752 0.25048,-0.25048 0.523,-0.47414 0.81753,-0.67094 0.29455,-0.19683 0.60546,-0.36301 0.93273,-0.49857 0.32727,-0.13555 0.66463,-0.23789 1.01207,-0.307 0.34743,-0.0691 0.69828,-0.10365 1.05253,-0.10365 0.35423,0 0.70507,0.0346 1.05249,0.10366 0.34742,0.0691 0.68478,0.17144 1.01207,0.30699 0.32728,0.13556 0.63819,0.30174 0.93273,0.49857 0.29455,0.1968 0.56706,0.42046 0.81754,0.67094 0.25049,0.25048 0.47414,0.523 0.67096,0.81752 0.19679,0.29455 0.36298,0.60548 0.49855,0.93275 0.13556,0.32727 0.23789,0.66463 0.307,1.01208 0.0691,0.34743 0.10367,0.69827 0.10369,1.05252 z"
       style="fill:none;stroke:#000000;stroke-width:0.21580119;stroke-linecap:butt;stroke-linejoin:miter;stroke-miterlimit:10;stroke-dasharray:none;stroke-opacity:1"
       id="path926" />
    <path
       d="m 158.57472,208.18755 c 0,0.35423 -0.0346,0.70507 -0.10369,1.05251 -0.0691,0.34742 -0.17142,0.68478 -0.307,1.01207 -0.13557,0.32727 -0.30175,0.63818 -0.49855,0.93272 -0.19682,0.29454 -0.42046,0.56706 -0.67094,0.81755 -0.25049,0.25048 -0.52301,0.47412 -0.81754,0.67093 -0.29455,0.19679 -0.60547,0.36298 -0.93274,0.49855 -0.32727,0.13556 -0.66463,0.2379 -1.01208,0.30702 -0.34742,0.0691 -0.69826,0.10367 -1.05249,0.10368 -0.35425,-1e-5 -0.70509,-0.0346 -1.05253,-0.10368 -0.34744,-0.0691 -0.6848,-0.17144 -1.01208,-0.307 -0.32727,-0.13558 -0.63819,-0.30176 -0.93274,-0.49857 -0.29453,-0.19681 -0.56705,-0.42045 -0.81753,-0.67093 -0.25048,-0.25049 -0.47413,-0.52301 -0.67095,-0.81754 -0.19681,-0.29455 -0.36299,-0.60546 -0.49856,-0.93273 -0.13555,-0.32729 -0.23788,-0.66465 -0.30699,-1.01207 -0.0691,-0.34744 -0.10365,-0.69828 -0.10365,-1.05251 0,-0.35425 0.0345,-0.70509 0.10365,-1.05254 0.0691,-0.34743 0.17144,-0.68479 0.30699,-1.01206 0.13557,-0.32727 0.30175,-0.6382 0.49857,-0.93275 0.19681,-0.29452 0.42046,-0.56704 0.67094,-0.81752 0.25048,-0.25048 0.523,-0.47414 0.81753,-0.67094 0.29455,-0.19683 0.60547,-0.36301 0.93274,-0.49857 0.32728,-0.13555 0.66464,-0.23789 1.01208,-0.307 0.34744,-0.0691 0.69828,-0.10365 1.05253,-0.10365 0.35423,0 0.70507,0.0346 1.05249,0.10366 0.34745,0.0691 0.6848,0.17144 1.01207,0.30699 0.32728,0.13556 0.6382,0.30174 0.93272,0.49857 0.29456,0.1968 0.56708,0.42046 0.81757,0.67094 0.25048,0.25048 0.47412,0.523 0.67094,0.81752 0.1968,0.29455 0.36297,0.60548 0.49854,0.93275 0.13557,0.32727 0.2379,0.66463 0.30701,1.01208 0.0691,0.34743 0.10369,0.69827 0.10369,1.05252 z"
       style="fill:#ffffff;fill-opacity:1;fill-rule:nonzero;stroke:none;stroke-width:0.21580119"
       id="path928" />
    <path
       d="m 158.57472,208.18755 c 0,0.35423 -0.0346,0.70507 -0.10369,1.05251 -0.0691,0.34742 -0.17142,0.68478 -0.307,1.01207 -0.13557,0.32727 -0.30175,0.63818 -0.49855,0.93272 -0.19682,0.29454 -0.42046,0.56706 -0.67094,0.81755 -0.25049,0.25048 -0.52301,0.47412 -0.81754,0.67093 -0.29455,0.19679 -0.60547,0.36298 -0.93274,0.49855 -0.32727,0.13556 -0.66463,0.2379 -1.01208,0.30702 -0.34742,0.0691 -0.69826,0.10367 -1.05249,0.10368 -0.35425,-1e-5 -0.70509,-0.0346 -1.05253,-0.10368 -0.34744,-0.0691 -0.6848,-0.17144 -1.01208,-0.307 -0.32727,-0.13558 -0.63819,-0.30176 -0.93274,-0.49857 -0.29453,-0.19681 -0.56705,-0.42045 -0.81753,-0.67093 -0.25048,-0.25049 -0.47413,-0.52301 -0.67095,-0.81754 -0.19681,-0.29455 -0.36299,-0.60546 -0.49856,-0.93273 -0.13555,-0.32729 -0.23788,-0.66465 -0.30699,-1.01207 -0.0691,-0.34744 -0.10365,-0.69828 -0.10365,-1.05251 0,-0.35425 0.0345,-0.70509 0.10365,-1.05254 0.0691,-0.34743 0.17144,-0.68479 0.30699,-1.01206 0.13557,-0.32727 0.30175,-0.6382 0.49857,-0.93275 0.19681,-0.29452 0.42046,-0.56704 0.67094,-0.81752 0.25048,-0.25048 0.523,-0.47414 0.81753,-0.67094 0.29455,-0.19683 0.60547,-0.36301 0.93274,-0.49857 0.32728,-0.13555 0.66464,-0.23789 1.01208,-0.307 0.34744,-0.0691 0.69828,-0.10365 1.05253,-0.10365 0.35423,0 0.70507,0.0346 1.05249,0.10366 0.34745,0.0691 0.6848,0.17144 1.01207,0.30699 0.32728,0.13556 0.6382,0.30174 0.93272,0.49857 0.29456,0.1968 0.56708,0.42046 0.81757,0.67094 0.25048,0.25048 0.47412,0.523 0.67094,0.81752 0.1968,0.29455 0.36297,0.60548 0.49854,0.93275 0.13557,0.32727 0.2379,0.66463 0.30701,1.01208 0.0691,0.34743 0.10369,0.69827 0.10369,1.05252 z"
       style="fill:none;stroke:#000000;stroke-width:0.21580119;stroke-linecap:butt;stroke-linejoin:miter;stroke-miterlimit:10;stroke-dasharray:none;stroke-opacity:1"
       id="path930" />
    <path
       d="m 171.52279,208.18755 c -10e-6,0.35423 -0.0346,0.70507 -0.10367,1.05251 -0.0691,0.34742 -0.17147,0.68478 -0.30704,1.01207 -0.13556,0.32727 -0.30175,0.63818 -0.49856,0.93272 -0.19679,0.29454 -0.42043,0.56706 -0.67091,0.81755 -0.25048,0.25048 -0.52301,0.47412 -0.81756,0.67093 -0.29453,0.19679 -0.60544,0.36298 -0.93271,0.49855 -0.32728,0.13556 -0.66464,0.2379 -1.01207,0.30702 -0.34744,0.0691 -0.69827,0.10367 -1.05251,0.10368 -0.35424,-1e-5 -0.70509,-0.0346 -1.05254,-0.10368 -0.34744,-0.0691 -0.6848,-0.17144 -1.01207,-0.307 -0.32729,-0.13558 -0.6382,-0.30176 -0.93272,-0.49857 -0.29455,-0.19681 -0.56706,-0.42045 -0.81754,-0.67093 -0.2505,-0.25049 -0.47415,-0.52301 -0.67094,-0.81754 -0.19681,-0.29455 -0.363,-0.60546 -0.49856,-0.93273 -0.13557,-0.32729 -0.2379,-0.66465 -0.30701,-1.01207 -0.0691,-0.34744 -0.10366,-0.69828 -0.10365,-1.05251 -1e-5,-0.35425 0.0345,-0.70509 0.10366,-1.05254 0.0691,-0.34743 0.17143,-0.68479 0.307,-1.01206 0.13556,-0.32727 0.30175,-0.6382 0.49854,-0.93275 0.19681,-0.29452 0.42046,-0.56704 0.67096,-0.81752 0.25048,-0.25048 0.52299,-0.47414 0.81754,-0.67094 0.29452,-0.19683 0.60543,-0.36301 0.93272,-0.49857 0.32727,-0.13555 0.66463,-0.23789 1.01207,-0.307 0.34745,-0.0691 0.6983,-0.10365 1.05254,-0.10365 0.35424,0 0.70507,0.0346 1.05252,0.10366 0.34742,0.0691 0.68478,0.17144 1.01206,0.30699 0.32727,0.13556 0.63818,0.30174 0.93271,0.49857 0.29455,0.1968 0.56708,0.42046 0.81756,0.67094 0.25048,0.25048 0.47413,0.523 0.67093,0.81752 0.19679,0.29455 0.36298,0.60548 0.49855,0.93275 0.13556,0.32727 0.23791,0.66463 0.30703,1.01208 0.0691,0.34743 0.10366,0.69827 0.10367,1.05252 z"
       style="fill:#ffffff;fill-opacity:1;fill-rule:nonzero;stroke:none;stroke-width:0.21580119"
       id="path932" />
    <path
       d="m 171.52279,208.18755 c -10e-6,0.35423 -0.0346,0.70507 -0.10367,1.05251 -0.0691,0.34742 -0.17147,0.68478 -0.30704,1.01207 -0.13556,0.32727 -0.30175,0.63818 -0.49856,0.93272 -0.19679,0.29454 -0.42043,0.56706 -0.67091,0.81755 -0.25048,0.25048 -0.52301,0.47412 -0.81756,0.67093 -0.29453,0.19679 -0.60544,0.36298 -0.93271,0.49855 -0.32728,0.13556 -0.66464,0.2379 -1.01207,0.30702 -0.34744,0.0691 -0.69827,0.10367 -1.05251,0.10368 -0.35424,-1e-5 -0.70509,-0.0346 -1.05254,-0.10368 -0.34744,-0.0691 -0.6848,-0.17144 -1.01207,-0.307 -0.32729,-0.13558 -0.6382,-0.30176 -0.93272,-0.49857 -0.29455,-0.19681 -0.56706,-0.42045 -0.81754,-0.67093 -0.2505,-0.25049 -0.47415,-0.52301 -0.67094,-0.81754 -0.19681,-0.29455 -0.363,-0.60546 -0.49856,-0.93273 -0.13557,-0.32729 -0.2379,-0.66465 -0.30701,-1.01207 -0.0691,-0.34744 -0.10366,-0.69828 -0.10365,-1.05251 -1e-5,-0.35425 0.0345,-0.70509 0.10366,-1.05254 0.0691,-0.34743 0.17143,-0.68479 0.307,-1.01206 0.13556,-0.32727 0.30175,-0.6382 0.49854,-0.93275 0.19681,-0.29452 0.42046,-0.56704 0.67096,-0.81752 0.25048,-0.25048 0.52299,-0.47414 0.81754,-0.67094 0.29452,-0.19683 0.60543,-0.36301 0.93272,-0.49857 0.32727,-0.13555 0.66463,-0.23789 1.01207,-0.307 0.34745,-0.0691 0.6983,-0.10365 1.05254,-0.10365 0.35424,0 0.70507,0.0346 1.05252,0.10366 0.34742,0.0691 0.68478,0.17144 1.01206,0.30699 0.32727,0.13556 0.63818,0.30174 0.93271,0.49857 0.29455,0.1968 0.56708,0.42046 0.81756,0.67094 0.25048,0.25048 0.47413,0.523 0.67093,0.81752 0.19679,0.29455 0.36298,0.60548 0.49855,0.93275 0.13556,0.32727 0.23791,0.66463 0.30703,1.01208 0.0691,0.34743 0.10366,0.69827 0.10367,1.05252 z"
       style="fill:none;stroke:#000000;stroke-width:0.21580119;stroke-linecap:butt;stroke-linejoin:miter;stroke-miterlimit:10;stroke-dasharray:none;stroke-opacity:1"
       id="path934" />
    <path
       d="m 184.47086,208.18755 c -10e-6,0.35423 -0.0346,0.70507 -0.10368,1.05251 -0.0691,0.34742 -0.17145,0.68478 -0.30702,1.01207 -0.13556,0.32727 -0.30174,0.63818 -0.49856,0.93272 -0.1968,0.29454 -0.42044,0.56706 -0.67092,0.81755 -0.25049,0.25048 -0.52301,0.47412 -0.81756,0.67093 -0.29454,0.19679 -0.60546,0.36298 -0.93273,0.49855 -0.32728,0.13556 -0.66464,0.2379 -1.01206,0.30702 -0.34743,0.0691 -0.69826,0.10367 -1.0525,0.10368 -0.35426,-1e-5 -0.70511,-0.0346 -1.05253,-0.10368 -0.34745,-0.0691 -0.6848,-0.17144 -1.01207,-0.307 -0.32728,-0.13558 -0.63819,-0.30176 -0.93275,-0.49857 -0.29454,-0.19681 -0.56704,-0.42045 -0.81752,-0.67093 -0.2505,-0.25049 -0.47415,-0.52301 -0.67094,-0.81754 -0.19682,-0.29455 -0.36301,-0.60546 -0.49857,-0.93273 -0.13555,-0.32729 -0.23789,-0.66465 -0.307,-1.01207 -0.0691,-0.34744 -0.10366,-0.69828 -0.10365,-1.05251 -1e-5,-0.35425 0.0345,-0.70509 0.10365,-1.05254 0.0691,-0.34743 0.17145,-0.68479 0.307,-1.01206 0.13556,-0.32727 0.30175,-0.6382 0.49857,-0.93275 0.19679,-0.29452 0.42044,-0.56704 0.67094,-0.81752 0.25048,-0.25048 0.52298,-0.47414 0.81754,-0.67094 0.29454,-0.19683 0.60545,-0.36301 0.93273,-0.49857 0.32727,-0.13555 0.66462,-0.23789 1.01206,-0.307 0.34743,-0.0691 0.69828,-0.10365 1.05254,-0.10365 0.35424,0 0.70507,0.0346 1.0525,0.10366 0.34742,0.0691 0.68478,0.17144 1.01205,0.30699 0.32728,0.13556 0.6382,0.30174 0.93275,0.49857 0.29454,0.1968 0.56706,0.42046 0.81755,0.67094 0.25048,0.25048 0.47414,0.523 0.67094,0.81752 0.1968,0.29455 0.36298,0.60548 0.49854,0.93275 0.13557,0.32727 0.23791,0.66463 0.30702,1.01208 0.0691,0.34743 0.10367,0.69827 0.10368,1.05252 z"
       style="fill:#ffffff;fill-opacity:1;fill-rule:nonzero;stroke:none;stroke-width:0.21580119"
       id="path936" />
    <path
       d="m 184.47086,208.18755 c -10e-6,0.35423 -0.0346,0.70507 -0.10368,1.05251 -0.0691,0.34742 -0.17145,0.68478 -0.30702,1.01207 -0.13556,0.32727 -0.30174,0.63818 -0.49856,0.93272 -0.1968,0.29454 -0.42044,0.56706 -0.67092,0.81755 -0.25049,0.25048 -0.52301,0.47412 -0.81756,0.67093 -0.29454,0.19679 -0.60546,0.36298 -0.93273,0.49855 -0.32728,0.13556 -0.66464,0.2379 -1.01206,0.30702 -0.34743,0.0691 -0.69826,0.10367 -1.0525,0.10368 -0.35426,-1e-5 -0.70511,-0.0346 -1.05253,-0.10368 -0.34745,-0.0691 -0.6848,-0.17144 -1.01207,-0.307 -0.32728,-0.13558 -0.63819,-0.30176 -0.93275,-0.49857 -0.29454,-0.19681 -0.56704,-0.42045 -0.81752,-0.67093 -0.2505,-0.25049 -0.47415,-0.52301 -0.67094,-0.81754 -0.19682,-0.29455 -0.36301,-0.60546 -0.49857,-0.93273 -0.13555,-0.32729 -0.23789,-0.66465 -0.307,-1.01207 -0.0691,-0.34744 -0.10366,-0.69828 -0.10365,-1.05251 -1e-5,-0.35425 0.0345,-0.70509 0.10365,-1.05254 0.0691,-0.34743 0.17145,-0.68479 0.307,-1.01206 0.13556,-0.32727 0.30175,-0.6382 0.49857,-0.93275 0.19679,-0.29452 0.42044,-0.56704 0.67094,-0.81752 0.25048,-0.25048 0.52298,-0.47414 0.81754,-0.67094 0.29454,-0.19683 0.60545,-0.36301 0.93273,-0.49857 0.32727,-0.13555 0.66462,-0.23789 1.01206,-0.307 0.34743,-0.0691 0.69828,-0.10365 1.05254,-0.10365 0.35424,0 0.70507,0.0346 1.0525,0.10366 0.34742,0.0691 0.68478,0.17144 1.01205,0.30699 0.32728,0.13556 0.6382,0.30174 0.93275,0.49857 0.29454,0.1968 0.56706,0.42046 0.81755,0.67094 0.25048,0.25048 0.47414,0.523 0.67094,0.81752 0.1968,0.29455 0.36298,0.60548 0.49854,0.93275 0.13557,0.32727 0.23791,0.66463 0.30702,1.01208 0.0691,0.34743 0.10367,0.69827 0.10368,1.05252 z"
       style="fill:none;stroke:#000000;stroke-width:0.21580119;stroke-linecap:butt;stroke-linejoin:miter;stroke-miterlimit:10;stroke-dasharray:none;stroke-opacity:1"
       id="path938" />
    <path
       d="m 113.25647,226.09905 c 0,0.35425 -0.0346,0.70508 -0.10367,1.05252 -0.0691,0.34742 -0.17145,0.68478 -0.30701,1.01205 -0.13557,0.32727 -0.30176,0.63819 -0.49857,0.93274 -0.19679,0.29455 -0.42044,0.56707 -0.67093,0.81755 -0.25048,0.25048 -0.52299,0.47412 -0.81754,0.67093 -0.29455,0.19681 -0.60546,0.36299 -0.93273,0.49856 -0.32727,0.13554 -0.66463,0.23788 -1.01207,0.30701 -0.34744,0.0691 -0.69827,0.10366 -1.0525,0.10367 -0.35425,-1e-5 -0.70509,-0.0346 -1.05252,-0.10367 -0.34745,-0.0691 -0.68482,-0.17147 -1.01209,-0.30701 -0.32728,-0.13557 -0.63819,-0.30175 -0.93273,-0.49857 -0.29453,-0.1968 -0.56705,-0.42044 -0.81753,-0.67092 -0.25048,-0.25048 -0.47413,-0.523 -0.67095,-0.81754 -0.19681,-0.29455 -0.36299,-0.60546 -0.49856,-0.93273 -0.13557,-0.32729 -0.2379,-0.66465 -0.30699,-1.01207 -0.0691,-0.34744 -0.10368,-0.69827 -0.10367,-1.05252 -1e-5,-0.35425 0.0345,-0.70508 0.10367,-1.05253 0.0691,-0.34744 0.17142,-0.6848 0.30699,-1.01208 0.13557,-0.32729 0.30175,-0.6382 0.49856,-0.93273 0.19682,-0.29455 0.42047,-0.56705 0.67095,-0.81754 0.25048,-0.25048 0.523,-0.47413 0.81753,-0.67094 0.29454,-0.1968 0.60545,-0.36299 0.93273,-0.49855 0.32727,-0.13557 0.66464,-0.2379 1.01209,-0.307 0.34743,-0.0691 0.69827,-0.10366 1.05252,-0.10366 0.35423,0 0.70506,0.0345 1.0525,0.10366 0.34744,0.0691 0.6848,0.17143 1.01207,0.307 0.32727,0.13556 0.63818,0.30175 0.93273,0.49855 0.29455,0.19681 0.56706,0.42046 0.81754,0.67094 0.25049,0.25049 0.47414,0.52299 0.67093,0.81753 0.19681,0.29454 0.363,0.60545 0.49857,0.93274 0.13556,0.32728 0.2379,0.66464 0.30701,1.01208 0.0691,0.34745 0.10367,0.69828 0.10367,1.05253 z"
       style="fill:#cccccc;fill-opacity:1;fill-rule:nonzero;stroke:none;stroke-width:0.21580119"
       id="path940" />
    <path
       d="m 113.25647,226.09905 c 0,0.35425 -0.0346,0.70508 -0.10367,1.05252 -0.0691,0.34742 -0.17145,0.68478 -0.30701,1.01205 -0.13557,0.32727 -0.30176,0.63819 -0.49857,0.93274 -0.19679,0.29455 -0.42044,0.56707 -0.67093,0.81755 -0.25048,0.25048 -0.52299,0.47412 -0.81754,0.67093 -0.29455,0.19681 -0.60546,0.36299 -0.93273,0.49856 -0.32727,0.13554 -0.66463,0.23788 -1.01207,0.30701 -0.34744,0.0691 -0.69827,0.10366 -1.0525,0.10367 -0.35425,-1e-5 -0.70509,-0.0346 -1.05252,-0.10367 -0.34745,-0.0691 -0.68482,-0.17147 -1.01209,-0.30701 -0.32728,-0.13557 -0.63819,-0.30175 -0.93273,-0.49857 -0.29453,-0.1968 -0.56705,-0.42044 -0.81753,-0.67092 -0.25048,-0.25048 -0.47413,-0.523 -0.67095,-0.81754 -0.19681,-0.29455 -0.36299,-0.60546 -0.49856,-0.93273 -0.13557,-0.32729 -0.2379,-0.66465 -0.30699,-1.01207 -0.0691,-0.34744 -0.10368,-0.69827 -0.10367,-1.05252 -1e-5,-0.35425 0.0345,-0.70508 0.10367,-1.05253 0.0691,-0.34744 0.17142,-0.6848 0.30699,-1.01208 0.13557,-0.32729 0.30175,-0.6382 0.49856,-0.93273 0.19682,-0.29455 0.42047,-0.56705 0.67095,-0.81754 0.25048,-0.25048 0.523,-0.47413 0.81753,-0.67094 0.29454,-0.1968 0.60545,-0.36299 0.93273,-0.49855 0.32727,-0.13557 0.66464,-0.2379 1.01209,-0.307 0.34743,-0.0691 0.69827,-0.10366 1.05252,-0.10366 0.35423,0 0.70506,0.0345 1.0525,0.10366 0.34744,0.0691 0.6848,0.17143 1.01207,0.307 0.32727,0.13556 0.63818,0.30175 0.93273,0.49855 0.29455,0.19681 0.56706,0.42046 0.81754,0.67094 0.25049,0.25049 0.47414,0.52299 0.67093,0.81753 0.19681,0.29454 0.363,0.60545 0.49857,0.93274 0.13556,0.32728 0.2379,0.66464 0.30701,1.01208 0.0691,0.34745 0.10367,0.69828 0.10367,1.05253 z"
       style="fill:none;stroke:#000000;stroke-width:0.21580119;stroke-linecap:butt;stroke-linejoin:miter;stroke-miterlimit:10;stroke-dasharray:none;stroke-opacity:1"
       id="path942" />
    <path
       d="m 130.52056,226.09905 c -1e-5,0.35425 -0.0346,0.70508 -0.10367,1.05252 -0.0691,0.34742 -0.17145,0.68478 -0.30701,1.01205 -0.13557,0.32727 -0.30176,0.63819 -0.49857,0.93274 -0.19679,0.29455 -0.42044,0.56707 -0.67092,0.81755 -0.25049,0.25048 -0.523,0.47412 -0.81756,0.67093 -0.29453,0.19681 -0.60544,0.36299 -0.93272,0.49856 -0.32727,0.13554 -0.66464,0.23788 -1.01207,0.30701 -0.34744,0.0691 -0.69827,0.10366 -1.0525,0.10367 -0.35425,-1e-5 -0.7051,-0.0346 -1.05254,-0.10367 -0.34745,-0.0691 -0.68481,-0.17147 -1.01208,-0.30701 -0.32727,-0.13557 -0.63818,-0.30175 -0.93272,-0.49857 -0.29455,-0.1968 -0.56706,-0.42044 -0.81754,-0.67092 -0.2505,-0.25048 -0.47415,-0.523 -0.67096,-0.81754 -0.1968,-0.29455 -0.36299,-0.60546 -0.49855,-0.93273 -0.13556,-0.32729 -0.23789,-0.66465 -0.307,-1.01207 -0.0691,-0.34744 -0.10366,-0.69827 -0.10365,-1.05252 -1e-5,-0.35425 0.0345,-0.70508 0.10365,-1.05253 0.0691,-0.34744 0.17144,-0.6848 0.307,-1.01208 0.13556,-0.32729 0.30175,-0.6382 0.49855,-0.93273 0.19681,-0.29455 0.42046,-0.56705 0.67096,-0.81754 0.25048,-0.25048 0.52299,-0.47413 0.81754,-0.67094 0.29454,-0.1968 0.60545,-0.36299 0.93272,-0.49855 0.32727,-0.13557 0.66463,-0.2379 1.01208,-0.307 0.34744,-0.0691 0.69829,-0.10366 1.05254,-0.10366 0.35423,0 0.70506,0.0345 1.0525,0.10366 0.34743,0.0691 0.6848,0.17143 1.01207,0.307 0.32728,0.13556 0.63819,0.30175 0.93272,0.49855 0.29456,0.19681 0.56707,0.42046 0.81756,0.67094 0.25048,0.25049 0.47413,0.52299 0.67092,0.81753 0.19681,0.29454 0.363,0.60545 0.49857,0.93274 0.13556,0.32728 0.23789,0.66464 0.307,1.01208 0.0691,0.34745 0.10367,0.69828 0.10368,1.05253 z"
       style="fill:#cccccc;fill-opacity:1;fill-rule:nonzero;stroke:none;stroke-width:0.21580119"
       id="path944" />
    <path
       d="m 130.52056,226.09905 c -1e-5,0.35425 -0.0346,0.70508 -0.10367,1.05252 -0.0691,0.34742 -0.17145,0.68478 -0.30701,1.01205 -0.13557,0.32727 -0.30176,0.63819 -0.49857,0.93274 -0.19679,0.29455 -0.42044,0.56707 -0.67092,0.81755 -0.25049,0.25048 -0.523,0.47412 -0.81756,0.67093 -0.29453,0.19681 -0.60544,0.36299 -0.93272,0.49856 -0.32727,0.13554 -0.66464,0.23788 -1.01207,0.30701 -0.34744,0.0691 -0.69827,0.10366 -1.0525,0.10367 -0.35425,-1e-5 -0.7051,-0.0346 -1.05254,-0.10367 -0.34745,-0.0691 -0.68481,-0.17147 -1.01208,-0.30701 -0.32727,-0.13557 -0.63818,-0.30175 -0.93272,-0.49857 -0.29455,-0.1968 -0.56706,-0.42044 -0.81754,-0.67092 -0.2505,-0.25048 -0.47415,-0.523 -0.67096,-0.81754 -0.1968,-0.29455 -0.36299,-0.60546 -0.49855,-0.93273 -0.13556,-0.32729 -0.23789,-0.66465 -0.307,-1.01207 -0.0691,-0.34744 -0.10366,-0.69827 -0.10365,-1.05252 -1e-5,-0.35425 0.0345,-0.70508 0.10365,-1.05253 0.0691,-0.34744 0.17144,-0.6848 0.307,-1.01208 0.13556,-0.32729 0.30175,-0.6382 0.49855,-0.93273 0.19681,-0.29455 0.42046,-0.56705 0.67096,-0.81754 0.25048,-0.25048 0.52299,-0.47413 0.81754,-0.67094 0.29454,-0.1968 0.60545,-0.36299 0.93272,-0.49855 0.32727,-0.13557 0.66463,-0.2379 1.01208,-0.307 0.34744,-0.0691 0.69829,-0.10366 1.05254,-0.10366 0.35423,0 0.70506,0.0345 1.0525,0.10366 0.34743,0.0691 0.6848,0.17143 1.01207,0.307 0.32728,0.13556 0.63819,0.30175 0.93272,0.49855 0.29456,0.19681 0.56707,0.42046 0.81756,0.67094 0.25048,0.25049 0.47413,0.52299 0.67092,0.81753 0.19681,0.29454 0.363,0.60545 0.49857,0.93274 0.13556,0.32728 0.23789,0.66464 0.307,1.01208 0.0691,0.34745 0.10367,0.69828 0.10368,1.05253 z"
       style="fill:none;stroke:#000000;stroke-width:0.21580119;stroke-linecap:butt;stroke-linejoin:miter;stroke-miterlimit:10;stroke-dasharray:none;stroke-opacity:1"
       id="path946" />
    <path
       d="m 132.23727,175.16997 -20.28531,11.22166"
       style="fill:none;stroke:#000000;stroke-width:0.21580119;stroke-linecap:butt;stroke-linejoin:miter;stroke-miterlimit:10;stroke-dasharray:none;stroke-opacity:1"
       id="path948" />
    <path
       d="m 141.73252,175.16997 20.50111,11.22166"
       style="fill:none;stroke:#000000;stroke-width:0.21580119;stroke-linecap:butt;stroke-linejoin:miter;stroke-miterlimit:10;stroke-dasharray:none;stroke-opacity:1"
       id="path950" />
    <path
       d="m 136.98489,177.75959 v 7.1345"
       style="fill:none;stroke:#000000;stroke-width:0.21580119;stroke-linecap:butt;stroke-linejoin:miter;stroke-miterlimit:10;stroke-dasharray:none;stroke-opacity:1"
       id="path952" />
    <path
       d="m 105.26212,195.02368 -4.31602,8.41625"
       style="fill:none;stroke:#000000;stroke-width:0.21580119;stroke-linecap:butt;stroke-linejoin:miter;stroke-miterlimit:10;stroke-dasharray:none;stroke-opacity:1"
       id="path954" />
    <path
       d="m 110.44135,195.02368 4.10022,8.41625"
       style="fill:none;stroke:#000000;stroke-width:0.21580119;stroke-linecap:butt;stroke-linejoin:miter;stroke-miterlimit:10;stroke-dasharray:none;stroke-opacity:1"
       id="path956" />
    <path
       d="m 113.67836,212.93518 -4.31602,8.41625"
       style="fill:none;stroke:#000000;stroke-width:0.21580119;stroke-linecap:butt;stroke-linejoin:miter;stroke-miterlimit:10;stroke-dasharray:none;stroke-opacity:1"
       id="path958" />
    <path
       d="m 118.85759,212.93518 4.10023,8.41625"
       style="fill:none;stroke:#000000;stroke-width:0.21580119;stroke-linecap:butt;stroke-linejoin:miter;stroke-miterlimit:10;stroke-dasharray:none;stroke-opacity:1"
       id="path960" />
    <path
       d="m 166.11805,195.45528 v 7.13451"
       style="fill:none;stroke:#000000;stroke-width:0.21580119;stroke-linecap:butt;stroke-linejoin:miter;stroke-miterlimit:10;stroke-dasharray:none;stroke-opacity:1"
       id="path962" />
    <path
       d="m 163.09684,194.80788 -6.89593,8.63205"
       style="fill:none;stroke:#000000;stroke-width:0.21580119;stroke-linecap:butt;stroke-linejoin:miter;stroke-miterlimit:10;stroke-dasharray:none;stroke-opacity:1"
       id="path964" />
    <path
       d="m 169.35507,194.59208 6.90564,8.84785"
       style="fill:none;stroke:#000000;stroke-width:0.21580119;stroke-linecap:butt;stroke-linejoin:miter;stroke-miterlimit:10;stroke-dasharray:none;stroke-opacity:1"
       id="path966" />
    <path
       d="m 130.52058,244.09787 c -2e-5,0.35424 -0.0346,0.70507 -0.10369,1.05251 -0.0691,0.34744 -0.17144,0.6848 -0.307,1.01206 -0.13557,0.32729 -0.30176,0.63819 -0.49855,0.93274 -0.19681,0.29453 -0.42046,0.56704 -0.67094,0.81754 -0.2505,0.25048 -0.52301,0.47412 -0.81756,0.67093 -0.29454,0.19681 -0.60545,0.36302 -0.93272,0.49856 -0.32727,0.13557 -0.66463,0.23792 -1.01205,0.30704 -0.34744,0.0691 -0.69828,0.10365 -1.05252,0.10365 -0.35425,0 -0.70509,-0.0346 -1.05253,-0.10365 -0.34744,-0.0691 -0.6848,-0.17147 -1.01208,-0.30706 -0.32729,-0.13556 -0.6382,-0.30173 -0.93273,-0.49854 -0.29455,-0.19681 -0.56706,-0.42045 -0.81754,-0.67093 -0.25049,-0.2505 -0.47414,-0.52301 -0.67094,-0.81756 -0.19681,-0.29455 -0.36299,-0.60545 -0.49857,-0.93272 -0.13556,-0.32728 -0.23788,-0.66464 -0.307,-1.01206 -0.0691,-0.34744 -0.10364,-0.69827 -0.10364,-1.05251 0,-0.35425 0.0346,-0.7051 0.10364,-1.05252 0.0691,-0.34746 0.17144,-0.68481 0.307,-1.01209 0.13558,-0.32728 0.30176,-0.63819 0.49856,-0.93273 0.19681,-0.29454 0.42046,-0.56705 0.67095,-0.81753 0.25048,-0.25049 0.52299,-0.47415 0.81754,-0.67095 0.29453,-0.1968 0.60544,-0.36298 0.93273,-0.49854 0.32728,-0.13556 0.66464,-0.23789 1.01208,-0.30701 0.34744,-0.0691 0.69828,-0.10364 1.05253,-0.10364 0.35424,0 0.70508,0.0346 1.05252,0.10364 0.34742,0.0691 0.68478,0.17145 1.01205,0.30701 0.32727,0.13556 0.63818,0.30174 0.93272,0.49855 0.29455,0.19679 0.56706,0.42045 0.81756,0.67094 0.25048,0.25048 0.47413,0.52299 0.67093,0.81753 0.19679,0.29454 0.36298,0.60545 0.49855,0.93273 0.13556,0.32728 0.23789,0.66463 0.307,1.01207 0.0691,0.34744 0.10368,0.69829 0.1037,1.05254 z"
       style="fill:#ffffff;fill-opacity:1;fill-rule:nonzero;stroke:none;stroke-width:0.21580119"
       id="path968" />
    <path
       d="m 130.52058,244.09787 c -2e-5,0.35424 -0.0346,0.70507 -0.10369,1.05251 -0.0691,0.34744 -0.17144,0.6848 -0.307,1.01206 -0.13557,0.32729 -0.30176,0.63819 -0.49855,0.93274 -0.19681,0.29453 -0.42046,0.56704 -0.67094,0.81754 -0.2505,0.25048 -0.52301,0.47412 -0.81756,0.67093 -0.29454,0.19681 -0.60545,0.36302 -0.93272,0.49856 -0.32727,0.13557 -0.66463,0.23792 -1.01205,0.30704 -0.34744,0.0691 -0.69828,0.10365 -1.05252,0.10365 -0.35425,0 -0.70509,-0.0346 -1.05253,-0.10365 -0.34744,-0.0691 -0.6848,-0.17147 -1.01208,-0.30706 -0.32729,-0.13556 -0.6382,-0.30173 -0.93273,-0.49854 -0.29455,-0.19681 -0.56706,-0.42045 -0.81754,-0.67093 -0.25049,-0.2505 -0.47414,-0.52301 -0.67094,-0.81756 -0.19681,-0.29455 -0.36299,-0.60545 -0.49857,-0.93272 -0.13556,-0.32728 -0.23788,-0.66464 -0.307,-1.01206 -0.0691,-0.34744 -0.10364,-0.69827 -0.10364,-1.05251 0,-0.35425 0.0346,-0.7051 0.10364,-1.05252 0.0691,-0.34746 0.17144,-0.68481 0.307,-1.01209 0.13558,-0.32728 0.30176,-0.63819 0.49856,-0.93273 0.19681,-0.29454 0.42046,-0.56705 0.67095,-0.81753 0.25048,-0.25049 0.52299,-0.47415 0.81754,-0.67095 0.29453,-0.1968 0.60544,-0.36298 0.93273,-0.49854 0.32728,-0.13556 0.66464,-0.23789 1.01208,-0.30701 0.34744,-0.0691 0.69828,-0.10364 1.05253,-0.10364 0.35424,0 0.70508,0.0346 1.05252,0.10364 0.34742,0.0691 0.68478,0.17145 1.01205,0.30701 0.32727,0.13556 0.63818,0.30174 0.93272,0.49855 0.29455,0.19679 0.56706,0.42045 0.81756,0.67094 0.25048,0.25048 0.47413,0.52299 0.67093,0.81753 0.19679,0.29454 0.36298,0.60545 0.49855,0.93273 0.13556,0.32728 0.23789,0.66463 0.307,1.01207 0.0691,0.34744 0.10368,0.69829 0.1037,1.05254 z"
       style="fill:none;stroke:#000000;stroke-width:0.21580119;stroke-linecap:butt;stroke-linejoin:miter;stroke-miterlimit:10;stroke-dasharray:none;stroke-opacity:1"
       id="path970" />
    <path
       d="m 125.12555,231.70988 v 7.13451"
       style="fill:none;stroke:#000000;stroke-width:0.21580119;stroke-linecap:butt;stroke-linejoin:miter;stroke-miterlimit:10;stroke-dasharray:none;stroke-opacity:1"
       id="path972" />
    <g
       id="g980"
       transform="matrix(0.21580119,0,0,0.21580119,-20.979502,27.650705)">
      <path
         d="m 663.84521,1011.2197 13.07703,-22.8848 13.07703,22.8848 z"
         style="fill:#cccccc;fill-opacity:1;fill-rule:nonzero;stroke:none"
         id="path1014" />
      <path
         d="m 663.84521,1011.2197 13.07703,-22.8848 13.07703,22.8848 z"
         style="fill:none;stroke:#000000;stroke-width:1;stroke-linecap:butt;stroke-linejoin:miter;stroke-miterlimit:10;stroke-dasharray:none;stroke-opacity:1"
         id="path1016" />
      <path
         d="m 663.84521,928.14203 13.07703,-22.88483 13.07703,22.88483 h -26.15412 z"
         style="fill:#cccccc;fill-opacity:1;fill-rule:nonzero;stroke:none"
         id="path1018" />
      <path
         d="m 663.84521,928.14203 13.07703,-22.88483 13.07703,22.88483 h -26.15412 z"
         style="fill:none;stroke:#000000;stroke-width:1;stroke-linecap:butt;stroke-linejoin:miter;stroke-miterlimit:10;stroke-dasharray:none;stroke-opacity:1"
         id="path1020" />
      <path
         d="m 623.84485,845.88116 13.07703,-22.88482 13.07702,22.88482 h -26.15411 z"
         style="fill:#cccccc;fill-opacity:1;fill-rule:nonzero;stroke:none"
         id="path1022" />
      <path
         d="m 623.84485,845.88116 13.07703,-22.88482 13.07702,22.88482 h -26.15411 z"
         style="fill:none;stroke:#000000;stroke-width:1;stroke-linecap:butt;stroke-linejoin:miter;stroke-miterlimit:10;stroke-dasharray:none;stroke-opacity:1"
         id="path1024" />
      <path
         d="m 583.84442,762.80347 13.07703,-22.88483 13.07702,22.88483 h -26.15411 z"
         style="fill:#cccccc;fill-opacity:1;fill-rule:nonzero;stroke:none"
         id="path1026" />
      <path
         d="m 583.84442,762.80347 13.07703,-22.88483 13.07702,22.88483 h -26.15411 z"
         style="fill:none;stroke:#000000;stroke-width:1;stroke-linecap:butt;stroke-linejoin:miter;stroke-miterlimit:10;stroke-dasharray:none;stroke-opacity:1"
         id="path1028" />
      <path
         d="m 719.23035,678.95642 13.07702,-22.88483 13.07703,22.88483 h -26.15411 z"
         style="fill:#cccccc;fill-opacity:1;fill-rule:nonzero;stroke:none"
         id="path1030" />
      <path
         d="m 719.23035,678.95642 13.07702,-22.88483 13.07703,22.88483 h -26.15411 z"
         style="fill:none;stroke:#000000;stroke-width:1;stroke-linecap:butt;stroke-linejoin:miter;stroke-miterlimit:10;stroke-dasharray:none;stroke-opacity:1"
         id="path1032" />
    </g>
    <g
       id="g1046"
       transform="matrix(-0.09754012,-0.19249956,0.19249956,-0.09754012,16.614828,424.75444)">
      <path
         d="m 653.74194,866.55652 -13.85162,-13.70563 24.90564,13.70563 -24.90564,13.70563 z"
         style="fill:#000000;fill-opacity:1;fill-rule:nonzero;stroke:none"
         id="path1048" />
      <path
         d="m 653.74194,866.55652 -13.85162,-13.70563 24.90564,13.70563 -24.90564,13.70563 z"
         style="fill:none;stroke:#000000;stroke-width:1;stroke-linecap:butt;stroke-linejoin:miter;stroke-miterlimit:10;stroke-dasharray:none;stroke-opacity:1"
         id="path1050" />
    </g>
    <g
       id="g1052"
       transform="matrix(-0.09754012,-0.19249956,0.19249956,-0.09754012,20.265548,390.40491)">
      <path
         d="m 613.30725,781.77405 -13.85162,-13.70563 24.90564,13.70563 -24.90564,13.70563 z"
         style="fill:#000000;fill-opacity:1;fill-rule:nonzero;stroke:none"
         id="path1054" />
      <path
         d="m 613.30725,781.77405 -13.85162,-13.70563 24.90564,13.70563 -24.90564,13.70563 z"
         style="fill:none;stroke:#000000;stroke-width:1;stroke-linecap:butt;stroke-linejoin:miter;stroke-miterlimit:10;stroke-dasharray:none;stroke-opacity:1"
         id="path1056" />
    </g>
    <g
       id="g1058"
       transform="matrix(-0.00219531,-0.21579003,0.21579003,-0.00219531,-79.596137,382.10408)">
      <path
         d="m 678.52454,955.68683 -13.85163,-13.70563 24.90564,13.70563 -24.90564,13.70563 z"
         style="fill:#000000;fill-opacity:1;fill-rule:nonzero;stroke:none"
         id="path1060" />
      <path
         d="m 678.52454,955.68683 -13.85163,-13.70563 24.90564,13.70563 -24.90564,13.70563 z"
         style="fill:none;stroke:#000000;stroke-width:1;stroke-linecap:butt;stroke-linejoin:miter;stroke-miterlimit:10;stroke-dasharray:none;stroke-opacity:1"
         id="path1062" />
    </g>
    <g
       id="g1064"
       transform="matrix(0.18019397,-0.11874462,0.11874462,0.18019397,-77.67151,135.66173)">
      <path
         d="m 704.61145,688.29596 -13.85162,-13.70563 24.90564,13.70563 -24.90564,13.70563 z"
         style="fill:#000000;fill-opacity:1;fill-rule:nonzero;stroke:none"
         id="path1066" />
      <path
         d="m 704.61145,688.29596 -13.85162,-13.70563 24.90564,13.70563 -24.90564,13.70563 z"
         style="fill:none;stroke:#000000;stroke-width:1;stroke-linecap:butt;stroke-linejoin:miter;stroke-miterlimit:10;stroke-dasharray:none;stroke-opacity:1"
         id="path1068" />
    </g>
  </g>
</svg>
