<?xml version="1.0" encoding="UTF-8" standalone="no"?>
<svg
   xmlns:dc="http://purl.org/dc/elements/1.1/"
   xmlns:cc="http://creativecommons.org/ns#"
   xmlns:rdf="http://www.w3.org/1999/02/22-rdf-syntax-ns#"
   xmlns:svg="http://www.w3.org/2000/svg"
   xmlns="http://www.w3.org/2000/svg"
   id="svg1518"
   version="1.1"
   viewBox="0 0 90.852303 82.739189"
   height="82.739189mm"
   width="90.852303mm">
<rect width="100%" height="100%" fill="rgba(255, 255, 255, 0.5)" />
  <defs
     id="defs1512" />
  <metadata
     id="metadata1515">
    <rdf:RDF>
      <cc:Work
         rdf:about="">
        <dc:format>image/svg+xml</dc:format>
        <dc:type
           rdf:resource="http://purl.org/dc/dcmitype/StillImage" />
        <dc:title></dc:title>
      </cc:Work>
    </rdf:RDF>
  </metadata>
  <g
     transform="translate(-33.017456,-121.86201)"
     id="layer1">
    <path
       d="m 81.680623,127.36493 c -1.1e-5,0.35425 -0.03456,0.70509 -0.103672,1.05252 -0.06911,0.34744 -0.171439,0.68479 -0.306999,1.01207 -0.135562,0.32728 -0.301746,0.63818 -0.498567,0.93272 -0.196808,0.29455 -0.420447,0.56707 -0.670928,0.81755 -0.250481,0.25049 -0.522999,0.47414 -0.817539,0.67095 -0.294555,0.1968 -0.605464,0.36299 -0.932735,0.49855 -0.327285,0.13556 -0.664647,0.2379 -1.012071,0.30701 -0.347438,0.0691 -0.698273,0.10366 -1.052518,0.10366 -0.354245,0 -0.70508,-0.0346 -1.052531,-0.10366 -0.347435,-0.0691 -0.684797,-0.17145 -1.012068,-0.30701 -0.327285,-0.13556 -0.638196,-0.30175 -0.932736,-0.49855 -0.294542,-0.19681 -0.56706,-0.42046 -0.817539,-0.67095 -0.250483,-0.25048 -0.474122,-0.523 -0.670941,-0.81755 -0.19681,-0.29454 -0.362995,-0.60544 -0.498557,-0.93272 -0.135572,-0.32728 -0.2379,-0.66463 -0.306998,-1.01207 -0.06911,-0.34743 -0.103659,-0.69827 -0.103659,-1.05252 0,-0.35424 0.03455,-0.70508 0.103659,-1.05252 0.0691,-0.34743 0.171426,-0.68479 0.306998,-1.01207 0.135562,-0.32727 0.301747,-0.63818 0.498557,-0.93273 0.196819,-0.29454 0.420458,-0.56705 0.670941,-0.81754 0.250479,-0.25049 0.522997,-0.47413 0.817539,-0.67094 0.294524,-0.19681 0.605438,-0.36299 0.932722,-0.49856 0.327272,-0.13556 0.664631,-0.23789 1.012082,-0.307 0.347451,-0.0691 0.698286,-0.10366 1.052531,-0.10366 0.354245,0 0.70508,0.0345 1.052518,0.10366 0.347424,0.0691 0.684786,0.17144 1.012071,0.307 0.327271,0.13557 0.63818,0.30175 0.932735,0.49856 0.29454,0.19681 0.567058,0.42045 0.817539,0.67094 0.250481,0.25049 0.47412,0.523 0.670928,0.81754 0.196821,0.29455 0.363005,0.60546 0.498567,0.93273 0.13556,0.32728 0.23789,0.66464 0.306999,1.01207 0.06911,0.34744 0.103661,0.69828 0.103672,1.05252 z"
       style="fill:#ffffff;fill-opacity:1;fill-rule:nonzero;stroke:none;stroke-width:0.21580119"
       id="path764" />
    <path
       d="m 81.680623,127.36493 c -1.1e-5,0.35425 -0.03456,0.70509 -0.103672,1.05252 -0.06911,0.34744 -0.171439,0.68479 -0.306999,1.01207 -0.135562,0.32728 -0.301746,0.63818 -0.498567,0.93272 -0.196808,0.29455 -0.420447,0.56707 -0.670928,0.81755 -0.250481,0.25049 -0.522999,0.47414 -0.817539,0.67095 -0.294555,0.1968 -0.605464,0.36299 -0.932735,0.49855 -0.327285,0.13556 -0.664647,0.2379 -1.012071,0.30701 -0.347438,0.0691 -0.698273,0.10366 -1.052518,0.10366 -0.354245,0 -0.70508,-0.0346 -1.052531,-0.10366 -0.347435,-0.0691 -0.684797,-0.17145 -1.012068,-0.30701 -0.327285,-0.13556 -0.638196,-0.30175 -0.932736,-0.49855 -0.294542,-0.19681 -0.56706,-0.42046 -0.817539,-0.67095 -0.250483,-0.25048 -0.474122,-0.523 -0.670941,-0.81755 -0.19681,-0.29454 -0.362995,-0.60544 -0.498557,-0.93272 -0.135572,-0.32728 -0.2379,-0.66463 -0.306998,-1.01207 -0.06911,-0.34743 -0.103659,-0.69827 -0.103659,-1.05252 0,-0.35424 0.03455,-0.70508 0.103659,-1.05252 0.0691,-0.34743 0.171426,-0.68479 0.306998,-1.01207 0.135562,-0.32727 0.301747,-0.63818 0.498557,-0.93273 0.196819,-0.29454 0.420458,-0.56705 0.670941,-0.81754 0.250479,-0.25049 0.522997,-0.47413 0.817539,-0.67094 0.294524,-0.19681 0.605438,-0.36299 0.932722,-0.49856 0.327272,-0.13556 0.664631,-0.23789 1.012082,-0.307 0.347451,-0.0691 0.698286,-0.10366 1.052531,-0.10366 0.354245,0 0.70508,0.0345 1.052518,0.10366 0.347424,0.0691 0.684786,0.17144 1.012071,0.307 0.327271,0.13557 0.63818,0.30175 0.932735,0.49856 0.29454,0.19681 0.567058,0.42045 0.817539,0.67094 0.250481,0.25049 0.47412,0.523 0.670928,0.81754 0.196821,0.29455 0.363005,0.60546 0.498567,0.93273 0.13556,0.32728 0.23789,0.66464 0.306999,1.01207 0.06911,0.34744 0.103661,0.69828 0.103672,1.05252 z"
       style="fill:none;stroke:#000000;stroke-width:0.21580119;stroke-linecap:butt;stroke-linejoin:miter;stroke-miterlimit:10;stroke-dasharray:none;stroke-opacity:1"
       id="path766" />
    <path
       d="m 52.547464,145.27643 c 0,0.35425 -0.03456,0.70508 -0.103673,1.05252 -0.06911,0.34743 -0.171452,0.68479 -0.307014,1.01207 -0.135573,0.32727 -0.301757,0.63818 -0.498566,0.93273 -0.196793,0.29454 -0.420445,0.56705 -0.670928,0.81754 -0.25048,0.25049 -0.522998,0.47414 -0.817539,0.67094 -0.294553,0.1968 -0.605465,0.36299 -0.932736,0.49855 -0.327271,0.13557 -0.664633,0.2379 -1.012069,0.30701 -0.347437,0.0691 -0.698272,0.10367 -1.052505,0.10367 -0.354246,0 -0.705081,-0.0346 -1.052519,-0.10367 -0.347448,-0.0691 -0.68481,-0.17144 -1.012081,-0.30701 -0.327284,-0.13556 -0.638196,-0.30175 -0.932736,-0.49855 -0.294528,-0.19681 -0.567046,-0.42045 -0.817526,-0.67094 -0.250483,-0.25049 -0.474135,-0.523 -0.670954,-0.81754 -0.196809,-0.29455 -0.362993,-0.60546 -0.498555,-0.93273 -0.135573,-0.32728 -0.237901,-0.66464 -0.306999,-1.01207 -0.06911,-0.34744 -0.103673,-0.69827 -0.10366,-1.05252 -1.3e-5,-0.35424 0.03455,-0.70508 0.10366,-1.05252 0.0691,-0.34743 0.171426,-0.68479 0.306999,-1.01207 0.135562,-0.32728 0.301746,-0.63819 0.498555,-0.93273 0.196819,-0.29454 0.420471,-0.56706 0.670954,-0.81754 0.25048,-0.25049 0.522998,-0.47414 0.817526,-0.67094 0.29454,-0.19681 0.605452,-0.363 0.932736,-0.49856 0.327271,-0.13556 0.664633,-0.23789 1.012081,-0.307 0.347438,-0.0691 0.698273,-0.10367 1.052519,-0.10367 0.354233,0 0.705068,0.0346 1.052505,0.10367 0.347436,0.0691 0.684798,0.17144 1.012069,0.307 0.327271,0.13556 0.638183,0.30175 0.932736,0.49856 0.294541,0.1968 0.567059,0.42045 0.817539,0.67094 0.250483,0.25048 0.474135,0.523 0.670928,0.81754 0.196809,0.29454 0.362993,0.60545 0.498566,0.93273 0.135562,0.32728 0.237903,0.66464 0.307014,1.01207 0.06911,0.34744 0.103673,0.69828 0.103673,1.05252 z"
       style="fill:#cccccc;fill-opacity:1;fill-rule:nonzero;stroke:none;stroke-width:0.21580119"
       id="path768" />
    <path
       d="m 52.547464,145.27643 c 0,0.35425 -0.03456,0.70508 -0.103673,1.05252 -0.06911,0.34743 -0.171452,0.68479 -0.307014,1.01207 -0.135573,0.32727 -0.301757,0.63818 -0.498566,0.93273 -0.196793,0.29454 -0.420445,0.56705 -0.670928,0.81754 -0.25048,0.25049 -0.522998,0.47414 -0.817539,0.67094 -0.294553,0.1968 -0.605465,0.36299 -0.932736,0.49855 -0.327271,0.13557 -0.664633,0.2379 -1.012069,0.30701 -0.347437,0.0691 -0.698272,0.10367 -1.052505,0.10367 -0.354246,0 -0.705081,-0.0346 -1.052519,-0.10367 -0.347448,-0.0691 -0.68481,-0.17144 -1.012081,-0.30701 -0.327284,-0.13556 -0.638196,-0.30175 -0.932736,-0.49855 -0.294528,-0.19681 -0.567046,-0.42045 -0.817526,-0.67094 -0.250483,-0.25049 -0.474135,-0.523 -0.670954,-0.81754 -0.196809,-0.29455 -0.362993,-0.60546 -0.498555,-0.93273 -0.135573,-0.32728 -0.237901,-0.66464 -0.306999,-1.01207 -0.06911,-0.34744 -0.103673,-0.69827 -0.10366,-1.05252 -1.3e-5,-0.35424 0.03455,-0.70508 0.10366,-1.05252 0.0691,-0.34743 0.171426,-0.68479 0.306999,-1.01207 0.135562,-0.32728 0.301746,-0.63819 0.498555,-0.93273 0.196819,-0.29454 0.420471,-0.56706 0.670954,-0.81754 0.25048,-0.25049 0.522998,-0.47414 0.817526,-0.67094 0.29454,-0.19681 0.605452,-0.363 0.932736,-0.49856 0.327271,-0.13556 0.664633,-0.23789 1.012081,-0.307 0.347438,-0.0691 0.698273,-0.10367 1.052519,-0.10367 0.354233,0 0.705068,0.0346 1.052505,0.10367 0.347436,0.0691 0.684798,0.17144 1.012069,0.307 0.327271,0.13556 0.638183,0.30175 0.932736,0.49856 0.294541,0.1968 0.567059,0.42045 0.817539,0.67094 0.250483,0.25048 0.474135,0.523 0.670928,0.81754 0.196809,0.29454 0.362993,0.60545 0.498566,0.93273 0.135562,0.32728 0.237903,0.66464 0.307014,1.01207 0.06911,0.34744 0.103673,0.69828 0.103673,1.05252 z"
       style="fill:none;stroke:#000000;stroke-width:0.21580119;stroke-linecap:butt;stroke-linejoin:miter;stroke-miterlimit:10;stroke-dasharray:none;stroke-opacity:1"
       id="path770" />
    <path
       d="m 81.680623,145.27643 c -1.1e-5,0.35425 -0.03456,0.70508 -0.103672,1.05252 -0.06911,0.34743 -0.171439,0.68479 -0.306999,1.01207 -0.135562,0.32727 -0.301746,0.63818 -0.498567,0.93273 -0.196808,0.29454 -0.420447,0.56705 -0.670928,0.81754 -0.250481,0.25049 -0.522999,0.47414 -0.817539,0.67094 -0.294555,0.1968 -0.605464,0.36299 -0.932735,0.49855 -0.327285,0.13557 -0.664647,0.2379 -1.012071,0.30701 -0.347438,0.0691 -0.698273,0.10367 -1.052518,0.10367 -0.354245,0 -0.70508,-0.0346 -1.052531,-0.10367 -0.347435,-0.0691 -0.684797,-0.17144 -1.012068,-0.30701 -0.327285,-0.13556 -0.638196,-0.30175 -0.932736,-0.49855 -0.294542,-0.19681 -0.56706,-0.42045 -0.817539,-0.67094 -0.250483,-0.25049 -0.474122,-0.523 -0.670941,-0.81754 -0.19681,-0.29455 -0.362995,-0.60546 -0.498557,-0.93273 -0.135572,-0.32728 -0.2379,-0.66464 -0.306998,-1.01207 -0.06911,-0.34744 -0.103659,-0.69827 -0.103659,-1.05252 0,-0.35424 0.03455,-0.70508 0.103659,-1.05252 0.0691,-0.34743 0.171426,-0.68479 0.306998,-1.01207 0.135562,-0.32728 0.301747,-0.63819 0.498557,-0.93273 0.196819,-0.29454 0.420458,-0.56706 0.670941,-0.81754 0.250479,-0.25049 0.522997,-0.47414 0.817539,-0.67094 0.294524,-0.19681 0.605438,-0.363 0.932722,-0.49856 0.327272,-0.13556 0.664631,-0.23789 1.012082,-0.307 0.347451,-0.0691 0.698286,-0.10367 1.052531,-0.10367 0.354245,0 0.70508,0.0346 1.052518,0.10367 0.347424,0.0691 0.684786,0.17144 1.012071,0.307 0.327271,0.13556 0.63818,0.30175 0.932735,0.49856 0.29454,0.1968 0.567058,0.42045 0.817539,0.67094 0.250481,0.25048 0.47412,0.523 0.670928,0.81754 0.196821,0.29454 0.363005,0.60545 0.498567,0.93273 0.13556,0.32728 0.23789,0.66464 0.306999,1.01207 0.06911,0.34744 0.103661,0.69828 0.103672,1.05252 z"
       style="fill:#cccccc;fill-opacity:1;fill-rule:nonzero;stroke:none;stroke-width:0.21580119"
       id="path772" />
    <path
       d="m 81.680623,145.27643 c -1.1e-5,0.35425 -0.03456,0.70508 -0.103672,1.05252 -0.06911,0.34743 -0.171439,0.68479 -0.306999,1.01207 -0.135562,0.32727 -0.301746,0.63818 -0.498567,0.93273 -0.196808,0.29454 -0.420447,0.56705 -0.670928,0.81754 -0.250481,0.25049 -0.522999,0.47414 -0.817539,0.67094 -0.294555,0.1968 -0.605464,0.36299 -0.932735,0.49855 -0.327285,0.13557 -0.664647,0.2379 -1.012071,0.30701 -0.347438,0.0691 -0.698273,0.10367 -1.052518,0.10367 -0.354245,0 -0.70508,-0.0346 -1.052531,-0.10367 -0.347435,-0.0691 -0.684797,-0.17144 -1.012068,-0.30701 -0.327285,-0.13556 -0.638196,-0.30175 -0.932736,-0.49855 -0.294542,-0.19681 -0.56706,-0.42045 -0.817539,-0.67094 -0.250483,-0.25049 -0.474122,-0.523 -0.670941,-0.81754 -0.19681,-0.29455 -0.362995,-0.60546 -0.498557,-0.93273 -0.135572,-0.32728 -0.2379,-0.66464 -0.306998,-1.01207 -0.06911,-0.34744 -0.103659,-0.69827 -0.103659,-1.05252 0,-0.35424 0.03455,-0.70508 0.103659,-1.05252 0.0691,-0.34743 0.171426,-0.68479 0.306998,-1.01207 0.135562,-0.32728 0.301747,-0.63819 0.498557,-0.93273 0.196819,-0.29454 0.420458,-0.56706 0.670941,-0.81754 0.250479,-0.25049 0.522997,-0.47414 0.817539,-0.67094 0.294524,-0.19681 0.605438,-0.363 0.932722,-0.49856 0.327272,-0.13556 0.664631,-0.23789 1.012082,-0.307 0.347451,-0.0691 0.698286,-0.10367 1.052531,-0.10367 0.354245,0 0.70508,0.0346 1.052518,0.10367 0.347424,0.0691 0.684786,0.17144 1.012071,0.307 0.327271,0.13556 0.63818,0.30175 0.932735,0.49856 0.29454,0.1968 0.567058,0.42045 0.817539,0.67094 0.250481,0.25048 0.47412,0.523 0.670928,0.81754 0.196821,0.29454 0.363005,0.60545 0.498567,0.93273 0.13556,0.32728 0.23789,0.66464 0.306999,1.01207 0.06911,0.34744 0.103661,0.69828 0.103672,1.05252 z"
       style="fill:none;stroke:#000000;stroke-width:0.21580119;stroke-linecap:butt;stroke-linejoin:miter;stroke-miterlimit:10;stroke-dasharray:none;stroke-opacity:1"
       id="path774" />
    <path
       d="m 110.81379,145.27643 c -2e-5,0.35425 -0.0346,0.70508 -0.10368,1.05252 -0.0691,0.34743 -0.17146,0.68479 -0.30704,1.01207 -0.13556,0.32727 -0.30174,0.63818 -0.49855,0.93273 -0.1968,0.29454 -0.42043,0.56705 -0.67092,0.81754 -0.25048,0.25049 -0.52301,0.47414 -0.81756,0.67094 -0.29453,0.1968 -0.60544,0.36299 -0.93271,0.49855 -0.32727,0.13557 -0.66463,0.2379 -1.01207,0.30701 -0.34744,0.0691 -0.69827,0.10367 -1.05251,0.10367 -0.35424,0 -0.70509,-0.0346 -1.05254,-0.10367 -0.34744,-0.0691 -0.6848,-0.17144 -1.01207,-0.30701 -0.32728,-0.13556 -0.63819,-0.30175 -0.93272,-0.49855 -0.29454,-0.19681 -0.56706,-0.42045 -0.81754,-0.67094 -0.2505,-0.25049 -0.47415,-0.523 -0.67094,-0.81754 -0.19681,-0.29455 -0.36299,-0.60546 -0.49855,-0.93273 -0.13558,-0.32728 -0.23791,-0.66464 -0.30702,-1.01207 -0.0691,-0.34744 -0.10366,-0.69827 -0.10364,-1.05252 -2e-5,-0.35424 0.0345,-0.70508 0.10366,-1.05252 0.0691,-0.34743 0.17142,-0.68479 0.307,-1.01207 0.13556,-0.32728 0.30174,-0.63819 0.49854,-0.93273 0.1968,-0.29454 0.42045,-0.56706 0.67095,-0.81754 0.25048,-0.25049 0.523,-0.47414 0.81754,-0.67094 0.29453,-0.19681 0.60544,-0.363 0.93272,-0.49856 0.32727,-0.13556 0.66463,-0.23789 1.01207,-0.307 0.34745,-0.0691 0.6983,-0.10367 1.05254,-0.10367 0.35424,0 0.70507,0.0346 1.05252,0.10367 0.34743,0.0691 0.68479,0.17144 1.01206,0.307 0.32727,0.13556 0.63818,0.30175 0.93271,0.49856 0.29455,0.1968 0.56708,0.42045 0.81756,0.67094 0.25049,0.25048 0.47414,0.523 0.67093,0.81754 0.1968,0.29454 0.36298,0.60545 0.49856,0.93273 0.13556,0.32728 0.2379,0.66464 0.30702,1.01207 0.0691,0.34744 0.10366,0.69828 0.10368,1.05252 z"
       style="fill:#cccccc;fill-opacity:1;fill-rule:nonzero;stroke:none;stroke-width:0.21580119"
       id="path776" />
    <path
       d="m 110.81379,145.27643 c -2e-5,0.35425 -0.0346,0.70508 -0.10368,1.05252 -0.0691,0.34743 -0.17146,0.68479 -0.30704,1.01207 -0.13556,0.32727 -0.30174,0.63818 -0.49855,0.93273 -0.1968,0.29454 -0.42043,0.56705 -0.67092,0.81754 -0.25048,0.25049 -0.52301,0.47414 -0.81756,0.67094 -0.29453,0.1968 -0.60544,0.36299 -0.93271,0.49855 -0.32727,0.13557 -0.66463,0.2379 -1.01207,0.30701 -0.34744,0.0691 -0.69827,0.10367 -1.05251,0.10367 -0.35424,0 -0.70509,-0.0346 -1.05254,-0.10367 -0.34744,-0.0691 -0.6848,-0.17144 -1.01207,-0.30701 -0.32728,-0.13556 -0.63819,-0.30175 -0.93272,-0.49855 -0.29454,-0.19681 -0.56706,-0.42045 -0.81754,-0.67094 -0.2505,-0.25049 -0.47415,-0.523 -0.67094,-0.81754 -0.19681,-0.29455 -0.36299,-0.60546 -0.49855,-0.93273 -0.13558,-0.32728 -0.23791,-0.66464 -0.30702,-1.01207 -0.0691,-0.34744 -0.10366,-0.69827 -0.10364,-1.05252 -2e-5,-0.35424 0.0345,-0.70508 0.10366,-1.05252 0.0691,-0.34743 0.17142,-0.68479 0.307,-1.01207 0.13556,-0.32728 0.30174,-0.63819 0.49854,-0.93273 0.1968,-0.29454 0.42045,-0.56706 0.67095,-0.81754 0.25048,-0.25049 0.523,-0.47414 0.81754,-0.67094 0.29453,-0.19681 0.60544,-0.363 0.93272,-0.49856 0.32727,-0.13556 0.66463,-0.23789 1.01207,-0.307 0.34745,-0.0691 0.6983,-0.10367 1.05254,-0.10367 0.35424,0 0.70507,0.0346 1.05252,0.10367 0.34743,0.0691 0.68479,0.17144 1.01206,0.307 0.32727,0.13556 0.63818,0.30175 0.93271,0.49856 0.29455,0.1968 0.56708,0.42045 0.81756,0.67094 0.25049,0.25048 0.47414,0.523 0.67093,0.81754 0.1968,0.29454 0.36298,0.60545 0.49856,0.93273 0.13556,0.32728 0.2379,0.66464 0.30702,1.01207 0.0691,0.34744 0.10366,0.69828 0.10368,1.05252 z"
       style="fill:none;stroke:#000000;stroke-width:0.21580119;stroke-linecap:butt;stroke-linejoin:miter;stroke-miterlimit:10;stroke-dasharray:none;stroke-opacity:1"
       id="path778" />
    <path
       d="m 43.915416,163.18793 c -1.3e-5,0.35424 -0.03458,0.70508 -0.103686,1.05251 -0.06911,0.34743 -0.171452,0.6848 -0.307014,1.01207 -0.13556,0.32728 -0.301744,0.63819 -0.498539,0.93272 -0.196807,0.29455 -0.420459,0.56707 -0.670941,0.81756 -0.250481,0.25048 -0.522999,0.47412 -0.817552,0.67093 -0.294541,0.1968 -0.605439,0.36299 -0.93271,0.49855 -0.327284,0.13557 -0.664646,0.23791 -1.012069,0.30702 -0.347438,0.0691 -0.698272,0.10366 -1.052518,0.10367 -0.354247,-1e-5 -0.705094,-0.0346 -1.052545,-0.10367 -0.347438,-0.0691 -0.684797,-0.17145 -1.012069,-0.30702 -0.327284,-0.13556 -0.638197,-0.30175 -0.932723,-0.49855 -0.29454,-0.19681 -0.567058,-0.42045 -0.817539,-0.67093 -0.250482,-0.25049 -0.474134,-0.52301 -0.670941,-0.81756 -0.196808,-0.29453 -0.362992,-0.60544 -0.498554,-0.93272 -0.135573,-0.32727 -0.237902,-0.66464 -0.306999,-1.01207 -0.06911,-0.34743 -0.10366,-0.69827 -0.10366,-1.05251 0,-0.35424 0.03455,-0.70508 0.10366,-1.05252 0.0691,-0.34744 0.171426,-0.6848 0.306999,-1.01208 0.135562,-0.32728 0.301746,-0.63819 0.498554,-0.93273 0.196807,-0.29454 0.420459,-0.56705 0.670941,-0.81754 0.250481,-0.25049 0.522999,-0.47413 0.817539,-0.67094 0.294526,-0.1968 0.605439,-0.36299 0.932723,-0.49855 0.327272,-0.13556 0.664631,-0.2379 1.012069,-0.307 0.347451,-0.0691 0.698298,-0.10367 1.052545,-0.10367 0.354246,0 0.70508,0.0346 1.052518,0.10367 0.347423,0.0691 0.684785,0.17144 1.012069,0.307 0.327271,0.13556 0.638169,0.30175 0.932723,0.49855 0.29454,0.19681 0.567058,0.42045 0.817539,0.67094 0.250482,0.25049 0.474134,0.523 0.670941,0.81754 0.196795,0.29454 0.362979,0.60545 0.498539,0.93273 0.135562,0.32728 0.237904,0.66464 0.307014,1.01208 0.06911,0.34744 0.103673,0.69828 0.103686,1.05252 z"
       style="fill:#ffffff;fill-opacity:1;fill-rule:nonzero;stroke:none;stroke-width:0.21580119"
       id="path780" />
    <path
       d="m 43.915416,163.18793 c -1.3e-5,0.35424 -0.03458,0.70508 -0.103686,1.05251 -0.06911,0.34743 -0.171452,0.6848 -0.307014,1.01207 -0.13556,0.32728 -0.301744,0.63819 -0.498539,0.93272 -0.196807,0.29455 -0.420459,0.56707 -0.670941,0.81756 -0.250481,0.25048 -0.522999,0.47412 -0.817552,0.67093 -0.294541,0.1968 -0.605439,0.36299 -0.93271,0.49855 -0.327284,0.13557 -0.664646,0.23791 -1.012069,0.30702 -0.347438,0.0691 -0.698272,0.10366 -1.052518,0.10367 -0.354247,-1e-5 -0.705094,-0.0346 -1.052545,-0.10367 -0.347438,-0.0691 -0.684797,-0.17145 -1.012069,-0.30702 -0.327284,-0.13556 -0.638197,-0.30175 -0.932723,-0.49855 -0.29454,-0.19681 -0.567058,-0.42045 -0.817539,-0.67093 -0.250482,-0.25049 -0.474134,-0.52301 -0.670941,-0.81756 -0.196808,-0.29453 -0.362992,-0.60544 -0.498554,-0.93272 -0.135573,-0.32727 -0.237902,-0.66464 -0.306999,-1.01207 -0.06911,-0.34743 -0.10366,-0.69827 -0.10366,-1.05251 0,-0.35424 0.03455,-0.70508 0.10366,-1.05252 0.0691,-0.34744 0.171426,-0.6848 0.306999,-1.01208 0.135562,-0.32728 0.301746,-0.63819 0.498554,-0.93273 0.196807,-0.29454 0.420459,-0.56705 0.670941,-0.81754 0.250481,-0.25049 0.522999,-0.47413 0.817539,-0.67094 0.294526,-0.1968 0.605439,-0.36299 0.932723,-0.49855 0.327272,-0.13556 0.664631,-0.2379 1.012069,-0.307 0.347451,-0.0691 0.698298,-0.10367 1.052545,-0.10367 0.354246,0 0.70508,0.0346 1.052518,0.10367 0.347423,0.0691 0.684785,0.17144 1.012069,0.307 0.327271,0.13556 0.638169,0.30175 0.932723,0.49855 0.29454,0.19681 0.567058,0.42045 0.817539,0.67094 0.250482,0.25049 0.474134,0.523 0.670941,0.81754 0.196795,0.29454 0.362979,0.60545 0.498539,0.93273 0.135562,0.32728 0.237904,0.66464 0.307014,1.01208 0.06911,0.34744 0.103673,0.69828 0.103686,1.05252 z"
       style="fill:none;stroke:#000000;stroke-width:0.21580119;stroke-linecap:butt;stroke-linejoin:miter;stroke-miterlimit:10;stroke-dasharray:none;stroke-opacity:1"
       id="path782" />
    <path
       d="m 61.17951,163.18793 c -1.3e-5,0.35424 -0.03458,0.70508 -0.103685,1.05251 -0.06911,0.34743 -0.171439,0.6848 -0.307001,1.01207 -0.135573,0.32728 -0.301757,0.63819 -0.498552,0.93272 -0.196821,0.29455 -0.420473,0.56707 -0.670954,0.81756 -0.250481,0.25048 -0.522999,0.47412 -0.817539,0.67093 -0.294541,0.1968 -0.605452,0.36299 -0.932736,0.49855 -0.327287,0.13557 -0.664646,0.23791 -1.012069,0.30702 -0.347425,0.0691 -0.698259,0.10366 -1.052493,0.10367 -0.354246,-1e-5 -0.705093,-0.0346 -1.052531,-0.10367 -0.347436,-0.0691 -0.684798,-0.17145 -1.012069,-0.30702 -0.327271,-0.13556 -0.638182,-0.30175 -0.932736,-0.49855 -0.294527,-0.19681 -0.567045,-0.42045 -0.817526,-0.67093 -0.250482,-0.25049 -0.474134,-0.52301 -0.670941,-0.81756 -0.196821,-0.29453 -0.363006,-0.60544 -0.498567,-0.93272 -0.13556,-0.32727 -0.237889,-0.66464 -0.306999,-1.01207 -0.06911,-0.34743 -0.103673,-0.69827 -0.10366,-1.05251 -1.3e-5,-0.35424 0.03455,-0.70508 0.10366,-1.05252 0.06911,-0.34744 0.171439,-0.6848 0.306999,-1.01208 0.135561,-0.32728 0.301746,-0.63819 0.498567,-0.93273 0.196807,-0.29454 0.420459,-0.56705 0.670941,-0.81754 0.250481,-0.25049 0.522999,-0.47413 0.817526,-0.67094 0.294554,-0.1968 0.605465,-0.36299 0.932736,-0.49855 0.327271,-0.13556 0.664633,-0.2379 1.012069,-0.307 0.347438,-0.0691 0.698285,-0.10367 1.052531,-0.10367 0.354234,0 0.705068,0.0346 1.052493,0.10367 0.347423,0.0691 0.684782,0.17144 1.012069,0.307 0.327284,0.13556 0.638195,0.30175 0.932736,0.49855 0.29454,0.19681 0.567058,0.42045 0.817539,0.67094 0.250481,0.25049 0.474133,0.523 0.670954,0.81754 0.196795,0.29454 0.362979,0.60545 0.498552,0.93273 0.135562,0.32728 0.237889,0.66464 0.307001,1.01208 0.06911,0.34744 0.103672,0.69828 0.103685,1.05252 z"
       style="fill:#ffffff;fill-opacity:1;fill-rule:nonzero;stroke:none;stroke-width:0.21580119"
       id="path784" />
    <path
       d="m 61.17951,163.18793 c -1.3e-5,0.35424 -0.03458,0.70508 -0.103685,1.05251 -0.06911,0.34743 -0.171439,0.6848 -0.307001,1.01207 -0.135573,0.32728 -0.301757,0.63819 -0.498552,0.93272 -0.196821,0.29455 -0.420473,0.56707 -0.670954,0.81756 -0.250481,0.25048 -0.522999,0.47412 -0.817539,0.67093 -0.294541,0.1968 -0.605452,0.36299 -0.932736,0.49855 -0.327287,0.13557 -0.664646,0.23791 -1.012069,0.30702 -0.347425,0.0691 -0.698259,0.10366 -1.052493,0.10367 -0.354246,-1e-5 -0.705093,-0.0346 -1.052531,-0.10367 -0.347436,-0.0691 -0.684798,-0.17145 -1.012069,-0.30702 -0.327271,-0.13556 -0.638182,-0.30175 -0.932736,-0.49855 -0.294527,-0.19681 -0.567045,-0.42045 -0.817526,-0.67093 -0.250482,-0.25049 -0.474134,-0.52301 -0.670941,-0.81756 -0.196821,-0.29453 -0.363006,-0.60544 -0.498567,-0.93272 -0.13556,-0.32727 -0.237889,-0.66464 -0.306999,-1.01207 -0.06911,-0.34743 -0.103673,-0.69827 -0.10366,-1.05251 -1.3e-5,-0.35424 0.03455,-0.70508 0.10366,-1.05252 0.06911,-0.34744 0.171439,-0.6848 0.306999,-1.01208 0.135561,-0.32728 0.301746,-0.63819 0.498567,-0.93273 0.196807,-0.29454 0.420459,-0.56705 0.670941,-0.81754 0.250481,-0.25049 0.522999,-0.47413 0.817526,-0.67094 0.294554,-0.1968 0.605465,-0.36299 0.932736,-0.49855 0.327271,-0.13556 0.664633,-0.2379 1.012069,-0.307 0.347438,-0.0691 0.698285,-0.10367 1.052531,-0.10367 0.354234,0 0.705068,0.0346 1.052493,0.10367 0.347423,0.0691 0.684782,0.17144 1.012069,0.307 0.327284,0.13556 0.638195,0.30175 0.932736,0.49855 0.29454,0.19681 0.567058,0.42045 0.817539,0.67094 0.250481,0.25049 0.474133,0.523 0.670954,0.81754 0.196795,0.29454 0.362979,0.60545 0.498552,0.93273 0.135562,0.32728 0.237889,0.66464 0.307001,1.01208 0.06911,0.34744 0.103672,0.69828 0.103685,1.05252 z"
       style="fill:none;stroke:#000000;stroke-width:0.21580119;stroke-linecap:butt;stroke-linejoin:miter;stroke-miterlimit:10;stroke-dasharray:none;stroke-opacity:1"
       id="path786" />
    <path
       d="m 97.865714,163.18793 c 0,0.35424 -0.03457,0.70508 -0.103687,1.05251 -0.0691,0.34743 -0.171426,0.6848 -0.307001,1.01207 -0.135573,0.32728 -0.301758,0.63819 -0.498552,0.93272 -0.196821,0.29455 -0.420457,0.56707 -0.670941,0.81756 -0.250494,0.25048 -0.523013,0.47412 -0.817539,0.67093 -0.294553,0.1968 -0.605464,0.36299 -0.932735,0.49855 -0.327272,0.13557 -0.664634,0.23791 -1.012082,0.30702 -0.347427,0.0691 -0.698259,0.10366 -1.052494,0.10367 -0.354245,-1e-5 -0.705093,-0.0346 -1.052531,-0.10367 -0.347435,-0.0691 -0.684797,-0.17145 -1.012082,-0.30702 -0.327271,-0.13556 -0.638182,-0.30175 -0.932735,-0.49855 -0.294529,-0.19681 -0.567047,-0.42045 -0.817526,-0.67093 -0.250483,-0.25049 -0.474136,-0.52301 -0.670954,-0.81756 -0.19681,-0.29453 -0.362992,-0.60544 -0.498554,-0.93272 -0.135562,-0.32727 -0.23789,-0.66464 -0.306999,-1.01207 -0.0691,-0.34743 -0.103648,-0.69827 -0.103648,-1.05251 0,-0.35424 0.03455,-0.70508 0.103648,-1.05252 0.06911,-0.34744 0.171437,-0.6848 0.306999,-1.01208 0.135562,-0.32728 0.301744,-0.63819 0.498567,-0.93273 0.196805,-0.29454 0.420458,-0.56705 0.670941,-0.81754 0.250479,-0.25049 0.522997,-0.47413 0.817526,-0.67094 0.294553,-0.1968 0.605464,-0.36299 0.932735,-0.49855 0.327285,-0.13556 0.664647,-0.2379 1.012082,-0.307 0.347438,-0.0691 0.698286,-0.10367 1.052531,-0.10367 0.354235,0 0.705067,0.0346 1.052494,0.10367 0.347448,0.0691 0.684797,0.17144 1.012068,0.307 0.327285,0.13556 0.638196,0.30175 0.932723,0.49855 0.294552,0.19681 0.567071,0.42045 0.817565,0.67094 0.250484,0.25049 0.47412,0.523 0.670941,0.81754 0.196794,0.29454 0.362966,0.60545 0.498538,0.93273 0.135575,0.32728 0.237906,0.66464 0.307015,1.01208 0.06912,0.34744 0.103687,0.69828 0.103687,1.05252 z"
       style="fill:#ffffff;fill-opacity:1;fill-rule:nonzero;stroke:none;stroke-width:0.21580119"
       id="path788" />
    <path
       d="m 97.865714,163.18793 c 0,0.35424 -0.03457,0.70508 -0.103687,1.05251 -0.0691,0.34743 -0.171426,0.6848 -0.307001,1.01207 -0.135573,0.32728 -0.301758,0.63819 -0.498552,0.93272 -0.196821,0.29455 -0.420457,0.56707 -0.670941,0.81756 -0.250494,0.25048 -0.523013,0.47412 -0.817539,0.67093 -0.294553,0.1968 -0.605464,0.36299 -0.932735,0.49855 -0.327272,0.13557 -0.664634,0.23791 -1.012082,0.30702 -0.347427,0.0691 -0.698259,0.10366 -1.052494,0.10367 -0.354245,-1e-5 -0.705093,-0.0346 -1.052531,-0.10367 -0.347435,-0.0691 -0.684797,-0.17145 -1.012082,-0.30702 -0.327271,-0.13556 -0.638182,-0.30175 -0.932735,-0.49855 -0.294529,-0.19681 -0.567047,-0.42045 -0.817526,-0.67093 -0.250483,-0.25049 -0.474136,-0.52301 -0.670954,-0.81756 -0.19681,-0.29453 -0.362992,-0.60544 -0.498554,-0.93272 -0.135562,-0.32727 -0.23789,-0.66464 -0.306999,-1.01207 -0.0691,-0.34743 -0.103648,-0.69827 -0.103648,-1.05251 0,-0.35424 0.03455,-0.70508 0.103648,-1.05252 0.06911,-0.34744 0.171437,-0.6848 0.306999,-1.01208 0.135562,-0.32728 0.301744,-0.63819 0.498567,-0.93273 0.196805,-0.29454 0.420458,-0.56705 0.670941,-0.81754 0.250479,-0.25049 0.522997,-0.47413 0.817526,-0.67094 0.294553,-0.1968 0.605464,-0.36299 0.932735,-0.49855 0.327285,-0.13556 0.664647,-0.2379 1.012082,-0.307 0.347438,-0.0691 0.698286,-0.10367 1.052531,-0.10367 0.354235,0 0.705067,0.0346 1.052494,0.10367 0.347448,0.0691 0.684797,0.17144 1.012068,0.307 0.327285,0.13556 0.638196,0.30175 0.932723,0.49855 0.294552,0.19681 0.567071,0.42045 0.817565,0.67094 0.250484,0.25049 0.47412,0.523 0.670941,0.81754 0.196794,0.29454 0.362966,0.60545 0.498538,0.93273 0.135575,0.32728 0.237906,0.66464 0.307015,1.01208 0.06912,0.34744 0.103687,0.69828 0.103687,1.05252 z"
       style="fill:none;stroke:#000000;stroke-width:0.21580119;stroke-linecap:butt;stroke-linejoin:miter;stroke-miterlimit:10;stroke-dasharray:none;stroke-opacity:1"
       id="path790" />
    <path
       d="m 110.81379,163.18793 c -2e-5,0.35424 -0.0346,0.70508 -0.10368,1.05251 -0.0691,0.34743 -0.17146,0.6848 -0.30704,1.01207 -0.13556,0.32728 -0.30174,0.63819 -0.49855,0.93272 -0.1968,0.29455 -0.42043,0.56707 -0.67092,0.81756 -0.25048,0.25048 -0.52301,0.47412 -0.81756,0.67093 -0.29453,0.1968 -0.60544,0.36299 -0.93271,0.49855 -0.32727,0.13557 -0.66463,0.23791 -1.01207,0.30702 -0.34744,0.0691 -0.69827,0.10366 -1.05251,0.10367 -0.35424,-1e-5 -0.70509,-0.0346 -1.05254,-0.10367 -0.34744,-0.0691 -0.6848,-0.17145 -1.01207,-0.30702 -0.32728,-0.13556 -0.63819,-0.30175 -0.93272,-0.49855 -0.29454,-0.19681 -0.56706,-0.42045 -0.81754,-0.67093 -0.2505,-0.25049 -0.47415,-0.52301 -0.67094,-0.81756 -0.19681,-0.29453 -0.36299,-0.60544 -0.49855,-0.93272 -0.13558,-0.32727 -0.23791,-0.66464 -0.30702,-1.01207 -0.0691,-0.34743 -0.10366,-0.69827 -0.10364,-1.05251 -2e-5,-0.35424 0.0345,-0.70508 0.10366,-1.05252 0.0691,-0.34744 0.17142,-0.6848 0.307,-1.01208 0.13556,-0.32728 0.30174,-0.63819 0.49854,-0.93273 0.1968,-0.29454 0.42045,-0.56705 0.67095,-0.81754 0.25048,-0.25049 0.523,-0.47413 0.81754,-0.67094 0.29453,-0.1968 0.60544,-0.36299 0.93272,-0.49855 0.32727,-0.13556 0.66463,-0.2379 1.01207,-0.307 0.34745,-0.0691 0.6983,-0.10367 1.05254,-0.10367 0.35424,0 0.70507,0.0346 1.05252,0.10367 0.34743,0.0691 0.68479,0.17144 1.01206,0.307 0.32727,0.13556 0.63818,0.30175 0.93271,0.49855 0.29455,0.19681 0.56708,0.42045 0.81756,0.67094 0.25049,0.25049 0.47414,0.523 0.67093,0.81754 0.1968,0.29454 0.36298,0.60545 0.49856,0.93273 0.13556,0.32728 0.2379,0.66464 0.30702,1.01208 0.0691,0.34744 0.10366,0.69828 0.10368,1.05252 z"
       style="fill:#ffffff;fill-opacity:1;fill-rule:nonzero;stroke:none;stroke-width:0.21580119"
       id="path792" />
    <path
       d="m 110.81379,163.18793 c -2e-5,0.35424 -0.0346,0.70508 -0.10368,1.05251 -0.0691,0.34743 -0.17146,0.6848 -0.30704,1.01207 -0.13556,0.32728 -0.30174,0.63819 -0.49855,0.93272 -0.1968,0.29455 -0.42043,0.56707 -0.67092,0.81756 -0.25048,0.25048 -0.52301,0.47412 -0.81756,0.67093 -0.29453,0.1968 -0.60544,0.36299 -0.93271,0.49855 -0.32727,0.13557 -0.66463,0.23791 -1.01207,0.30702 -0.34744,0.0691 -0.69827,0.10366 -1.05251,0.10367 -0.35424,-1e-5 -0.70509,-0.0346 -1.05254,-0.10367 -0.34744,-0.0691 -0.6848,-0.17145 -1.01207,-0.30702 -0.32728,-0.13556 -0.63819,-0.30175 -0.93272,-0.49855 -0.29454,-0.19681 -0.56706,-0.42045 -0.81754,-0.67093 -0.2505,-0.25049 -0.47415,-0.52301 -0.67094,-0.81756 -0.19681,-0.29453 -0.36299,-0.60544 -0.49855,-0.93272 -0.13558,-0.32727 -0.23791,-0.66464 -0.30702,-1.01207 -0.0691,-0.34743 -0.10366,-0.69827 -0.10364,-1.05251 -2e-5,-0.35424 0.0345,-0.70508 0.10366,-1.05252 0.0691,-0.34744 0.17142,-0.6848 0.307,-1.01208 0.13556,-0.32728 0.30174,-0.63819 0.49854,-0.93273 0.1968,-0.29454 0.42045,-0.56705 0.67095,-0.81754 0.25048,-0.25049 0.523,-0.47413 0.81754,-0.67094 0.29453,-0.1968 0.60544,-0.36299 0.93272,-0.49855 0.32727,-0.13556 0.66463,-0.2379 1.01207,-0.307 0.34745,-0.0691 0.6983,-0.10367 1.05254,-0.10367 0.35424,0 0.70507,0.0346 1.05252,0.10367 0.34743,0.0691 0.68479,0.17144 1.01206,0.307 0.32727,0.13556 0.63818,0.30175 0.93271,0.49855 0.29455,0.19681 0.56708,0.42045 0.81756,0.67094 0.25049,0.25049 0.47414,0.523 0.67093,0.81754 0.1968,0.29454 0.36298,0.60545 0.49856,0.93273 0.13556,0.32728 0.2379,0.66464 0.30702,1.01208 0.0691,0.34744 0.10366,0.69828 0.10368,1.05252 z"
       style="fill:none;stroke:#000000;stroke-width:0.21580119;stroke-linecap:butt;stroke-linejoin:miter;stroke-miterlimit:10;stroke-dasharray:none;stroke-opacity:1"
       id="path794" />
    <path
       d="m 123.76186,163.18793 c -2e-5,0.35424 -0.0346,0.70508 -0.10369,1.05251 -0.0691,0.34743 -0.17145,0.6848 -0.30701,1.01207 -0.13556,0.32728 -0.30175,0.63819 -0.49857,0.93272 -0.1968,0.29455 -0.42043,0.56707 -0.67092,0.81756 -0.25049,0.25048 -0.52301,0.47412 -0.81756,0.67093 -0.29454,0.1968 -0.60545,0.36299 -0.93272,0.49855 -0.32729,0.13557 -0.66465,0.23791 -1.01207,0.30702 -0.34743,0.0691 -0.69826,0.10366 -1.05249,0.10367 -0.35426,-1e-5 -0.70511,-0.0346 -1.05254,-0.10367 -0.34744,-0.0691 -0.68479,-0.17145 -1.01206,-0.30702 -0.32729,-0.13556 -0.6382,-0.30175 -0.93275,-0.49855 -0.29454,-0.19681 -0.56705,-0.42045 -0.81753,-0.67093 -0.25049,-0.25049 -0.47415,-0.52301 -0.67094,-0.81756 -0.19682,-0.29453 -0.36301,-0.60544 -0.49857,-0.93272 -0.13554,-0.32727 -0.23789,-0.66464 -0.307,-1.01207 -0.0691,-0.34743 -0.10366,-0.69827 -0.10364,-1.05251 -2e-5,-0.35424 0.0345,-0.70508 0.10364,-1.05252 0.0691,-0.34744 0.17146,-0.6848 0.307,-1.01208 0.13556,-0.32728 0.30175,-0.63819 0.49857,-0.93273 0.19679,-0.29454 0.42045,-0.56705 0.67094,-0.81754 0.25048,-0.25049 0.52299,-0.47413 0.81754,-0.67094 0.29454,-0.1968 0.60545,-0.36299 0.93274,-0.49855 0.32727,-0.13556 0.66462,-0.2379 1.01205,-0.307 0.34744,-0.0691 0.69829,-0.10367 1.05255,-0.10367 0.35423,0 0.70506,0.0346 1.05249,0.10367 0.34742,0.0691 0.68478,0.17144 1.01205,0.307 0.32729,0.13556 0.6382,0.30175 0.93275,0.49855 0.29454,0.19681 0.56706,0.42045 0.81755,0.67094 0.25049,0.25049 0.47414,0.523 0.67095,0.81754 0.19679,0.29454 0.36298,0.60545 0.49854,0.93273 0.13556,0.32728 0.2379,0.66464 0.30701,1.01208 0.0691,0.34744 0.10367,0.69828 0.10369,1.05252 z"
       style="fill:#ffffff;fill-opacity:1;fill-rule:nonzero;stroke:none;stroke-width:0.21580119"
       id="path796" />
    <path
       d="m 123.76186,163.18793 c -2e-5,0.35424 -0.0346,0.70508 -0.10369,1.05251 -0.0691,0.34743 -0.17145,0.6848 -0.30701,1.01207 -0.13556,0.32728 -0.30175,0.63819 -0.49857,0.93272 -0.1968,0.29455 -0.42043,0.56707 -0.67092,0.81756 -0.25049,0.25048 -0.52301,0.47412 -0.81756,0.67093 -0.29454,0.1968 -0.60545,0.36299 -0.93272,0.49855 -0.32729,0.13557 -0.66465,0.23791 -1.01207,0.30702 -0.34743,0.0691 -0.69826,0.10366 -1.05249,0.10367 -0.35426,-1e-5 -0.70511,-0.0346 -1.05254,-0.10367 -0.34744,-0.0691 -0.68479,-0.17145 -1.01206,-0.30702 -0.32729,-0.13556 -0.6382,-0.30175 -0.93275,-0.49855 -0.29454,-0.19681 -0.56705,-0.42045 -0.81753,-0.67093 -0.25049,-0.25049 -0.47415,-0.52301 -0.67094,-0.81756 -0.19682,-0.29453 -0.36301,-0.60544 -0.49857,-0.93272 -0.13554,-0.32727 -0.23789,-0.66464 -0.307,-1.01207 -0.0691,-0.34743 -0.10366,-0.69827 -0.10364,-1.05251 -2e-5,-0.35424 0.0345,-0.70508 0.10364,-1.05252 0.0691,-0.34744 0.17146,-0.6848 0.307,-1.01208 0.13556,-0.32728 0.30175,-0.63819 0.49857,-0.93273 0.19679,-0.29454 0.42045,-0.56705 0.67094,-0.81754 0.25048,-0.25049 0.52299,-0.47413 0.81754,-0.67094 0.29454,-0.1968 0.60545,-0.36299 0.93274,-0.49855 0.32727,-0.13556 0.66462,-0.2379 1.01205,-0.307 0.34744,-0.0691 0.69829,-0.10367 1.05255,-0.10367 0.35423,0 0.70506,0.0346 1.05249,0.10367 0.34742,0.0691 0.68478,0.17144 1.01205,0.307 0.32729,0.13556 0.6382,0.30175 0.93275,0.49855 0.29454,0.19681 0.56706,0.42045 0.81755,0.67094 0.25049,0.25049 0.47414,0.523 0.67095,0.81754 0.19679,0.29454 0.36298,0.60545 0.49854,0.93273 0.13556,0.32728 0.2379,0.66464 0.30701,1.01208 0.0691,0.34744 0.10367,0.69828 0.10369,1.05252 z"
       style="fill:none;stroke:#000000;stroke-width:0.21580119;stroke-linecap:butt;stroke-linejoin:miter;stroke-miterlimit:10;stroke-dasharray:none;stroke-opacity:1"
       id="path798" />
    <path
       d="m 52.547464,181.09943 c 0,0.35424 -0.03456,0.70507 -0.103673,1.05251 -0.06911,0.34743 -0.171452,0.68479 -0.307014,1.01206 -0.135573,0.32728 -0.301757,0.63819 -0.498566,0.93274 -0.196793,0.29453 -0.420445,0.56705 -0.670928,0.81755 -0.25048,0.25049 -0.522998,0.47413 -0.817539,0.67093 -0.294553,0.1968 -0.605465,0.36299 -0.932736,0.49855 -0.327271,0.13557 -0.664633,0.23791 -1.012069,0.30702 -0.347437,0.0691 -0.698272,0.10367 -1.052505,0.10367 -0.354246,0 -0.705081,-0.0346 -1.052519,-0.10367 -0.347448,-0.0691 -0.68481,-0.17145 -1.012081,-0.30702 -0.327284,-0.13556 -0.638196,-0.30175 -0.932736,-0.49856 -0.294528,-0.1968 -0.567046,-0.42043 -0.817526,-0.67092 -0.250483,-0.2505 -0.474135,-0.52302 -0.670954,-0.81755 -0.196809,-0.29455 -0.362993,-0.60546 -0.498555,-0.93274 -0.135573,-0.32727 -0.237901,-0.66463 -0.306999,-1.01206 -0.06911,-0.34744 -0.103673,-0.69827 -0.10366,-1.05251 -1.3e-5,-0.35425 0.03455,-0.70509 0.10366,-1.05252 0.0691,-0.34744 0.171426,-0.6848 0.306999,-1.01208 0.135562,-0.32728 0.301746,-0.63819 0.498555,-0.93273 0.196819,-0.29454 0.420471,-0.56705 0.670954,-0.81754 0.25048,-0.25049 0.522998,-0.47413 0.817526,-0.67094 0.29454,-0.1968 0.605452,-0.36298 0.932736,-0.49855 0.327271,-0.13557 0.664633,-0.2379 1.012081,-0.30701 0.347438,-0.0691 0.698273,-0.10366 1.052519,-0.10366 0.354233,0 0.705068,0.0346 1.052505,0.10366 0.347436,0.0691 0.684798,0.17144 1.012069,0.30701 0.327271,0.13557 0.638183,0.30175 0.932736,0.49855 0.294541,0.19681 0.567059,0.42045 0.817539,0.67094 0.250483,0.25049 0.474135,0.523 0.670928,0.81754 0.196809,0.29454 0.362993,0.60545 0.498566,0.93273 0.135562,0.32728 0.237903,0.66464 0.307014,1.01208 0.06911,0.34743 0.103673,0.69827 0.103673,1.05252 z"
       style="fill:#cccccc;fill-opacity:1;fill-rule:nonzero;stroke:none;stroke-width:0.21580119"
       id="path800" />
    <path
       d="m 52.547464,181.09943 c 0,0.35424 -0.03456,0.70507 -0.103673,1.05251 -0.06911,0.34743 -0.171452,0.68479 -0.307014,1.01206 -0.135573,0.32728 -0.301757,0.63819 -0.498566,0.93274 -0.196793,0.29453 -0.420445,0.56705 -0.670928,0.81755 -0.25048,0.25049 -0.522998,0.47413 -0.817539,0.67093 -0.294553,0.1968 -0.605465,0.36299 -0.932736,0.49855 -0.327271,0.13557 -0.664633,0.23791 -1.012069,0.30702 -0.347437,0.0691 -0.698272,0.10367 -1.052505,0.10367 -0.354246,0 -0.705081,-0.0346 -1.052519,-0.10367 -0.347448,-0.0691 -0.68481,-0.17145 -1.012081,-0.30702 -0.327284,-0.13556 -0.638196,-0.30175 -0.932736,-0.49856 -0.294528,-0.1968 -0.567046,-0.42043 -0.817526,-0.67092 -0.250483,-0.2505 -0.474135,-0.52302 -0.670954,-0.81755 -0.196809,-0.29455 -0.362993,-0.60546 -0.498555,-0.93274 -0.135573,-0.32727 -0.237901,-0.66463 -0.306999,-1.01206 -0.06911,-0.34744 -0.103673,-0.69827 -0.10366,-1.05251 -1.3e-5,-0.35425 0.03455,-0.70509 0.10366,-1.05252 0.0691,-0.34744 0.171426,-0.6848 0.306999,-1.01208 0.135562,-0.32728 0.301746,-0.63819 0.498555,-0.93273 0.196819,-0.29454 0.420471,-0.56705 0.670954,-0.81754 0.25048,-0.25049 0.522998,-0.47413 0.817526,-0.67094 0.29454,-0.1968 0.605452,-0.36298 0.932736,-0.49855 0.327271,-0.13557 0.664633,-0.2379 1.012081,-0.30701 0.347438,-0.0691 0.698273,-0.10366 1.052519,-0.10366 0.354233,0 0.705068,0.0346 1.052505,0.10366 0.347436,0.0691 0.684798,0.17144 1.012069,0.30701 0.327271,0.13557 0.638183,0.30175 0.932736,0.49855 0.294541,0.19681 0.567059,0.42045 0.817539,0.67094 0.250483,0.25049 0.474135,0.523 0.670928,0.81754 0.196809,0.29454 0.362993,0.60545 0.498566,0.93273 0.135562,0.32728 0.237903,0.66464 0.307014,1.01208 0.06911,0.34743 0.103673,0.69827 0.103673,1.05252 z"
       style="fill:none;stroke:#000000;stroke-width:0.21580119;stroke-linecap:butt;stroke-linejoin:miter;stroke-miterlimit:10;stroke-dasharray:none;stroke-opacity:1"
       id="path802" />
    <path
       d="m 69.81156,181.09943 c -1.3e-5,0.35424 -0.03457,0.70507 -0.103674,1.05251 -0.06911,0.34743 -0.171453,0.68479 -0.307015,1.01206 -0.135572,0.32728 -0.301757,0.63819 -0.498565,0.93274 -0.196794,0.29453 -0.420444,0.56705 -0.670928,0.81755 -0.250481,0.25049 -0.522999,0.47413 -0.817552,0.67093 -0.294528,0.1968 -0.605438,0.36299 -0.932722,0.49855 -0.327271,0.13557 -0.664633,0.23791 -1.012068,0.30702 -0.347441,0.0691 -0.698273,0.10367 -1.052507,0.10367 -0.354246,0 -0.705094,-0.0346 -1.052531,-0.10367 -0.347451,-0.0691 -0.684811,-0.17145 -1.012082,-0.30702 -0.327271,-0.13556 -0.638183,-0.30175 -0.932722,-0.49856 -0.294556,-0.1968 -0.567061,-0.42043 -0.817539,-0.67092 -0.250497,-0.2505 -0.474149,-0.52302 -0.670954,-0.81755 -0.196811,-0.29455 -0.362993,-0.60546 -0.498556,-0.93274 -0.13556,-0.32727 -0.237888,-0.66463 -0.306999,-1.01206 -0.06911,-0.34744 -0.10366,-0.69827 -0.103647,-1.05251 -1.3e-5,-0.35425 0.03454,-0.70509 0.103647,-1.05252 0.06911,-0.34744 0.171439,-0.6848 0.306999,-1.01208 0.135563,-0.32728 0.301745,-0.63819 0.498556,-0.93273 0.196805,-0.29454 0.420457,-0.56705 0.670954,-0.81754 0.250478,-0.25049 0.522983,-0.47413 0.817539,-0.67094 0.294539,-0.1968 0.605451,-0.36298 0.932722,-0.49855 0.327271,-0.13557 0.664631,-0.2379 1.012082,-0.30701 0.347437,-0.0691 0.698285,-0.10366 1.052531,-0.10366 0.354234,0 0.705066,0.0346 1.052507,0.10366 0.347435,0.0691 0.684797,0.17144 1.012068,0.30701 0.327284,0.13557 0.638194,0.30175 0.932722,0.49855 0.294553,0.19681 0.567071,0.42045 0.817552,0.67094 0.250484,0.25049 0.474134,0.523 0.670928,0.81754 0.196808,0.29454 0.362993,0.60545 0.498565,0.93273 0.135562,0.32728 0.237892,0.66464 0.307001,1.01208 0.06911,0.34743 0.103675,0.69827 0.103688,1.05252 z"
       style="fill:#cccccc;fill-opacity:1;fill-rule:nonzero;stroke:none;stroke-width:0.21580119"
       id="path804" />
    <path
       d="m 69.81156,181.09943 c -1.3e-5,0.35424 -0.03457,0.70507 -0.103674,1.05251 -0.06911,0.34743 -0.171453,0.68479 -0.307015,1.01206 -0.135572,0.32728 -0.301757,0.63819 -0.498565,0.93274 -0.196794,0.29453 -0.420444,0.56705 -0.670928,0.81755 -0.250481,0.25049 -0.522999,0.47413 -0.817552,0.67093 -0.294528,0.1968 -0.605438,0.36299 -0.932722,0.49855 -0.327271,0.13557 -0.664633,0.23791 -1.012068,0.30702 -0.347441,0.0691 -0.698273,0.10367 -1.052507,0.10367 -0.354246,0 -0.705094,-0.0346 -1.052531,-0.10367 -0.347451,-0.0691 -0.684811,-0.17145 -1.012082,-0.30702 -0.327271,-0.13556 -0.638183,-0.30175 -0.932722,-0.49856 -0.294556,-0.1968 -0.567061,-0.42043 -0.817539,-0.67092 -0.250497,-0.2505 -0.474149,-0.52302 -0.670954,-0.81755 -0.196811,-0.29455 -0.362993,-0.60546 -0.498556,-0.93274 -0.13556,-0.32727 -0.237888,-0.66463 -0.306999,-1.01206 -0.06911,-0.34744 -0.10366,-0.69827 -0.103647,-1.05251 -1.3e-5,-0.35425 0.03454,-0.70509 0.103647,-1.05252 0.06911,-0.34744 0.171439,-0.6848 0.306999,-1.01208 0.135563,-0.32728 0.301745,-0.63819 0.498556,-0.93273 0.196805,-0.29454 0.420457,-0.56705 0.670954,-0.81754 0.250478,-0.25049 0.522983,-0.47413 0.817539,-0.67094 0.294539,-0.1968 0.605451,-0.36298 0.932722,-0.49855 0.327271,-0.13557 0.664631,-0.2379 1.012082,-0.30701 0.347437,-0.0691 0.698285,-0.10366 1.052531,-0.10366 0.354234,0 0.705066,0.0346 1.052507,0.10366 0.347435,0.0691 0.684797,0.17144 1.012068,0.30701 0.327284,0.13557 0.638194,0.30175 0.932722,0.49855 0.294553,0.19681 0.567071,0.42045 0.817552,0.67094 0.250484,0.25049 0.474134,0.523 0.670928,0.81754 0.196808,0.29454 0.362993,0.60545 0.498565,0.93273 0.135562,0.32728 0.237892,0.66464 0.307001,1.01208 0.06911,0.34743 0.103675,0.69827 0.103688,1.05252 z"
       style="fill:none;stroke:#000000;stroke-width:0.21580119;stroke-linecap:butt;stroke-linejoin:miter;stroke-miterlimit:10;stroke-dasharray:none;stroke-opacity:1"
       id="path806" />
    <path
       d="M 71.528261,130.17035 51.24295,141.39201"
       style="fill:none;stroke:#000000;stroke-width:0.21580119;stroke-linecap:butt;stroke-linejoin:miter;stroke-miterlimit:10;stroke-dasharray:none;stroke-opacity:1"
       id="path808" />
    <path
       d="m 81.023514,130.17035 20.501116,11.22166"
       style="fill:none;stroke:#000000;stroke-width:0.21580119;stroke-linecap:butt;stroke-linejoin:miter;stroke-miterlimit:10;stroke-dasharray:none;stroke-opacity:1"
       id="path810" />
    <path
       d="m 76.275886,132.75996 v 7.13451"
       style="fill:none;stroke:#000000;stroke-width:0.21580119;stroke-linecap:butt;stroke-linejoin:miter;stroke-miterlimit:10;stroke-dasharray:none;stroke-opacity:1"
       id="path812" />
    <path
       d="m 44.553113,150.02406 -4.316024,8.41625"
       style="fill:none;stroke:#000000;stroke-width:0.21580119;stroke-linecap:butt;stroke-linejoin:miter;stroke-miterlimit:10;stroke-dasharray:none;stroke-opacity:1"
       id="path814" />
    <path
       d="m 49.732341,150.02406 4.100223,8.41625"
       style="fill:none;stroke:#000000;stroke-width:0.21580119;stroke-linecap:butt;stroke-linejoin:miter;stroke-miterlimit:10;stroke-dasharray:none;stroke-opacity:1"
       id="path816" />
    <path
       d="m 52.969359,167.93556 -4.316024,8.41624"
       style="fill:none;stroke:#000000;stroke-width:0.21580119;stroke-linecap:butt;stroke-linejoin:miter;stroke-miterlimit:10;stroke-dasharray:none;stroke-opacity:1"
       id="path818" />
    <path
       d="m 58.148588,167.93556 4.100223,8.41624"
       style="fill:none;stroke:#000000;stroke-width:0.21580119;stroke-linecap:butt;stroke-linejoin:miter;stroke-miterlimit:10;stroke-dasharray:none;stroke-opacity:1"
       id="path820" />
    <path
       d="m 105.40905,150.45566 v 7.13451"
       style="fill:none;stroke:#000000;stroke-width:0.21580119;stroke-linecap:butt;stroke-linejoin:miter;stroke-miterlimit:10;stroke-dasharray:none;stroke-opacity:1"
       id="path822" />
    <path
       d="m 102.38783,149.80826 -6.895931,8.63205"
       style="fill:none;stroke:#000000;stroke-width:0.21580119;stroke-linecap:butt;stroke-linejoin:miter;stroke-miterlimit:10;stroke-dasharray:none;stroke-opacity:1"
       id="path824" />
    <path
       d="m 108.64607,149.59246 6.90563,8.84785"
       style="fill:none;stroke:#000000;stroke-width:0.21580119;stroke-linecap:butt;stroke-linejoin:miter;stroke-miterlimit:10;stroke-dasharray:none;stroke-opacity:1"
       id="path826" />
    <path
       d="m 69.811571,199.09827 c -1.1e-5,0.35424 -0.03458,0.70507 -0.103685,1.05251 -0.06911,0.34743 -0.17144,0.68479 -0.306999,1.01206 -0.135575,0.32728 -0.30176,0.63819 -0.498554,0.93273 -0.196808,0.29454 -0.42046,0.56706 -0.670941,0.81755 -0.250495,0.25048 -0.523013,0.47413 -0.817552,0.67093 -0.294542,0.19681 -0.605452,0.36299 -0.932723,0.49856 -0.327271,0.13557 -0.664633,0.2379 -1.012057,0.30702 -0.347438,0.0691 -0.698273,0.10366 -1.052518,0.10367 -0.354246,-1e-5 -0.705094,-0.0346 -1.052531,-0.10367 -0.347435,-0.0691 -0.684797,-0.17145 -1.012082,-0.30702 -0.327284,-0.13557 -0.638196,-0.30175 -0.932722,-0.49856 -0.294556,-0.1968 -0.56706,-0.42045 -0.817542,-0.67093 -0.250494,-0.25049 -0.474146,-0.52301 -0.670941,-0.81755 -0.196807,-0.29454 -0.362992,-0.60545 -0.498566,-0.93273 -0.13556,-0.32727 -0.237888,-0.66463 -0.306999,-1.01206 -0.0691,-0.34744 -0.103647,-0.69827 -0.103647,-1.05251 0,-0.35425 0.03455,-0.70509 0.103647,-1.05252 0.06911,-0.34744 0.171439,-0.6848 0.306999,-1.01207 0.135574,-0.32728 0.301759,-0.63819 0.498556,-0.93274 0.196805,-0.29454 0.420457,-0.56705 0.670951,-0.81754 0.250482,-0.25049 0.522986,-0.47414 0.817542,-0.67094 0.294526,-0.19681 0.605438,-0.36299 0.932722,-0.49855 0.327285,-0.13557 0.664647,-0.2379 1.012082,-0.30701 0.347437,-0.0691 0.698285,-0.10366 1.052531,-0.10366 0.354245,0 0.70508,0.0346 1.052518,0.10367 0.347424,0.0691 0.684786,0.17143 1.012057,0.307 0.327271,0.13556 0.638181,0.30174 0.932723,0.49855 0.294539,0.1968 0.567057,0.42045 0.817552,0.67094 0.250481,0.25049 0.474133,0.523 0.670927,0.81754 0.196795,0.29455 0.36298,0.60546 0.498552,0.93274 0.135562,0.32727 0.237892,0.66463 0.307001,1.01207 0.06912,0.34743 0.103688,0.69827 0.103699,1.05252 z"
       style="fill:#ffffff;fill-opacity:1;fill-rule:nonzero;stroke:none;stroke-width:0.21580119"
       id="path828" />
    <path
       d="m 69.811571,199.09827 c -1.1e-5,0.35424 -0.03458,0.70507 -0.103685,1.05251 -0.06911,0.34743 -0.17144,0.68479 -0.306999,1.01206 -0.135575,0.32728 -0.30176,0.63819 -0.498554,0.93273 -0.196808,0.29454 -0.42046,0.56706 -0.670941,0.81755 -0.250495,0.25048 -0.523013,0.47413 -0.817552,0.67093 -0.294542,0.19681 -0.605452,0.36299 -0.932723,0.49856 -0.327271,0.13557 -0.664633,0.2379 -1.012057,0.30702 -0.347438,0.0691 -0.698273,0.10366 -1.052518,0.10367 -0.354246,-1e-5 -0.705094,-0.0346 -1.052531,-0.10367 -0.347435,-0.0691 -0.684797,-0.17145 -1.012082,-0.30702 -0.327284,-0.13557 -0.638196,-0.30175 -0.932722,-0.49856 -0.294556,-0.1968 -0.56706,-0.42045 -0.817542,-0.67093 -0.250494,-0.25049 -0.474146,-0.52301 -0.670941,-0.81755 -0.196807,-0.29454 -0.362992,-0.60545 -0.498566,-0.93273 -0.13556,-0.32727 -0.237888,-0.66463 -0.306999,-1.01206 -0.0691,-0.34744 -0.103647,-0.69827 -0.103647,-1.05251 0,-0.35425 0.03455,-0.70509 0.103647,-1.05252 0.06911,-0.34744 0.171439,-0.6848 0.306999,-1.01207 0.135574,-0.32728 0.301759,-0.63819 0.498556,-0.93274 0.196805,-0.29454 0.420457,-0.56705 0.670951,-0.81754 0.250482,-0.25049 0.522986,-0.47414 0.817542,-0.67094 0.294526,-0.19681 0.605438,-0.36299 0.932722,-0.49855 0.327285,-0.13557 0.664647,-0.2379 1.012082,-0.30701 0.347437,-0.0691 0.698285,-0.10366 1.052531,-0.10366 0.354245,0 0.70508,0.0346 1.052518,0.10367 0.347424,0.0691 0.684786,0.17143 1.012057,0.307 0.327271,0.13556 0.638181,0.30174 0.932723,0.49855 0.294539,0.1968 0.567057,0.42045 0.817552,0.67094 0.250481,0.25049 0.474133,0.523 0.670927,0.81754 0.196795,0.29455 0.36298,0.60546 0.498552,0.93274 0.135562,0.32727 0.237892,0.66463 0.307001,1.01207 0.06912,0.34743 0.103688,0.69827 0.103699,1.05252 z"
       style="fill:none;stroke:#000000;stroke-width:0.21580119;stroke-linecap:butt;stroke-linejoin:miter;stroke-miterlimit:10;stroke-dasharray:none;stroke-opacity:1"
       id="path830" />
    <path
       d="m 64.416542,186.71026 v 7.13451"
       style="fill:none;stroke:#000000;stroke-width:0.21580119;stroke-linecap:butt;stroke-linejoin:miter;stroke-miterlimit:10;stroke-dasharray:none;stroke-opacity:1"
       id="path832" />
  </g>
</svg>
