<?xml version="1.0" encoding="UTF-8"?>
<!DOCTYPE svg PUBLIC "-//W3C//DTD SVG 1.1//EN" "http://www.w3.org/Graphics/SVG/1.1/DTD/svg11.dtd">
<svg xmlns="http://www.w3.org/2000/svg" xmlns:xlink="http://www.w3.org/1999/xlink" version="1.1" width="1806" height="1606" viewBox="-0.5 -0.5 1806 1606"><defs><filter id="dropShadow"><feGaussianBlur in="SourceAlpha" stdDeviation="1.7" result="blur"/><feOffset in="blur" dx="3" dy="3" result="offsetBlur"/><feFlood flood-color="#3D4574" flood-opacity="0.4" result="offsetColor"/><feComposite in="offsetColor" in2="offsetBlur" operator="in" result="offsetBlur"/><feBlend in="SourceGraphic" in2="offsetBlur"/></filter></defs><g filter="url(#dropShadow)"><path d="M 825.83 190.8 L 628.28 311.72" fill="none" stroke="rgb(0, 0, 0)" stroke-width="5" stroke-miterlimit="10" pointer-events="stroke"/><path d="M 860 210 L 860 300" fill="none" stroke="rgb(0, 0, 0)" stroke-width="5" stroke-miterlimit="10" pointer-events="stroke"/><path d="M 888.28 198.28 L 1115.2 304.32" fill="none" stroke="rgb(0, 0, 0)" stroke-width="5" stroke-miterlimit="10" pointer-events="stroke"/><ellipse cx="860" cy="170" rx="40" ry="40" fill="rgb(255, 255, 255)" stroke="rgb(0, 0, 0)" stroke-width="5" pointer-events="all"/><path d="M 564.05 357.55 L 431.04 423.76" fill="none" stroke="rgb(0, 0, 0)" stroke-width="5" stroke-miterlimit="10" pointer-events="stroke"/><path d="M 600 380 L 600 424.08" fill="none" stroke="rgb(0, 0, 0)" stroke-width="5" stroke-miterlimit="10" pointer-events="stroke"/><ellipse cx="600" cy="340" rx="40" ry="40" fill="#e8e8e8" stroke="#666666" stroke-width="5" pointer-events="all"/><ellipse cx="860" cy="340" rx="40" ry="40" fill="#e8e8e8" stroke="#666666" stroke-width="5" pointer-events="all"/><ellipse cx="1130" cy="340" rx="40" ry="40" fill="#e8e8e8" stroke="#666666" stroke-width="5" pointer-events="all"/><ellipse cx="420" cy="464.08" rx="40" ry="40" fill="rgb(255, 255, 255)" stroke="rgb(0, 0, 0)" stroke-width="5" pointer-events="all"/><ellipse cx="600" cy="464.08" rx="40" ry="40" fill="rgb(255, 255, 255)" stroke="rgb(0, 0, 0)" stroke-width="5" pointer-events="all"/><path d="M 842.39 380 L 821.04 423.76" fill="none" stroke="rgb(0, 0, 0)" stroke-width="5" stroke-miterlimit="10" pointer-events="stroke"/><path d="M 875.34 381.02 L 901.09 428.83" fill="none" stroke="rgb(0, 0, 0)" stroke-width="5" stroke-miterlimit="10" pointer-events="stroke"/><ellipse cx="810" cy="464.08" rx="40" ry="40" fill="rgb(255, 255, 255)" stroke="rgb(0, 0, 0)" stroke-width="5" pointer-events="all"/><ellipse cx="920" cy="464.08" rx="40" ry="40" fill="rgb(255, 255, 255)" stroke="rgb(0, 0, 0)" stroke-width="5" pointer-events="all"/><path d="M 1130 380 L 1131.04 423.76" fill="none" stroke="rgb(0, 0, 0)" stroke-width="5" stroke-miterlimit="10" pointer-events="stroke"/><path d="M 1167.28 359.76 L 1241.99 435.52" fill="none" stroke="rgb(0, 0, 0)" stroke-width="5" stroke-miterlimit="10" pointer-events="stroke"/><path d="M 1114.47 503.7 L 1106.37 550.51" fill="none" stroke="rgb(0, 0, 0)" stroke-width="5" stroke-miterlimit="10" pointer-events="stroke"/><path d="M 1139.43 499.05 L 1170.34 555.17" fill="none" stroke="rgb(0, 0, 0)" stroke-width="5" stroke-miterlimit="10" pointer-events="stroke"/><ellipse cx="1120" cy="464.08" rx="40" ry="40" fill="rgb(255, 255, 255)" stroke="rgb(0, 0, 0)" stroke-width="5" pointer-events="all"/><path d="M 1274.73 503.8 L 1280 550" fill="none" stroke="rgb(0, 0, 0)" stroke-width="5" stroke-miterlimit="10" pointer-events="stroke"/><path d="M 1294.74 495.51 L 1344.89 558.86" fill="none" stroke="rgb(0, 0, 0)" stroke-width="5" stroke-miterlimit="10" pointer-events="stroke"/><ellipse cx="1270" cy="464.08" rx="40" ry="40" fill="rgb(255, 255, 255)" stroke="rgb(0, 0, 0)" stroke-width="5" pointer-events="all"/><path d="M 391.72 492.36 L 341.04 549.68" fill="none" stroke="rgb(0, 0, 0)" stroke-width="5" stroke-miterlimit="10" pointer-events="stroke"/><path d="M 425.53 503.7 L 433.63 550.51" fill="none" stroke="rgb(0, 0, 0)" stroke-width="5" stroke-miterlimit="10" pointer-events="stroke"/><ellipse cx="330" cy="590" rx="40" ry="40" fill="#e8e8e8" stroke="#666666" stroke-width="5" pointer-events="all"/><ellipse cx="440" cy="590" rx="40" ry="40" fill="#e8e8e8" stroke="#666666" stroke-width="5" pointer-events="all"/><path d="M 571.72 492.36 L 541.04 549.68" fill="none" stroke="rgb(0, 0, 0)" stroke-width="5" stroke-miterlimit="10" pointer-events="stroke"/><path d="M 628.28 492.36 L 630 550" fill="none" stroke="rgb(0, 0, 0)" stroke-width="5" stroke-miterlimit="10" pointer-events="stroke"/><ellipse cx="530" cy="590" rx="40" ry="40" fill="#e8e8e8" stroke="#666666" stroke-width="5" pointer-events="all"/><ellipse cx="630" cy="590" rx="40" ry="40" fill="#e8e8e8" stroke="#666666" stroke-width="5" pointer-events="all"/><ellipse cx="730" cy="590" rx="40" ry="40" fill="#e8e8e8" stroke="#666666" stroke-width="5" pointer-events="all"/><path d="M 781.72 492.36 L 730 550" fill="none" stroke="rgb(0, 0, 0)" stroke-width="5" stroke-miterlimit="10" pointer-events="stroke"/><ellipse cx="820" cy="590" rx="40" ry="40" fill="#e8e8e8" stroke="#666666" stroke-width="5" pointer-events="all"/><path d="M 810 504.08 L 820 550" fill="none" stroke="rgb(0, 0, 0)" stroke-width="5" stroke-miterlimit="10" pointer-events="stroke"/><ellipse cx="910" cy="590" rx="40" ry="40" fill="#e8e8e8" stroke="#666666" stroke-width="5" pointer-events="all"/><path d="M 920 504.08 L 910 550" fill="none" stroke="rgb(0, 0, 0)" stroke-width="5" stroke-miterlimit="10" pointer-events="stroke"/><path d="M 981.52 554.52 L 948.28 492.36" fill="none" stroke="rgb(0, 0, 0)" stroke-width="5" stroke-miterlimit="10" pointer-events="stroke"/><ellipse cx="1000" cy="590" rx="40" ry="40" fill="#e8e8e8" stroke="#666666" stroke-width="5" pointer-events="all"/><ellipse cx="1280" cy="590" rx="40" ry="40" fill="#e8e8e8" stroke="#666666" stroke-width="5" pointer-events="all"/><ellipse cx="1370" cy="590" rx="40" ry="40" fill="#e8e8e8" stroke="#666666" stroke-width="5" pointer-events="all"/><ellipse cx="1100" cy="590" rx="40" ry="40" fill="#e8e8e8" stroke="#666666" stroke-width="5" pointer-events="all"/><ellipse cx="1190" cy="590" rx="40" ry="40" fill="#e8e8e8" stroke="#666666" stroke-width="5" pointer-events="all"/></g></svg>