<?xml version="1.0" encoding="UTF-8" standalone="no"?>
<svg
   xmlns:dc="http://purl.org/dc/elements/1.1/"
   xmlns:cc="http://creativecommons.org/ns#"
   xmlns:rdf="http://www.w3.org/1999/02/22-rdf-syntax-ns#"
   xmlns:svg="http://www.w3.org/2000/svg"
   xmlns="http://www.w3.org/2000/svg"
   id="svg1345"
   version="1.1"
   viewBox="0 0 90.852303 64.740349"
   height="64.740349mm"
   width="90.852303mm">
<rect width="100%" height="100%" fill="rgba(255, 255, 255, 0.5)" />
  <defs
     id="defs1339" />
  <metadata
     id="metadata1342">
    <rdf:RDF>
      <cc:Work
         rdf:about="">
        <dc:format>image/svg+xml</dc:format>
        <dc:type
           rdf:resource="http://purl.org/dc/dcmitype/StillImage" />
        <dc:title></dc:title>
      </cc:Work>
    </rdf:RDF>
  </metadata>
  <g
     transform="translate(-44.154207,-118.35304)"
     id="layer1">
    <path
       d="m 92.817378,123.85597 c -1e-5,0.35424 -0.0346,0.70508 -0.10368,1.05251 -0.0691,0.34744 -0.17144,0.6848 -0.307,1.01207 -0.13556,0.32728 -0.30175,0.63818 -0.49855,0.93273 -0.19681,0.29454 -0.42046,0.56706 -0.67094,0.81755 -0.25049,0.25048 -0.523,0.47413 -0.81755,0.67094 -0.29454,0.1968 -0.60545,0.36299 -0.93273,0.49855 -0.32728,0.13556 -0.66464,0.2379 -1.01207,0.30701 -0.34743,0.0691 -0.69827,0.10367 -1.05251,0.10367 -0.35425,0 -0.70509,-0.0346 -1.05252,-0.10367 -0.34744,-0.0691 -0.6848,-0.17145 -1.01207,-0.30701 -0.32728,-0.13556 -0.63819,-0.30175 -0.93273,-0.49855 -0.29455,-0.19681 -0.56706,-0.42046 -0.81755,-0.67094 -0.25048,-0.25049 -0.47413,-0.52301 -0.67094,-0.81755 -0.19681,-0.29455 -0.36299,-0.60545 -0.49856,-0.93273 -0.13556,-0.32727 -0.2379,-0.66463 -0.307,-1.01207 -0.0691,-0.34743 -0.10366,-0.69827 -0.10366,-1.05251 0,-0.35425 0.0346,-0.70509 0.10366,-1.05252 0.0691,-0.34744 0.17145,-0.6848 0.30701,-1.01208 0.13556,-0.32727 0.30174,-0.63818 0.49855,-0.93272 0.19681,-0.29455 0.42046,-0.56706 0.67094,-0.81755 0.25049,-0.25048 0.523,-0.47413 0.81755,-0.67094 0.29454,-0.19681 0.60545,-0.36299 0.93272,-0.49855 0.32728,-0.13557 0.66464,-0.2379 1.01208,-0.30701 0.34743,-0.0691 0.69827,-0.10366 1.05252,-0.10366 0.35424,0 0.70508,0.0346 1.05251,0.10366 0.34743,0.0691 0.68479,0.17144 1.01207,0.30701 0.32728,0.13556 0.63819,0.30174 0.93273,0.49855 0.29455,0.19681 0.56706,0.42046 0.81755,0.67094 0.25048,0.25049 0.47413,0.523 0.67093,0.81755 0.19681,0.29454 0.363,0.60545 0.49856,0.93272 0.13556,0.32728 0.2379,0.66464 0.307,1.01208 0.0691,0.34743 0.10367,0.69827 0.10368,1.05252 z"
       style="fill:#ffffff;fill-opacity:1;fill-rule:nonzero;stroke:none;stroke-width:0.21580119"
       id="path700" />
    <path
       d="m 92.817378,123.85597 c -1e-5,0.35424 -0.0346,0.70508 -0.10368,1.05251 -0.0691,0.34744 -0.17144,0.6848 -0.307,1.01207 -0.13556,0.32728 -0.30175,0.63818 -0.49855,0.93273 -0.19681,0.29454 -0.42046,0.56706 -0.67094,0.81755 -0.25049,0.25048 -0.523,0.47413 -0.81755,0.67094 -0.29454,0.1968 -0.60545,0.36299 -0.93273,0.49855 -0.32728,0.13556 -0.66464,0.2379 -1.01207,0.30701 -0.34743,0.0691 -0.69827,0.10367 -1.05251,0.10367 -0.35425,0 -0.70509,-0.0346 -1.05252,-0.10367 -0.34744,-0.0691 -0.6848,-0.17145 -1.01207,-0.30701 -0.32728,-0.13556 -0.63819,-0.30175 -0.93273,-0.49855 -0.29455,-0.19681 -0.56706,-0.42046 -0.81755,-0.67094 -0.25048,-0.25049 -0.47413,-0.52301 -0.67094,-0.81755 -0.19681,-0.29455 -0.36299,-0.60545 -0.49856,-0.93273 -0.13556,-0.32727 -0.2379,-0.66463 -0.307,-1.01207 -0.0691,-0.34743 -0.10366,-0.69827 -0.10366,-1.05251 0,-0.35425 0.0346,-0.70509 0.10366,-1.05252 0.0691,-0.34744 0.17145,-0.6848 0.30701,-1.01208 0.13556,-0.32727 0.30174,-0.63818 0.49855,-0.93272 0.19681,-0.29455 0.42046,-0.56706 0.67094,-0.81755 0.25049,-0.25048 0.523,-0.47413 0.81755,-0.67094 0.29454,-0.19681 0.60545,-0.36299 0.93272,-0.49855 0.32728,-0.13557 0.66464,-0.2379 1.01208,-0.30701 0.34743,-0.0691 0.69827,-0.10366 1.05252,-0.10366 0.35424,0 0.70508,0.0346 1.05251,0.10366 0.34743,0.0691 0.68479,0.17144 1.01207,0.30701 0.32728,0.13556 0.63819,0.30174 0.93273,0.49855 0.29455,0.19681 0.56706,0.42046 0.81755,0.67094 0.25048,0.25049 0.47413,0.523 0.67093,0.81755 0.19681,0.29454 0.363,0.60545 0.49856,0.93272 0.13556,0.32728 0.2379,0.66464 0.307,1.01208 0.0691,0.34743 0.10367,0.69827 0.10368,1.05252 z"
       style="fill:none;stroke:#000000;stroke-width:0.21580119;stroke-linecap:butt;stroke-linejoin:miter;stroke-miterlimit:10;stroke-dasharray:none;stroke-opacity:1"
       id="path702" />
    <path
       d="m 63.684218,141.76747 c -1e-5,0.35424 -0.0346,0.70508 -0.10367,1.05251 -0.0691,0.34743 -0.17145,0.68479 -0.30701,1.01207 -0.13556,0.32727 -0.30175,0.63819 -0.49855,0.93273 -0.19681,0.29454 -0.42046,0.56706 -0.67094,0.81755 -0.25049,0.25048 -0.52301,0.47413 -0.81755,0.67093 -0.29454,0.19681 -0.60545,0.36299 -0.93273,0.49856 -0.32728,0.13556 -0.66464,0.2379 -1.01207,0.30701 -0.34743,0.0691 -0.69827,0.10366 -1.05251,0.10366 -0.35425,0 -0.70509,-0.0346 -1.05252,-0.10366 -0.34744,-0.0691 -0.6848,-0.17145 -1.01207,-0.30701 -0.32728,-0.13557 -0.63819,-0.30175 -0.93273,-0.49856 -0.29454,-0.1968 -0.56706,-0.42045 -0.81755,-0.67093 -0.25048,-0.25049 -0.47413,-0.52301 -0.67094,-0.81755 -0.19681,-0.29454 -0.36299,-0.60546 -0.49855,-0.93273 -0.13557,-0.32728 -0.2379,-0.66464 -0.30701,-1.01207 -0.0691,-0.34743 -0.10366,-0.69827 -0.10366,-1.05251 0,-0.35425 0.0346,-0.70509 0.10366,-1.05253 0.0691,-0.34743 0.17144,-0.68479 0.30701,-1.01207 0.13556,-0.32728 0.30174,-0.63819 0.49855,-0.93273 0.19681,-0.29454 0.42046,-0.56706 0.67094,-0.81754 0.25049,-0.25049 0.52301,-0.47413 0.81755,-0.67094 0.29454,-0.19681 0.60545,-0.36299 0.93273,-0.49855 0.32727,-0.13556 0.66463,-0.2379 1.01207,-0.30701 0.34743,-0.0691 0.69827,-0.10366 1.05252,-0.10366 0.35424,0 0.70508,0.0346 1.05251,0.10366 0.34743,0.0691 0.68479,0.17145 1.01207,0.30701 0.32728,0.13556 0.63819,0.30174 0.93273,0.49855 0.29454,0.19681 0.56706,0.42045 0.81755,0.67094 0.25048,0.25048 0.47413,0.523 0.67094,0.81754 0.1968,0.29454 0.36299,0.60545 0.49855,0.93273 0.13556,0.32728 0.2379,0.66464 0.30701,1.01207 0.0691,0.34744 0.10366,0.69828 0.10367,1.05253 z"
       style="fill:#cccccc;fill-opacity:1;fill-rule:nonzero;stroke:none;stroke-width:0.21580119"
       id="path704" />
    <path
       d="m 63.684218,141.76747 c -1e-5,0.35424 -0.0346,0.70508 -0.10367,1.05251 -0.0691,0.34743 -0.17145,0.68479 -0.30701,1.01207 -0.13556,0.32727 -0.30175,0.63819 -0.49855,0.93273 -0.19681,0.29454 -0.42046,0.56706 -0.67094,0.81755 -0.25049,0.25048 -0.52301,0.47413 -0.81755,0.67093 -0.29454,0.19681 -0.60545,0.36299 -0.93273,0.49856 -0.32728,0.13556 -0.66464,0.2379 -1.01207,0.30701 -0.34743,0.0691 -0.69827,0.10366 -1.05251,0.10366 -0.35425,0 -0.70509,-0.0346 -1.05252,-0.10366 -0.34744,-0.0691 -0.6848,-0.17145 -1.01207,-0.30701 -0.32728,-0.13557 -0.63819,-0.30175 -0.93273,-0.49856 -0.29454,-0.1968 -0.56706,-0.42045 -0.81755,-0.67093 -0.25048,-0.25049 -0.47413,-0.52301 -0.67094,-0.81755 -0.19681,-0.29454 -0.36299,-0.60546 -0.49855,-0.93273 -0.13557,-0.32728 -0.2379,-0.66464 -0.30701,-1.01207 -0.0691,-0.34743 -0.10366,-0.69827 -0.10366,-1.05251 0,-0.35425 0.0346,-0.70509 0.10366,-1.05253 0.0691,-0.34743 0.17144,-0.68479 0.30701,-1.01207 0.13556,-0.32728 0.30174,-0.63819 0.49855,-0.93273 0.19681,-0.29454 0.42046,-0.56706 0.67094,-0.81754 0.25049,-0.25049 0.52301,-0.47413 0.81755,-0.67094 0.29454,-0.19681 0.60545,-0.36299 0.93273,-0.49855 0.32727,-0.13556 0.66463,-0.2379 1.01207,-0.30701 0.34743,-0.0691 0.69827,-0.10366 1.05252,-0.10366 0.35424,0 0.70508,0.0346 1.05251,0.10366 0.34743,0.0691 0.68479,0.17145 1.01207,0.30701 0.32728,0.13556 0.63819,0.30174 0.93273,0.49855 0.29454,0.19681 0.56706,0.42045 0.81755,0.67094 0.25048,0.25048 0.47413,0.523 0.67094,0.81754 0.1968,0.29454 0.36299,0.60545 0.49855,0.93273 0.13556,0.32728 0.2379,0.66464 0.30701,1.01207 0.0691,0.34744 0.10366,0.69828 0.10367,1.05253 z"
       style="fill:none;stroke:#000000;stroke-width:0.21580119;stroke-linecap:butt;stroke-linejoin:miter;stroke-miterlimit:10;stroke-dasharray:none;stroke-opacity:1"
       id="path706" />
    <path
       d="m 92.817378,141.76747 c -1e-5,0.35424 -0.0346,0.70508 -0.10368,1.05251 -0.0691,0.34743 -0.17144,0.68479 -0.307,1.01207 -0.13556,0.32727 -0.30175,0.63819 -0.49855,0.93273 -0.19681,0.29454 -0.42046,0.56706 -0.67094,0.81755 -0.25049,0.25048 -0.523,0.47413 -0.81755,0.67093 -0.29454,0.19681 -0.60545,0.36299 -0.93273,0.49856 -0.32728,0.13556 -0.66464,0.2379 -1.01207,0.30701 -0.34743,0.0691 -0.69827,0.10366 -1.05251,0.10366 -0.35425,0 -0.70509,-0.0346 -1.05252,-0.10366 -0.34744,-0.0691 -0.6848,-0.17145 -1.01207,-0.30701 -0.32728,-0.13557 -0.63819,-0.30175 -0.93273,-0.49856 -0.29455,-0.1968 -0.56706,-0.42045 -0.81755,-0.67093 -0.25048,-0.25049 -0.47413,-0.52301 -0.67094,-0.81755 -0.19681,-0.29454 -0.36299,-0.60546 -0.49856,-0.93273 -0.13556,-0.32728 -0.2379,-0.66464 -0.307,-1.01207 -0.0691,-0.34743 -0.10366,-0.69827 -0.10366,-1.05251 0,-0.35425 0.0346,-0.70509 0.10366,-1.05253 0.0691,-0.34743 0.17145,-0.68479 0.30701,-1.01207 0.13556,-0.32728 0.30174,-0.63819 0.49855,-0.93273 0.19681,-0.29454 0.42046,-0.56706 0.67094,-0.81754 0.25049,-0.25049 0.523,-0.47413 0.81755,-0.67094 0.29454,-0.19681 0.60545,-0.36299 0.93272,-0.49855 0.32728,-0.13556 0.66464,-0.2379 1.01208,-0.30701 0.34743,-0.0691 0.69827,-0.10366 1.05252,-0.10366 0.35424,0 0.70508,0.0346 1.05251,0.10366 0.34743,0.0691 0.68479,0.17145 1.01207,0.30701 0.32728,0.13556 0.63819,0.30174 0.93273,0.49855 0.29455,0.19681 0.56706,0.42045 0.81755,0.67094 0.25048,0.25048 0.47413,0.523 0.67093,0.81754 0.19681,0.29454 0.363,0.60545 0.49856,0.93273 0.13556,0.32728 0.2379,0.66464 0.307,1.01207 0.0691,0.34744 0.10367,0.69828 0.10368,1.05253 z"
       style="fill:#cccccc;fill-opacity:1;fill-rule:nonzero;stroke:none;stroke-width:0.21580119"
       id="path708" />
    <path
       d="m 92.817378,141.76747 c -1e-5,0.35424 -0.0346,0.70508 -0.10368,1.05251 -0.0691,0.34743 -0.17144,0.68479 -0.307,1.01207 -0.13556,0.32727 -0.30175,0.63819 -0.49855,0.93273 -0.19681,0.29454 -0.42046,0.56706 -0.67094,0.81755 -0.25049,0.25048 -0.523,0.47413 -0.81755,0.67093 -0.29454,0.19681 -0.60545,0.36299 -0.93273,0.49856 -0.32728,0.13556 -0.66464,0.2379 -1.01207,0.30701 -0.34743,0.0691 -0.69827,0.10366 -1.05251,0.10366 -0.35425,0 -0.70509,-0.0346 -1.05252,-0.10366 -0.34744,-0.0691 -0.6848,-0.17145 -1.01207,-0.30701 -0.32728,-0.13557 -0.63819,-0.30175 -0.93273,-0.49856 -0.29455,-0.1968 -0.56706,-0.42045 -0.81755,-0.67093 -0.25048,-0.25049 -0.47413,-0.52301 -0.67094,-0.81755 -0.19681,-0.29454 -0.36299,-0.60546 -0.49856,-0.93273 -0.13556,-0.32728 -0.2379,-0.66464 -0.307,-1.01207 -0.0691,-0.34743 -0.10366,-0.69827 -0.10366,-1.05251 0,-0.35425 0.0346,-0.70509 0.10366,-1.05253 0.0691,-0.34743 0.17145,-0.68479 0.30701,-1.01207 0.13556,-0.32728 0.30174,-0.63819 0.49855,-0.93273 0.19681,-0.29454 0.42046,-0.56706 0.67094,-0.81754 0.25049,-0.25049 0.523,-0.47413 0.81755,-0.67094 0.29454,-0.19681 0.60545,-0.36299 0.93272,-0.49855 0.32728,-0.13556 0.66464,-0.2379 1.01208,-0.30701 0.34743,-0.0691 0.69827,-0.10366 1.05252,-0.10366 0.35424,0 0.70508,0.0346 1.05251,0.10366 0.34743,0.0691 0.68479,0.17145 1.01207,0.30701 0.32728,0.13556 0.63819,0.30174 0.93273,0.49855 0.29455,0.19681 0.56706,0.42045 0.81755,0.67094 0.25048,0.25048 0.47413,0.523 0.67093,0.81754 0.19681,0.29454 0.363,0.60545 0.49856,0.93273 0.13556,0.32728 0.2379,0.66464 0.307,1.01207 0.0691,0.34744 0.10367,0.69828 0.10368,1.05253 z"
       style="fill:none;stroke:#000000;stroke-width:0.21580119;stroke-linecap:butt;stroke-linejoin:miter;stroke-miterlimit:10;stroke-dasharray:none;stroke-opacity:1"
       id="path710" />
    <path
       d="m 121.95054,141.76747 c -1e-5,0.35424 -0.0346,0.70508 -0.10368,1.05251 -0.0691,0.34743 -0.17144,0.68479 -0.30701,1.01207 -0.13556,0.32727 -0.30174,0.63819 -0.49855,0.93273 -0.19681,0.29454 -0.42045,0.56706 -0.67094,0.81755 -0.25049,0.25048 -0.52301,0.47413 -0.81755,0.67093 -0.29454,0.19681 -0.60545,0.36299 -0.93273,0.49856 -0.32728,0.13556 -0.66463,0.2379 -1.01207,0.30701 -0.34743,0.0691 -0.69826,0.10366 -1.0525,0.10366 -0.35425,0 -0.70509,-0.0346 -1.05253,-0.10366 -0.34744,-0.0691 -0.68479,-0.17145 -1.01207,-0.30701 -0.32728,-0.13557 -0.63819,-0.30175 -0.93274,-0.49856 -0.29453,-0.1968 -0.56704,-0.42045 -0.81753,-0.67093 -0.25049,-0.25049 -0.47414,-0.52301 -0.67095,-0.81755 -0.19681,-0.29454 -0.36299,-0.60546 -0.49855,-0.93273 -0.13556,-0.32728 -0.2379,-0.66464 -0.307,-1.01207 -0.0691,-0.34743 -0.10367,-0.69827 -0.10366,-1.05251 -1e-5,-0.35425 0.0345,-0.70509 0.10366,-1.05253 0.0691,-0.34743 0.17144,-0.68479 0.307,-1.01207 0.13556,-0.32728 0.30174,-0.63819 0.49855,-0.93273 0.19681,-0.29454 0.42046,-0.56706 0.67095,-0.81754 0.25049,-0.25049 0.523,-0.47413 0.81754,-0.67094 0.29454,-0.19681 0.60546,-0.36299 0.93274,-0.49855 0.32727,-0.13556 0.66463,-0.2379 1.01206,-0.30701 0.34744,-0.0691 0.69828,-0.10366 1.05253,-0.10366 0.35424,0 0.70507,0.0346 1.0525,0.10366 0.34744,0.0691 0.68479,0.17145 1.01207,0.30701 0.32728,0.13556 0.63819,0.30174 0.93273,0.49855 0.29454,0.19681 0.56706,0.42045 0.81755,0.67094 0.25049,0.25048 0.47413,0.523 0.67093,0.81754 0.19682,0.29454 0.363,0.60545 0.49856,0.93273 0.13557,0.32728 0.23791,0.66464 0.30701,1.01207 0.0691,0.34744 0.10367,0.69828 0.10368,1.05253 z"
       style="fill:#cccccc;fill-opacity:1;fill-rule:nonzero;stroke:none;stroke-width:0.21580119"
       id="path712" />
    <path
       d="m 121.95054,141.76747 c -1e-5,0.35424 -0.0346,0.70508 -0.10368,1.05251 -0.0691,0.34743 -0.17144,0.68479 -0.30701,1.01207 -0.13556,0.32727 -0.30174,0.63819 -0.49855,0.93273 -0.19681,0.29454 -0.42045,0.56706 -0.67094,0.81755 -0.25049,0.25048 -0.52301,0.47413 -0.81755,0.67093 -0.29454,0.19681 -0.60545,0.36299 -0.93273,0.49856 -0.32728,0.13556 -0.66463,0.2379 -1.01207,0.30701 -0.34743,0.0691 -0.69826,0.10366 -1.0525,0.10366 -0.35425,0 -0.70509,-0.0346 -1.05253,-0.10366 -0.34744,-0.0691 -0.68479,-0.17145 -1.01207,-0.30701 -0.32728,-0.13557 -0.63819,-0.30175 -0.93274,-0.49856 -0.29453,-0.1968 -0.56704,-0.42045 -0.81753,-0.67093 -0.25049,-0.25049 -0.47414,-0.52301 -0.67095,-0.81755 -0.19681,-0.29454 -0.36299,-0.60546 -0.49855,-0.93273 -0.13556,-0.32728 -0.2379,-0.66464 -0.307,-1.01207 -0.0691,-0.34743 -0.10367,-0.69827 -0.10366,-1.05251 -1e-5,-0.35425 0.0345,-0.70509 0.10366,-1.05253 0.0691,-0.34743 0.17144,-0.68479 0.307,-1.01207 0.13556,-0.32728 0.30174,-0.63819 0.49855,-0.93273 0.19681,-0.29454 0.42046,-0.56706 0.67095,-0.81754 0.25049,-0.25049 0.523,-0.47413 0.81754,-0.67094 0.29454,-0.19681 0.60546,-0.36299 0.93274,-0.49855 0.32727,-0.13556 0.66463,-0.2379 1.01206,-0.30701 0.34744,-0.0691 0.69828,-0.10366 1.05253,-0.10366 0.35424,0 0.70507,0.0346 1.0525,0.10366 0.34744,0.0691 0.68479,0.17145 1.01207,0.30701 0.32728,0.13556 0.63819,0.30174 0.93273,0.49855 0.29454,0.19681 0.56706,0.42045 0.81755,0.67094 0.25049,0.25048 0.47413,0.523 0.67093,0.81754 0.19682,0.29454 0.363,0.60545 0.49856,0.93273 0.13557,0.32728 0.23791,0.66464 0.30701,1.01207 0.0691,0.34744 0.10367,0.69828 0.10368,1.05253 z"
       style="fill:none;stroke:#000000;stroke-width:0.21580119;stroke-linecap:butt;stroke-linejoin:miter;stroke-miterlimit:10;stroke-dasharray:none;stroke-opacity:1"
       id="path714" />
    <path
       d="m 55.052168,159.67896 c 0,0.35424 -0.0345,0.70508 -0.10366,1.05252 -0.0691,0.34743 -0.17145,0.68479 -0.30702,1.01206 -0.13556,0.32728 -0.30174,0.63819 -0.49855,0.93273 -0.1968,0.29454 -0.42045,0.56706 -0.67094,0.81755 -0.25049,0.25048 -0.523,0.47413 -0.81755,0.67093 -0.29454,0.19681 -0.60545,0.36299 -0.93272,0.49856 -0.32728,0.13557 -0.66464,0.2379 -1.01207,0.30701 -0.34744,0.0691 -0.69828,0.10367 -1.05252,0.10367 -0.35424,0 -0.70508,-0.0346 -1.05252,-0.10367 -0.34744,-0.0691 -0.68479,-0.17144 -1.01207,-0.30701 -0.32728,-0.13557 -0.63819,-0.30175 -0.93273,-0.49856 -0.29454,-0.1968 -0.56706,-0.42045 -0.81754,-0.67093 -0.25049,-0.25049 -0.47414,-0.52301 -0.67095,-0.81755 -0.1968,-0.29454 -0.36299,-0.60545 -0.49855,-0.93273 -0.13556,-0.32727 -0.2379,-0.66463 -0.30701,-1.01206 -0.0691,-0.34744 -0.10366,-0.69828 -0.10366,-1.05252 0,-0.35424 0.0346,-0.70508 0.10366,-1.05252 0.0691,-0.34744 0.17145,-0.6848 0.30701,-1.01208 0.13556,-0.32727 0.30175,-0.63818 0.49855,-0.93273 0.19681,-0.29454 0.42046,-0.56705 0.67095,-0.81753 0.25048,-0.25049 0.523,-0.47414 0.81754,-0.67095 0.29454,-0.1968 0.60545,-0.36298 0.93273,-0.49855 0.32728,-0.13556 0.66463,-0.2379 1.01207,-0.307 0.34744,-0.0691 0.69828,-0.10367 1.05252,-0.10367 0.35424,0 0.70508,0.0346 1.05252,0.10367 0.34743,0.0691 0.68479,0.17144 1.01207,0.307 0.32727,0.13557 0.63818,0.30175 0.93273,0.49855 0.29454,0.19681 0.56705,0.42046 0.81754,0.67095 0.25049,0.25048 0.47414,0.52299 0.67094,0.81753 0.19681,0.29455 0.36299,0.60546 0.49855,0.93273 0.13557,0.32728 0.2379,0.66464 0.30702,1.01208 0.0691,0.34744 0.10366,0.69828 0.10366,1.05252 z"
       style="fill:#ffffff;fill-opacity:1;fill-rule:nonzero;stroke:none;stroke-width:0.21580119"
       id="path716" />
    <path
       d="m 55.052168,159.67896 c 0,0.35424 -0.0345,0.70508 -0.10366,1.05252 -0.0691,0.34743 -0.17145,0.68479 -0.30702,1.01206 -0.13556,0.32728 -0.30174,0.63819 -0.49855,0.93273 -0.1968,0.29454 -0.42045,0.56706 -0.67094,0.81755 -0.25049,0.25048 -0.523,0.47413 -0.81755,0.67093 -0.29454,0.19681 -0.60545,0.36299 -0.93272,0.49856 -0.32728,0.13557 -0.66464,0.2379 -1.01207,0.30701 -0.34744,0.0691 -0.69828,0.10367 -1.05252,0.10367 -0.35424,0 -0.70508,-0.0346 -1.05252,-0.10367 -0.34744,-0.0691 -0.68479,-0.17144 -1.01207,-0.30701 -0.32728,-0.13557 -0.63819,-0.30175 -0.93273,-0.49856 -0.29454,-0.1968 -0.56706,-0.42045 -0.81754,-0.67093 -0.25049,-0.25049 -0.47414,-0.52301 -0.67095,-0.81755 -0.1968,-0.29454 -0.36299,-0.60545 -0.49855,-0.93273 -0.13556,-0.32727 -0.2379,-0.66463 -0.30701,-1.01206 -0.0691,-0.34744 -0.10366,-0.69828 -0.10366,-1.05252 0,-0.35424 0.0346,-0.70508 0.10366,-1.05252 0.0691,-0.34744 0.17145,-0.6848 0.30701,-1.01208 0.13556,-0.32727 0.30175,-0.63818 0.49855,-0.93273 0.19681,-0.29454 0.42046,-0.56705 0.67095,-0.81753 0.25048,-0.25049 0.523,-0.47414 0.81754,-0.67095 0.29454,-0.1968 0.60545,-0.36298 0.93273,-0.49855 0.32728,-0.13556 0.66463,-0.2379 1.01207,-0.307 0.34744,-0.0691 0.69828,-0.10367 1.05252,-0.10367 0.35424,0 0.70508,0.0346 1.05252,0.10367 0.34743,0.0691 0.68479,0.17144 1.01207,0.307 0.32727,0.13557 0.63818,0.30175 0.93273,0.49855 0.29454,0.19681 0.56705,0.42046 0.81754,0.67095 0.25049,0.25048 0.47414,0.52299 0.67094,0.81753 0.19681,0.29455 0.36299,0.60546 0.49855,0.93273 0.13557,0.32728 0.2379,0.66464 0.30702,1.01208 0.0691,0.34744 0.10366,0.69828 0.10366,1.05252 z"
       style="fill:none;stroke:#000000;stroke-width:0.21580119;stroke-linecap:butt;stroke-linejoin:miter;stroke-miterlimit:10;stroke-dasharray:none;stroke-opacity:1"
       id="path718" />
    <path
       d="m 72.316258,159.67896 c 0,0.35424 -0.0346,0.70508 -0.10366,1.05252 -0.0691,0.34743 -0.17145,0.68479 -0.30701,1.01206 -0.13557,0.32728 -0.30175,0.63819 -0.49855,0.93273 -0.19681,0.29454 -0.42046,0.56706 -0.67094,0.81755 -0.25049,0.25048 -0.52301,0.47413 -0.81755,0.67093 -0.29455,0.19681 -0.60545,0.36299 -0.93273,0.49856 -0.32728,0.13557 -0.66464,0.2379 -1.01207,0.30701 -0.34743,0.0691 -0.69827,0.10367 -1.05252,0.10367 -0.35424,0 -0.70508,-0.0346 -1.05251,-0.10367 -0.34744,-0.0691 -0.6848,-0.17144 -1.01207,-0.30701 -0.32728,-0.13557 -0.63819,-0.30175 -0.93274,-0.49856 -0.29454,-0.1968 -0.56705,-0.42045 -0.81754,-0.67093 -0.25049,-0.25049 -0.47414,-0.52301 -0.67094,-0.81755 -0.19681,-0.29454 -0.36299,-0.60545 -0.49856,-0.93273 -0.13556,-0.32727 -0.23789,-0.66463 -0.307,-1.01206 -0.0691,-0.34744 -0.10367,-0.69828 -0.10366,-1.05252 -10e-6,-0.35424 0.0346,-0.70508 0.10366,-1.05252 0.0691,-0.34744 0.17144,-0.6848 0.307,-1.01208 0.13557,-0.32727 0.30175,-0.63818 0.49856,-0.93273 0.1968,-0.29454 0.42045,-0.56705 0.67094,-0.81753 0.25049,-0.25049 0.523,-0.47414 0.81754,-0.67095 0.29455,-0.1968 0.60546,-0.36298 0.93274,-0.49855 0.32727,-0.13556 0.66463,-0.2379 1.01207,-0.307 0.34743,-0.0691 0.69827,-0.10367 1.05251,-0.10367 0.35425,0 0.70509,0.0346 1.05252,0.10367 0.34743,0.0691 0.68479,0.17144 1.01207,0.307 0.32728,0.13557 0.63818,0.30175 0.93273,0.49855 0.29454,0.19681 0.56706,0.42046 0.81755,0.67095 0.25048,0.25048 0.47413,0.52299 0.67093,0.81753 0.19681,0.29455 0.36299,0.60546 0.49856,0.93273 0.13556,0.32728 0.2379,0.66464 0.30701,1.01208 0.0691,0.34744 0.10366,0.69828 0.10366,1.05252 z"
       style="fill:#ffffff;fill-opacity:1;fill-rule:nonzero;stroke:none;stroke-width:0.21580119"
       id="path720" />
    <path
       d="m 72.316258,159.67896 c 0,0.35424 -0.0346,0.70508 -0.10366,1.05252 -0.0691,0.34743 -0.17145,0.68479 -0.30701,1.01206 -0.13557,0.32728 -0.30175,0.63819 -0.49855,0.93273 -0.19681,0.29454 -0.42046,0.56706 -0.67094,0.81755 -0.25049,0.25048 -0.52301,0.47413 -0.81755,0.67093 -0.29455,0.19681 -0.60545,0.36299 -0.93273,0.49856 -0.32728,0.13557 -0.66464,0.2379 -1.01207,0.30701 -0.34743,0.0691 -0.69827,0.10367 -1.05252,0.10367 -0.35424,0 -0.70508,-0.0346 -1.05251,-0.10367 -0.34744,-0.0691 -0.6848,-0.17144 -1.01207,-0.30701 -0.32728,-0.13557 -0.63819,-0.30175 -0.93274,-0.49856 -0.29454,-0.1968 -0.56705,-0.42045 -0.81754,-0.67093 -0.25049,-0.25049 -0.47414,-0.52301 -0.67094,-0.81755 -0.19681,-0.29454 -0.36299,-0.60545 -0.49856,-0.93273 -0.13556,-0.32727 -0.23789,-0.66463 -0.307,-1.01206 -0.0691,-0.34744 -0.10367,-0.69828 -0.10366,-1.05252 -10e-6,-0.35424 0.0346,-0.70508 0.10366,-1.05252 0.0691,-0.34744 0.17144,-0.6848 0.307,-1.01208 0.13557,-0.32727 0.30175,-0.63818 0.49856,-0.93273 0.1968,-0.29454 0.42045,-0.56705 0.67094,-0.81753 0.25049,-0.25049 0.523,-0.47414 0.81754,-0.67095 0.29455,-0.1968 0.60546,-0.36298 0.93274,-0.49855 0.32727,-0.13556 0.66463,-0.2379 1.01207,-0.307 0.34743,-0.0691 0.69827,-0.10367 1.05251,-0.10367 0.35425,0 0.70509,0.0346 1.05252,0.10367 0.34743,0.0691 0.68479,0.17144 1.01207,0.307 0.32728,0.13557 0.63818,0.30175 0.93273,0.49855 0.29454,0.19681 0.56706,0.42046 0.81755,0.67095 0.25048,0.25048 0.47413,0.52299 0.67093,0.81753 0.19681,0.29455 0.36299,0.60546 0.49856,0.93273 0.13556,0.32728 0.2379,0.66464 0.30701,1.01208 0.0691,0.34744 0.10366,0.69828 0.10366,1.05252 z"
       style="fill:none;stroke:#000000;stroke-width:0.21580119;stroke-linecap:butt;stroke-linejoin:miter;stroke-miterlimit:10;stroke-dasharray:none;stroke-opacity:1"
       id="path722" />
    <path
       d="m 109.00247,159.67896 c -1e-5,0.35424 -0.0346,0.70508 -0.10368,1.05252 -0.0691,0.34743 -0.17144,0.68479 -0.307,1.01206 -0.13557,0.32728 -0.30176,0.63819 -0.49856,0.93273 -0.19681,0.29454 -0.42045,0.56706 -0.67094,0.81755 -0.25049,0.25048 -0.52301,0.47413 -0.81755,0.67093 -0.29455,0.19681 -0.60545,0.36299 -0.93272,0.49856 -0.32728,0.13557 -0.66464,0.2379 -1.01207,0.30701 -0.34744,0.0691 -0.69827,0.10367 -1.05251,0.10367 -0.35425,0 -0.70509,-0.0346 -1.05253,-0.10367 -0.34744,-0.0691 -0.6848,-0.17144 -1.01207,-0.30701 -0.32728,-0.13557 -0.63819,-0.30175 -0.93273,-0.49856 -0.29454,-0.1968 -0.56705,-0.42045 -0.817542,-0.67093 -0.25049,-0.25049 -0.47414,-0.52301 -0.67094,-0.81755 -0.19681,-0.29454 -0.363,-0.60545 -0.49857,-0.93273 -0.13555,-0.32727 -0.23789,-0.66463 -0.307,-1.01206 -0.0691,-0.34744 -0.10365,-0.69828 -0.10365,-1.05252 0,-0.35424 0.0346,-0.70508 0.10365,-1.05252 0.0691,-0.34744 0.17145,-0.6848 0.307,-1.01208 0.13557,-0.32727 0.30176,-0.63818 0.49857,-0.93273 0.1968,-0.29454 0.42045,-0.56705 0.67094,-0.81753 0.250492,-0.25049 0.523002,-0.47414 0.817542,-0.67095 0.29454,-0.1968 0.60545,-0.36298 0.93273,-0.49855 0.32727,-0.13556 0.66463,-0.2379 1.01207,-0.307 0.34744,-0.0691 0.69828,-0.10367 1.05253,-0.10367 0.35424,0 0.70507,0.0346 1.05251,0.10367 0.34743,0.0691 0.68479,0.17144 1.01207,0.307 0.32727,0.13557 0.63817,0.30175 0.93272,0.49855 0.29454,0.19681 0.56706,0.42046 0.81755,0.67095 0.25049,0.25048 0.47413,0.52299 0.67094,0.81753 0.1968,0.29455 0.36299,0.60546 0.49856,0.93273 0.13556,0.32728 0.2379,0.66464 0.307,1.01208 0.0691,0.34744 0.10367,0.69828 0.10368,1.05252 z"
       style="fill:#ffffff;fill-opacity:1;fill-rule:nonzero;stroke:none;stroke-width:0.21580119"
       id="path724" />
    <path
       d="m 109.00247,159.67896 c -1e-5,0.35424 -0.0346,0.70508 -0.10368,1.05252 -0.0691,0.34743 -0.17144,0.68479 -0.307,1.01206 -0.13557,0.32728 -0.30176,0.63819 -0.49856,0.93273 -0.19681,0.29454 -0.42045,0.56706 -0.67094,0.81755 -0.25049,0.25048 -0.52301,0.47413 -0.81755,0.67093 -0.29455,0.19681 -0.60545,0.36299 -0.93272,0.49856 -0.32728,0.13557 -0.66464,0.2379 -1.01207,0.30701 -0.34744,0.0691 -0.69827,0.10367 -1.05251,0.10367 -0.35425,0 -0.70509,-0.0346 -1.05253,-0.10367 -0.34744,-0.0691 -0.6848,-0.17144 -1.01207,-0.30701 -0.32728,-0.13557 -0.63819,-0.30175 -0.93273,-0.49856 -0.29454,-0.1968 -0.56705,-0.42045 -0.817542,-0.67093 -0.25049,-0.25049 -0.47414,-0.52301 -0.67094,-0.81755 -0.19681,-0.29454 -0.363,-0.60545 -0.49857,-0.93273 -0.13555,-0.32727 -0.23789,-0.66463 -0.307,-1.01206 -0.0691,-0.34744 -0.10365,-0.69828 -0.10365,-1.05252 0,-0.35424 0.0346,-0.70508 0.10365,-1.05252 0.0691,-0.34744 0.17145,-0.6848 0.307,-1.01208 0.13557,-0.32727 0.30176,-0.63818 0.49857,-0.93273 0.1968,-0.29454 0.42045,-0.56705 0.67094,-0.81753 0.250492,-0.25049 0.523002,-0.47414 0.817542,-0.67095 0.29454,-0.1968 0.60545,-0.36298 0.93273,-0.49855 0.32727,-0.13556 0.66463,-0.2379 1.01207,-0.307 0.34744,-0.0691 0.69828,-0.10367 1.05253,-0.10367 0.35424,0 0.70507,0.0346 1.05251,0.10367 0.34743,0.0691 0.68479,0.17144 1.01207,0.307 0.32727,0.13557 0.63817,0.30175 0.93272,0.49855 0.29454,0.19681 0.56706,0.42046 0.81755,0.67095 0.25049,0.25048 0.47413,0.52299 0.67094,0.81753 0.1968,0.29455 0.36299,0.60546 0.49856,0.93273 0.13556,0.32728 0.2379,0.66464 0.307,1.01208 0.0691,0.34744 0.10367,0.69828 0.10368,1.05252 z"
       style="fill:none;stroke:#000000;stroke-width:0.21580119;stroke-linecap:butt;stroke-linejoin:miter;stroke-miterlimit:10;stroke-dasharray:none;stroke-opacity:1"
       id="path726" />
    <path
       d="m 121.95054,159.67896 c -1e-5,0.35424 -0.0346,0.70508 -0.10368,1.05252 -0.0691,0.34743 -0.17144,0.68479 -0.30701,1.01206 -0.13556,0.32728 -0.30174,0.63819 -0.49855,0.93273 -0.19681,0.29454 -0.42045,0.56706 -0.67094,0.81755 -0.25049,0.25048 -0.52301,0.47413 -0.81755,0.67093 -0.29454,0.19681 -0.60545,0.36299 -0.93273,0.49856 -0.32728,0.13557 -0.66463,0.2379 -1.01207,0.30701 -0.34743,0.0691 -0.69826,0.10367 -1.0525,0.10367 -0.35425,0 -0.70509,-0.0346 -1.05253,-0.10367 -0.34744,-0.0691 -0.68479,-0.17144 -1.01207,-0.30701 -0.32728,-0.13557 -0.63819,-0.30175 -0.93274,-0.49856 -0.29453,-0.1968 -0.56704,-0.42045 -0.81753,-0.67093 -0.25049,-0.25049 -0.47414,-0.52301 -0.67095,-0.81755 -0.19681,-0.29454 -0.36299,-0.60545 -0.49855,-0.93273 -0.13556,-0.32727 -0.2379,-0.66463 -0.307,-1.01206 -0.0691,-0.34744 -0.10367,-0.69828 -0.10366,-1.05252 -1e-5,-0.35424 0.0345,-0.70508 0.10366,-1.05252 0.0691,-0.34744 0.17144,-0.6848 0.307,-1.01208 0.13556,-0.32727 0.30174,-0.63818 0.49855,-0.93273 0.19681,-0.29454 0.42046,-0.56705 0.67095,-0.81753 0.25049,-0.25049 0.523,-0.47414 0.81754,-0.67095 0.29454,-0.1968 0.60546,-0.36298 0.93274,-0.49855 0.32727,-0.13556 0.66463,-0.2379 1.01206,-0.307 0.34744,-0.0691 0.69828,-0.10367 1.05253,-0.10367 0.35424,0 0.70507,0.0346 1.0525,0.10367 0.34744,0.0691 0.68479,0.17144 1.01207,0.307 0.32728,0.13557 0.63819,0.30175 0.93273,0.49855 0.29454,0.19681 0.56706,0.42046 0.81755,0.67095 0.25049,0.25048 0.47413,0.52299 0.67093,0.81753 0.19682,0.29455 0.363,0.60546 0.49856,0.93273 0.13557,0.32728 0.23791,0.66464 0.30701,1.01208 0.0691,0.34744 0.10367,0.69828 0.10368,1.05252 z"
       style="fill:#ffffff;fill-opacity:1;fill-rule:nonzero;stroke:none;stroke-width:0.21580119"
       id="path728" />
    <path
       d="m 121.95054,159.67896 c -1e-5,0.35424 -0.0346,0.70508 -0.10368,1.05252 -0.0691,0.34743 -0.17144,0.68479 -0.30701,1.01206 -0.13556,0.32728 -0.30174,0.63819 -0.49855,0.93273 -0.19681,0.29454 -0.42045,0.56706 -0.67094,0.81755 -0.25049,0.25048 -0.52301,0.47413 -0.81755,0.67093 -0.29454,0.19681 -0.60545,0.36299 -0.93273,0.49856 -0.32728,0.13557 -0.66463,0.2379 -1.01207,0.30701 -0.34743,0.0691 -0.69826,0.10367 -1.0525,0.10367 -0.35425,0 -0.70509,-0.0346 -1.05253,-0.10367 -0.34744,-0.0691 -0.68479,-0.17144 -1.01207,-0.30701 -0.32728,-0.13557 -0.63819,-0.30175 -0.93274,-0.49856 -0.29453,-0.1968 -0.56704,-0.42045 -0.81753,-0.67093 -0.25049,-0.25049 -0.47414,-0.52301 -0.67095,-0.81755 -0.19681,-0.29454 -0.36299,-0.60545 -0.49855,-0.93273 -0.13556,-0.32727 -0.2379,-0.66463 -0.307,-1.01206 -0.0691,-0.34744 -0.10367,-0.69828 -0.10366,-1.05252 -1e-5,-0.35424 0.0345,-0.70508 0.10366,-1.05252 0.0691,-0.34744 0.17144,-0.6848 0.307,-1.01208 0.13556,-0.32727 0.30174,-0.63818 0.49855,-0.93273 0.19681,-0.29454 0.42046,-0.56705 0.67095,-0.81753 0.25049,-0.25049 0.523,-0.47414 0.81754,-0.67095 0.29454,-0.1968 0.60546,-0.36298 0.93274,-0.49855 0.32727,-0.13556 0.66463,-0.2379 1.01206,-0.307 0.34744,-0.0691 0.69828,-0.10367 1.05253,-0.10367 0.35424,0 0.70507,0.0346 1.0525,0.10367 0.34744,0.0691 0.68479,0.17144 1.01207,0.307 0.32728,0.13557 0.63819,0.30175 0.93273,0.49855 0.29454,0.19681 0.56706,0.42046 0.81755,0.67095 0.25049,0.25048 0.47413,0.52299 0.67093,0.81753 0.19682,0.29455 0.363,0.60546 0.49856,0.93273 0.13557,0.32728 0.23791,0.66464 0.30701,1.01208 0.0691,0.34744 0.10367,0.69828 0.10368,1.05252 z"
       style="fill:none;stroke:#000000;stroke-width:0.21580119;stroke-linecap:butt;stroke-linejoin:miter;stroke-miterlimit:10;stroke-dasharray:none;stroke-opacity:1"
       id="path730" />
    <path
       d="m 134.89861,159.67896 c -1e-5,0.35424 -0.0346,0.70508 -0.10368,1.05252 -0.0691,0.34743 -0.17144,0.68479 -0.30701,1.01206 -0.13556,0.32728 -0.30174,0.63819 -0.49854,0.93273 -0.19681,0.29454 -0.42046,0.56706 -0.67094,0.81755 -0.25049,0.25048 -0.52301,0.47413 -0.81756,0.67093 -0.29454,0.19681 -0.60545,0.36299 -0.93273,0.49856 -0.32727,0.13557 -0.66464,0.2379 -1.01206,0.30701 -0.34744,0.0691 -0.69827,0.10367 -1.05251,0.10367 -0.35425,0 -0.70509,-0.0346 -1.05253,-0.10367 -0.34744,-0.0691 -0.6848,-0.17144 -1.01208,-0.30701 -0.32728,-0.13557 -0.63818,-0.30175 -0.93273,-0.49856 -0.29453,-0.1968 -0.56704,-0.42045 -0.81753,-0.67093 -0.25049,-0.25049 -0.47414,-0.52301 -0.67094,-0.81755 -0.19681,-0.29454 -0.36299,-0.60545 -0.49856,-0.93273 -0.13556,-0.32727 -0.2379,-0.66463 -0.307,-1.01206 -0.0691,-0.34744 -0.10367,-0.69828 -0.10366,-1.05252 -10e-6,-0.35424 0.0345,-0.70508 0.10366,-1.05252 0.0691,-0.34744 0.17144,-0.6848 0.307,-1.01208 0.13557,-0.32727 0.30175,-0.63818 0.49855,-0.93273 0.19681,-0.29454 0.42046,-0.56705 0.67095,-0.81753 0.25049,-0.25049 0.523,-0.47414 0.81754,-0.67095 0.29455,-0.1968 0.60545,-0.36298 0.93273,-0.49855 0.32728,-0.13556 0.66463,-0.2379 1.01207,-0.307 0.34744,-0.0691 0.69828,-0.10367 1.05253,-0.10367 0.35424,0 0.70507,0.0346 1.05251,0.10367 0.34742,0.0691 0.68479,0.17144 1.01206,0.307 0.32728,0.13557 0.63819,0.30175 0.93273,0.49855 0.29455,0.19681 0.56707,0.42046 0.81756,0.67095 0.25048,0.25048 0.47413,0.52299 0.67094,0.81753 0.1968,0.29455 0.36298,0.60546 0.49854,0.93273 0.13557,0.32728 0.23791,0.66464 0.30701,1.01208 0.0691,0.34744 0.10367,0.69828 0.10368,1.05252 z"
       style="fill:#ffffff;fill-opacity:1;fill-rule:nonzero;stroke:none;stroke-width:0.21580119"
       id="path732" />
    <path
       d="m 134.89861,159.67896 c -1e-5,0.35424 -0.0346,0.70508 -0.10368,1.05252 -0.0691,0.34743 -0.17144,0.68479 -0.30701,1.01206 -0.13556,0.32728 -0.30174,0.63819 -0.49854,0.93273 -0.19681,0.29454 -0.42046,0.56706 -0.67094,0.81755 -0.25049,0.25048 -0.52301,0.47413 -0.81756,0.67093 -0.29454,0.19681 -0.60545,0.36299 -0.93273,0.49856 -0.32727,0.13557 -0.66464,0.2379 -1.01206,0.30701 -0.34744,0.0691 -0.69827,0.10367 -1.05251,0.10367 -0.35425,0 -0.70509,-0.0346 -1.05253,-0.10367 -0.34744,-0.0691 -0.6848,-0.17144 -1.01208,-0.30701 -0.32728,-0.13557 -0.63818,-0.30175 -0.93273,-0.49856 -0.29453,-0.1968 -0.56704,-0.42045 -0.81753,-0.67093 -0.25049,-0.25049 -0.47414,-0.52301 -0.67094,-0.81755 -0.19681,-0.29454 -0.36299,-0.60545 -0.49856,-0.93273 -0.13556,-0.32727 -0.2379,-0.66463 -0.307,-1.01206 -0.0691,-0.34744 -0.10367,-0.69828 -0.10366,-1.05252 -10e-6,-0.35424 0.0345,-0.70508 0.10366,-1.05252 0.0691,-0.34744 0.17144,-0.6848 0.307,-1.01208 0.13557,-0.32727 0.30175,-0.63818 0.49855,-0.93273 0.19681,-0.29454 0.42046,-0.56705 0.67095,-0.81753 0.25049,-0.25049 0.523,-0.47414 0.81754,-0.67095 0.29455,-0.1968 0.60545,-0.36298 0.93273,-0.49855 0.32728,-0.13556 0.66463,-0.2379 1.01207,-0.307 0.34744,-0.0691 0.69828,-0.10367 1.05253,-0.10367 0.35424,0 0.70507,0.0346 1.05251,0.10367 0.34742,0.0691 0.68479,0.17144 1.01206,0.307 0.32728,0.13557 0.63819,0.30175 0.93273,0.49855 0.29455,0.19681 0.56707,0.42046 0.81756,0.67095 0.25048,0.25048 0.47413,0.52299 0.67094,0.81753 0.1968,0.29455 0.36298,0.60546 0.49854,0.93273 0.13557,0.32728 0.23791,0.66464 0.30701,1.01208 0.0691,0.34744 0.10367,0.69828 0.10368,1.05252 z"
       style="fill:none;stroke:#000000;stroke-width:0.21580119;stroke-linecap:butt;stroke-linejoin:miter;stroke-miterlimit:10;stroke-dasharray:none;stroke-opacity:1"
       id="path734" />
    <path
       d="m 63.684218,177.59046 c -1e-5,0.35424 -0.0346,0.70508 -0.10367,1.05251 -0.0691,0.34743 -0.17145,0.68479 -0.30701,1.01207 -0.13556,0.32728 -0.30175,0.63818 -0.49855,0.93273 -0.19681,0.29454 -0.42046,0.56705 -0.67094,0.81755 -0.25049,0.25049 -0.52301,0.47413 -0.81755,0.67093 -0.29454,0.1968 -0.60545,0.36299 -0.93273,0.49856 -0.32728,0.13556 -0.66464,0.2379 -1.01207,0.30701 -0.34743,0.0691 -0.69827,0.10367 -1.05251,0.10367 -0.35425,0 -0.70509,-0.0346 -1.05252,-0.10367 -0.34744,-0.0691 -0.6848,-0.17145 -1.01207,-0.30701 -0.32728,-0.13557 -0.63819,-0.30176 -0.93273,-0.49856 -0.29454,-0.19681 -0.56706,-0.42044 -0.81755,-0.67093 -0.25048,-0.2505 -0.47413,-0.52301 -0.67094,-0.81755 -0.19681,-0.29455 -0.36299,-0.60545 -0.49855,-0.93273 -0.13557,-0.32728 -0.2379,-0.66464 -0.30701,-1.01207 -0.0691,-0.34743 -0.10366,-0.69827 -0.10366,-1.05251 0,-0.35424 0.0346,-0.70508 0.10366,-1.05252 0.0691,-0.34744 0.17144,-0.6848 0.30701,-1.01208 0.13556,-0.32727 0.30174,-0.63819 0.49855,-0.93273 0.19681,-0.29454 0.42046,-0.56705 0.67094,-0.81754 0.25049,-0.25049 0.52301,-0.47413 0.81755,-0.67094 0.29454,-0.1968 0.60545,-0.36298 0.93273,-0.49855 0.32727,-0.13557 0.66463,-0.2379 1.01207,-0.30701 0.34743,-0.0691 0.69827,-0.10366 1.05252,-0.10366 0.35424,0 0.70508,0.0346 1.05251,0.10366 0.34743,0.0691 0.68479,0.17144 1.01207,0.30701 0.32728,0.13557 0.63819,0.30175 0.93273,0.49855 0.29454,0.19681 0.56706,0.42045 0.81755,0.67094 0.25048,0.25049 0.47413,0.523 0.67094,0.81754 0.1968,0.29454 0.36299,0.60546 0.49855,0.93273 0.13556,0.32728 0.2379,0.66464 0.30701,1.01208 0.0691,0.34744 0.10366,0.69828 0.10367,1.05252 z"
       style="fill:#cccccc;fill-opacity:1;fill-rule:nonzero;stroke:none;stroke-width:0.21580119"
       id="path736" />
    <path
       d="m 63.684218,177.59046 c -1e-5,0.35424 -0.0346,0.70508 -0.10367,1.05251 -0.0691,0.34743 -0.17145,0.68479 -0.30701,1.01207 -0.13556,0.32728 -0.30175,0.63818 -0.49855,0.93273 -0.19681,0.29454 -0.42046,0.56705 -0.67094,0.81755 -0.25049,0.25049 -0.52301,0.47413 -0.81755,0.67093 -0.29454,0.1968 -0.60545,0.36299 -0.93273,0.49856 -0.32728,0.13556 -0.66464,0.2379 -1.01207,0.30701 -0.34743,0.0691 -0.69827,0.10367 -1.05251,0.10367 -0.35425,0 -0.70509,-0.0346 -1.05252,-0.10367 -0.34744,-0.0691 -0.6848,-0.17145 -1.01207,-0.30701 -0.32728,-0.13557 -0.63819,-0.30176 -0.93273,-0.49856 -0.29454,-0.19681 -0.56706,-0.42044 -0.81755,-0.67093 -0.25048,-0.2505 -0.47413,-0.52301 -0.67094,-0.81755 -0.19681,-0.29455 -0.36299,-0.60545 -0.49855,-0.93273 -0.13557,-0.32728 -0.2379,-0.66464 -0.30701,-1.01207 -0.0691,-0.34743 -0.10366,-0.69827 -0.10366,-1.05251 0,-0.35424 0.0346,-0.70508 0.10366,-1.05252 0.0691,-0.34744 0.17144,-0.6848 0.30701,-1.01208 0.13556,-0.32727 0.30174,-0.63819 0.49855,-0.93273 0.19681,-0.29454 0.42046,-0.56705 0.67094,-0.81754 0.25049,-0.25049 0.52301,-0.47413 0.81755,-0.67094 0.29454,-0.1968 0.60545,-0.36298 0.93273,-0.49855 0.32727,-0.13557 0.66463,-0.2379 1.01207,-0.30701 0.34743,-0.0691 0.69827,-0.10366 1.05252,-0.10366 0.35424,0 0.70508,0.0346 1.05251,0.10366 0.34743,0.0691 0.68479,0.17144 1.01207,0.30701 0.32728,0.13557 0.63819,0.30175 0.93273,0.49855 0.29454,0.19681 0.56706,0.42045 0.81755,0.67094 0.25048,0.25049 0.47413,0.523 0.67094,0.81754 0.1968,0.29454 0.36299,0.60546 0.49855,0.93273 0.13556,0.32728 0.2379,0.66464 0.30701,1.01208 0.0691,0.34744 0.10366,0.69828 0.10367,1.05252 z"
       style="fill:none;stroke:#000000;stroke-width:0.21580119;stroke-linecap:butt;stroke-linejoin:miter;stroke-miterlimit:10;stroke-dasharray:none;stroke-opacity:1"
       id="path738" />
    <path
       d="m 80.948308,177.59046 c 0,0.35424 -0.0346,0.70508 -0.10367,1.05251 -0.0691,0.34743 -0.17144,0.68479 -0.307,1.01207 -0.13556,0.32728 -0.30175,0.63818 -0.49855,0.93273 -0.19681,0.29454 -0.42046,0.56705 -0.67094,0.81755 -0.25049,0.25049 -0.52301,0.47413 -0.81755,0.67093 -0.29454,0.1968 -0.60545,0.36299 -0.93273,0.49856 -0.32728,0.13556 -0.66464,0.2379 -1.01207,0.30701 -0.34744,0.0691 -0.69827,0.10367 -1.05252,0.10367 -0.35424,0 -0.70509,-0.0346 -1.05252,-0.10367 -0.34744,-0.0691 -0.68479,-0.17145 -1.01207,-0.30701 -0.32728,-0.13557 -0.63819,-0.30176 -0.93273,-0.49856 -0.29454,-0.19681 -0.56705,-0.42044 -0.81754,-0.67093 -0.25049,-0.2505 -0.47414,-0.52301 -0.67094,-0.81755 -0.19681,-0.29455 -0.36299,-0.60545 -0.49856,-0.93273 -0.13556,-0.32728 -0.23789,-0.66464 -0.307,-1.01207 -0.0691,-0.34743 -0.10367,-0.69827 -0.10367,-1.05251 0,-0.35424 0.0346,-0.70508 0.10367,-1.05252 0.0691,-0.34744 0.17144,-0.6848 0.307,-1.01208 0.13557,-0.32727 0.30175,-0.63819 0.49856,-0.93273 0.1968,-0.29454 0.42045,-0.56705 0.67094,-0.81754 0.25049,-0.25049 0.523,-0.47413 0.81754,-0.67094 0.29454,-0.1968 0.60545,-0.36298 0.93273,-0.49855 0.32728,-0.13557 0.66463,-0.2379 1.01207,-0.30701 0.34743,-0.0691 0.69828,-0.10366 1.05252,-0.10366 0.35425,0 0.70508,0.0346 1.05252,0.10366 0.34743,0.0691 0.68479,0.17144 1.01207,0.30701 0.32728,0.13557 0.63819,0.30175 0.93273,0.49855 0.29454,0.19681 0.56706,0.42045 0.81755,0.67094 0.25048,0.25049 0.47413,0.523 0.67094,0.81754 0.1968,0.29454 0.36298,0.60546 0.49855,0.93273 0.13556,0.32728 0.2379,0.66464 0.307,1.01208 0.0691,0.34744 0.10367,0.69828 0.10367,1.05252 z"
       style="fill:#cccccc;fill-opacity:1;fill-rule:nonzero;stroke:none;stroke-width:0.21580119"
       id="path740" />
    <path
       d="m 80.948308,177.59046 c 0,0.35424 -0.0346,0.70508 -0.10367,1.05251 -0.0691,0.34743 -0.17144,0.68479 -0.307,1.01207 -0.13556,0.32728 -0.30175,0.63818 -0.49855,0.93273 -0.19681,0.29454 -0.42046,0.56705 -0.67094,0.81755 -0.25049,0.25049 -0.52301,0.47413 -0.81755,0.67093 -0.29454,0.1968 -0.60545,0.36299 -0.93273,0.49856 -0.32728,0.13556 -0.66464,0.2379 -1.01207,0.30701 -0.34744,0.0691 -0.69827,0.10367 -1.05252,0.10367 -0.35424,0 -0.70509,-0.0346 -1.05252,-0.10367 -0.34744,-0.0691 -0.68479,-0.17145 -1.01207,-0.30701 -0.32728,-0.13557 -0.63819,-0.30176 -0.93273,-0.49856 -0.29454,-0.19681 -0.56705,-0.42044 -0.81754,-0.67093 -0.25049,-0.2505 -0.47414,-0.52301 -0.67094,-0.81755 -0.19681,-0.29455 -0.36299,-0.60545 -0.49856,-0.93273 -0.13556,-0.32728 -0.23789,-0.66464 -0.307,-1.01207 -0.0691,-0.34743 -0.10367,-0.69827 -0.10367,-1.05251 0,-0.35424 0.0346,-0.70508 0.10367,-1.05252 0.0691,-0.34744 0.17144,-0.6848 0.307,-1.01208 0.13557,-0.32727 0.30175,-0.63819 0.49856,-0.93273 0.1968,-0.29454 0.42045,-0.56705 0.67094,-0.81754 0.25049,-0.25049 0.523,-0.47413 0.81754,-0.67094 0.29454,-0.1968 0.60545,-0.36298 0.93273,-0.49855 0.32728,-0.13557 0.66463,-0.2379 1.01207,-0.30701 0.34743,-0.0691 0.69828,-0.10366 1.05252,-0.10366 0.35425,0 0.70508,0.0346 1.05252,0.10366 0.34743,0.0691 0.68479,0.17144 1.01207,0.30701 0.32728,0.13557 0.63819,0.30175 0.93273,0.49855 0.29454,0.19681 0.56706,0.42045 0.81755,0.67094 0.25048,0.25049 0.47413,0.523 0.67094,0.81754 0.1968,0.29454 0.36298,0.60546 0.49855,0.93273 0.13556,0.32728 0.2379,0.66464 0.307,1.01208 0.0691,0.34744 0.10367,0.69828 0.10367,1.05252 z"
       style="fill:none;stroke:#000000;stroke-width:0.21580119;stroke-linecap:butt;stroke-linejoin:miter;stroke-miterlimit:10;stroke-dasharray:none;stroke-opacity:1"
       id="path742" />
    <path
       d="m 82.665008,126.66138 -20.28531,11.22166"
       style="fill:none;stroke:#000000;stroke-width:0.21580119;stroke-linecap:butt;stroke-linejoin:miter;stroke-miterlimit:10;stroke-dasharray:none;stroke-opacity:1"
       id="path744" />
    <path
       d="m 92.160258,126.66138 20.501112,11.22166"
       style="fill:none;stroke:#000000;stroke-width:0.21580119;stroke-linecap:butt;stroke-linejoin:miter;stroke-miterlimit:10;stroke-dasharray:none;stroke-opacity:1"
       id="path746" />
    <path
       d="m 87.412638,129.251 v 7.1345"
       style="fill:none;stroke:#000000;stroke-width:0.21580119;stroke-linecap:butt;stroke-linejoin:miter;stroke-miterlimit:10;stroke-dasharray:none;stroke-opacity:1"
       id="path748" />
    <path
       d="m 55.689858,146.51509 -4.31602,8.41625"
       style="fill:none;stroke:#000000;stroke-width:0.21580119;stroke-linecap:butt;stroke-linejoin:miter;stroke-miterlimit:10;stroke-dasharray:none;stroke-opacity:1"
       id="path750" />
    <path
       d="m 60.869088,146.51509 4.10022,8.41625"
       style="fill:none;stroke:#000000;stroke-width:0.21580119;stroke-linecap:butt;stroke-linejoin:miter;stroke-miterlimit:10;stroke-dasharray:none;stroke-opacity:1"
       id="path752" />
    <path
       d="m 64.106108,164.42659 -4.31603,8.41625"
       style="fill:none;stroke:#000000;stroke-width:0.21580119;stroke-linecap:butt;stroke-linejoin:miter;stroke-miterlimit:10;stroke-dasharray:none;stroke-opacity:1"
       id="path754" />
    <path
       d="m 69.285338,164.42659 4.10022,8.41625"
       style="fill:none;stroke:#000000;stroke-width:0.21580119;stroke-linecap:butt;stroke-linejoin:miter;stroke-miterlimit:10;stroke-dasharray:none;stroke-opacity:1"
       id="path756" />
    <path
       d="m 116.54579,146.94669 v 7.13451"
       style="fill:none;stroke:#000000;stroke-width:0.21580119;stroke-linecap:butt;stroke-linejoin:miter;stroke-miterlimit:10;stroke-dasharray:none;stroke-opacity:1"
       id="path758" />
    <path
       d="m 113.52458,146.29929 -6.89593,8.63205"
       style="fill:none;stroke:#000000;stroke-width:0.21580119;stroke-linecap:butt;stroke-linejoin:miter;stroke-miterlimit:10;stroke-dasharray:none;stroke-opacity:1"
       id="path760" />
    <path
       d="m 119.78281,146.08349 6.90564,8.84785"
       style="fill:none;stroke:#000000;stroke-width:0.21580119;stroke-linecap:butt;stroke-linejoin:miter;stroke-miterlimit:10;stroke-dasharray:none;stroke-opacity:1"
       id="path762" />
    <g
       id="g974"
       transform="matrix(-0.18195336,0.11603073,-0.11603073,-0.18195336,108.45911,157.65385)">
      <path
         d="m 125.83487,191.80283 -13.85162,-13.70562 24.90565,13.70562 -24.90566,13.70559 13.85161,-13.70559 z"
         style="fill:#000000;fill-opacity:1;fill-rule:nonzero;stroke:none"
         id="path976" />
      <path
         d="m 125.83487,191.80283 -13.85162,-13.70562 24.90565,13.70562 -24.90566,13.70559 13.85161,-13.70559 z"
         style="fill:none;stroke:#000000;stroke-width:1;stroke-linecap:butt;stroke-linejoin:miter;stroke-miterlimit:10;stroke-dasharray:none;stroke-opacity:1"
         id="path978" />
    </g>
    <g
       id="g1034"
       transform="matrix(0.10299903,0.18963479,-0.18963479,0.10299903,101.1549,101.72223)">
      <path
         d="m 127.65587,264.7392 -13.85162,-13.70562 24.90565,13.70562 -24.90566,13.70559 13.85161,-13.70559 z"
         style="fill:#000000;fill-opacity:1;fill-rule:nonzero;stroke:none"
         id="path1036" />
      <path
         d="m 127.65587,264.7392 -13.85162,-13.70562 24.90565,13.70562 -24.90566,13.70559 13.85161,-13.70559 z"
         style="fill:none;stroke:#000000;stroke-width:1;stroke-linecap:butt;stroke-linejoin:miter;stroke-miterlimit:10;stroke-dasharray:none;stroke-opacity:1"
         id="path1038" />
    </g>
    <g
       id="g1040"
       transform="matrix(0.10299903,0.18963479,-0.18963479,0.10299903,121.1519,103.57113)">
      <path
         d="m 166.78624,346.91296 -13.85162,-13.70559 24.90565,13.70559 -24.90565,13.7056 z"
         style="fill:#000000;fill-opacity:1;fill-rule:nonzero;stroke:none"
         id="path1042" />
      <path
         d="m 166.78624,346.91296 -13.85162,-13.70559 24.90565,13.70559 -24.90565,13.7056 z"
         style="fill:none;stroke:#000000;stroke-width:1;stroke-linecap:butt;stroke-linejoin:miter;stroke-miterlimit:10;stroke-dasharray:none;stroke-opacity:1"
         id="path1044" />
    </g>
  </g>
</svg>
