<?xml version="1.0" encoding="UTF-8" standalone="no"?>
<svg
   xmlns:dc="http://purl.org/dc/elements/1.1/"
   xmlns:cc="http://creativecommons.org/ns#"
   xmlns:rdf="http://www.w3.org/1999/02/22-rdf-syntax-ns#"
   xmlns:svg="http://www.w3.org/2000/svg"
   xmlns="http://www.w3.org/2000/svg"
   id="svg1962"
   version="1.1"
   viewBox="0 0 90.852303 109.54692"
   height="109.54692mm"
   width="90.852303mm">
<rect width="100%" height="100%" fill="rgba(255, 255, 255, 0.5)" />
  <defs
     id="defs1956" />
  <metadata
     id="metadata1959">
    <rdf:RDF>
      <cc:Work
         rdf:about="">
        <dc:format>image/svg+xml</dc:format>
        <dc:type
           rdf:resource="http://purl.org/dc/dcmitype/StillImage" />
        <dc:title></dc:title>
      </cc:Work>
    </rdf:RDF>
  </metadata>
  <g
     transform="translate(-55.119697,-135.44827)"
     id="layer1">
    <path
       d="m 103.78286,140.9512 c 0,0.35425 -0.0345,0.70508 -0.10367,1.05251 -0.0691,0.34742 -0.17144,0.68478 -0.307,1.01206 -0.13557,0.32728 -0.30175,0.63819 -0.49855,0.93274 -0.19681,0.29453 -0.42046,0.56705 -0.67094,0.81754 -0.25049,0.25048 -0.52301,0.47413 -0.81755,0.67094 -0.29455,0.19681 -0.60545,0.363 -0.93273,0.49856 -0.32728,0.13557 -0.664637,0.2379 -1.012069,0.307 -0.347435,0.0691 -0.69827,0.10368 -1.052515,0.10368 -0.354245,0 -0.705088,-0.0346 -1.05252,-0.10368 -0.347438,-0.0691 -0.684795,-0.17143 -1.012074,-0.307 -0.327276,-0.13556 -0.638186,-0.30175 -0.932722,-0.49854 -0.294543,-0.19683 -0.567061,-0.42048 -0.817547,-0.67096 -0.250489,-0.25049 -0.474136,-0.52301 -0.670941,-0.81754 -0.19681,-0.29455 -0.362995,-0.60546 -0.498557,-0.93274 -0.135565,-0.32728 -0.237903,-0.66464 -0.307009,-1.01206 -0.06911,-0.34743 -0.103659,-0.69826 -0.103659,-1.05251 0,-0.35424 0.03455,-0.70509 0.103659,-1.05253 0.06911,-0.34744 0.171444,-0.6848 0.307009,-1.01208 0.135562,-0.32727 0.301747,-0.63819 0.498554,-0.93274 0.196808,-0.29452 0.420455,-0.56704 0.670944,-0.81752 0.250486,-0.25049 0.522999,-0.47414 0.817541,-0.67093 0.294542,-0.19682 0.605452,-0.36301 0.932728,-0.49857 0.327279,-0.13555 0.664636,-0.23789 1.012068,-0.307 0.347438,-0.0691 0.698281,-0.10366 1.052526,-0.10366 0.354245,0 0.705078,0.0345 1.052512,0.10366 0.347435,0.0691 0.684792,0.17145 1.012072,0.307 0.32728,0.13556 0.63819,0.30175 0.93273,0.49855 0.29454,0.19681 0.56706,0.42046 0.81755,0.67095 0.25048,0.25048 0.47413,0.523 0.67093,0.81752 0.19681,0.29455 0.36299,0.60547 0.49856,0.93274 0.13556,0.32728 0.23789,0.66464 0.307,1.01208 0.0691,0.34744 0.10367,0.69829 0.10367,1.05253 z"
       style="fill:#ffffff;fill-opacity:1;fill-rule:nonzero;stroke:none;stroke-width:0.21580119"
       id="path834" />
    <path
       d="m 103.78286,140.9512 c 0,0.35425 -0.0345,0.70508 -0.10367,1.05251 -0.0691,0.34742 -0.17144,0.68478 -0.307,1.01206 -0.13557,0.32728 -0.30175,0.63819 -0.49855,0.93274 -0.19681,0.29453 -0.42046,0.56705 -0.67094,0.81754 -0.25049,0.25048 -0.52301,0.47413 -0.81755,0.67094 -0.29455,0.19681 -0.60545,0.363 -0.93273,0.49856 -0.32728,0.13557 -0.664637,0.2379 -1.012069,0.307 -0.347435,0.0691 -0.69827,0.10368 -1.052515,0.10368 -0.354245,0 -0.705088,-0.0346 -1.05252,-0.10368 -0.347438,-0.0691 -0.684795,-0.17143 -1.012074,-0.307 -0.327276,-0.13556 -0.638186,-0.30175 -0.932722,-0.49854 -0.294543,-0.19683 -0.567061,-0.42048 -0.817547,-0.67096 -0.250489,-0.25049 -0.474136,-0.52301 -0.670941,-0.81754 -0.19681,-0.29455 -0.362995,-0.60546 -0.498557,-0.93274 -0.135565,-0.32728 -0.237903,-0.66464 -0.307009,-1.01206 -0.06911,-0.34743 -0.103659,-0.69826 -0.103659,-1.05251 0,-0.35424 0.03455,-0.70509 0.103659,-1.05253 0.06911,-0.34744 0.171444,-0.6848 0.307009,-1.01208 0.135562,-0.32727 0.301747,-0.63819 0.498554,-0.93274 0.196808,-0.29452 0.420455,-0.56704 0.670944,-0.81752 0.250486,-0.25049 0.522999,-0.47414 0.817541,-0.67093 0.294542,-0.19682 0.605452,-0.36301 0.932728,-0.49857 0.327279,-0.13555 0.664636,-0.23789 1.012068,-0.307 0.347438,-0.0691 0.698281,-0.10366 1.052526,-0.10366 0.354245,0 0.705078,0.0345 1.052512,0.10366 0.347435,0.0691 0.684792,0.17145 1.012072,0.307 0.32728,0.13556 0.63819,0.30175 0.93273,0.49855 0.29454,0.19681 0.56706,0.42046 0.81755,0.67095 0.25048,0.25048 0.47413,0.523 0.67093,0.81752 0.19681,0.29455 0.36299,0.60547 0.49856,0.93274 0.13556,0.32728 0.23789,0.66464 0.307,1.01208 0.0691,0.34744 0.10367,0.69829 0.10367,1.05253 z"
       style="fill:none;stroke:#000000;stroke-width:0.21580119;stroke-linecap:butt;stroke-linejoin:miter;stroke-miterlimit:10;stroke-dasharray:none;stroke-opacity:1"
       id="path836" />
    <path
       d="m 74.649704,158.8627 c -2e-6,0.35423 -0.03456,0.70507 -0.103668,1.0525 -0.06911,0.34744 -0.171446,0.6848 -0.307008,1.01207 -0.135562,0.32727 -0.301746,0.63819 -0.498552,0.93274 -0.196807,0.29454 -0.420455,0.56706 -0.670939,0.81754 -0.250489,0.25048 -0.523005,0.47413 -0.817546,0.67093 -0.294542,0.19681 -0.605454,0.36299 -0.932731,0.49855 -0.327278,0.13556 -0.664633,0.2379 -1.012069,0.30702 -0.347436,0.0691 -0.698274,0.10367 -1.052516,0.10368 -0.354243,-1e-5 -0.705083,-0.0346 -1.052522,-0.10368 -0.347435,-0.0691 -0.684792,-0.17146 -1.01207,-0.30701 -0.327276,-0.13557 -0.638185,-0.30175 -0.932727,-0.49856 -0.294542,-0.1968 -0.567056,-0.42045 -0.817544,-0.67093 -0.250487,-0.25048 -0.474134,-0.523 -0.670942,-0.81754 -0.196807,-0.29455 -0.362991,-0.60547 -0.498553,-0.93274 -0.135564,-0.32727 -0.2379,-0.66463 -0.307007,-1.01207 -0.06911,-0.34743 -0.103664,-0.69827 -0.103664,-1.0525 0,-0.35424 0.03455,-0.70508 0.103664,-1.05253 0.06911,-0.34745 0.171443,-0.68481 0.307007,-1.01208 0.135562,-0.32729 0.301746,-0.6382 0.498553,-0.93274 0.196808,-0.29454 0.420455,-0.56704 0.670942,-0.81753 0.250488,-0.25049 0.523002,-0.47414 0.817544,-0.67096 0.294542,-0.1968 0.605451,-0.36298 0.932729,-0.49854 0.327276,-0.13556 0.664633,-0.23789 1.01207,-0.30699 0.347437,-0.0691 0.698277,-0.10366 1.05252,-0.10366 0.354242,0 0.70508,0.0345 1.052516,0.10366 0.347436,0.0691 0.684791,0.17143 1.012069,0.30699 0.327277,0.13556 0.638189,0.30174 0.932731,0.49855 0.294541,0.19681 0.567057,0.42046 0.817546,0.67095 0.250484,0.25049 0.474132,0.52299 0.670939,0.81753 0.196806,0.29454 0.36299,0.60545 0.498552,0.93274 0.135562,0.32727 0.237899,0.66463 0.30701,1.01208 0.06911,0.34745 0.103664,0.69829 0.103666,1.05253 z"
       style="fill:#cccccc;fill-opacity:1;fill-rule:nonzero;stroke:none;stroke-width:0.21580119"
       id="path838" />
    <path
       d="m 74.649704,158.8627 c -2e-6,0.35423 -0.03456,0.70507 -0.103668,1.0525 -0.06911,0.34744 -0.171446,0.6848 -0.307008,1.01207 -0.135562,0.32727 -0.301746,0.63819 -0.498552,0.93274 -0.196807,0.29454 -0.420455,0.56706 -0.670939,0.81754 -0.250489,0.25048 -0.523005,0.47413 -0.817546,0.67093 -0.294542,0.19681 -0.605454,0.36299 -0.932731,0.49855 -0.327278,0.13556 -0.664633,0.2379 -1.012069,0.30702 -0.347436,0.0691 -0.698274,0.10367 -1.052516,0.10368 -0.354243,-1e-5 -0.705083,-0.0346 -1.052522,-0.10368 -0.347435,-0.0691 -0.684792,-0.17146 -1.01207,-0.30701 -0.327276,-0.13557 -0.638185,-0.30175 -0.932727,-0.49856 -0.294542,-0.1968 -0.567056,-0.42045 -0.817544,-0.67093 -0.250487,-0.25048 -0.474134,-0.523 -0.670942,-0.81754 -0.196807,-0.29455 -0.362991,-0.60547 -0.498553,-0.93274 -0.135564,-0.32727 -0.2379,-0.66463 -0.307007,-1.01207 -0.06911,-0.34743 -0.103664,-0.69827 -0.103664,-1.0525 0,-0.35424 0.03455,-0.70508 0.103664,-1.05253 0.06911,-0.34745 0.171443,-0.68481 0.307007,-1.01208 0.135562,-0.32729 0.301746,-0.6382 0.498553,-0.93274 0.196808,-0.29454 0.420455,-0.56704 0.670942,-0.81753 0.250488,-0.25049 0.523002,-0.47414 0.817544,-0.67096 0.294542,-0.1968 0.605451,-0.36298 0.932729,-0.49854 0.327276,-0.13556 0.664633,-0.23789 1.01207,-0.30699 0.347437,-0.0691 0.698277,-0.10366 1.05252,-0.10366 0.354242,0 0.70508,0.0345 1.052516,0.10366 0.347436,0.0691 0.684791,0.17143 1.012069,0.30699 0.327277,0.13556 0.638189,0.30174 0.932731,0.49855 0.294541,0.19681 0.567057,0.42046 0.817546,0.67095 0.250484,0.25049 0.474132,0.52299 0.670939,0.81753 0.196806,0.29454 0.36299,0.60545 0.498552,0.93274 0.135562,0.32727 0.237899,0.66463 0.30701,1.01208 0.06911,0.34745 0.103664,0.69829 0.103666,1.05253 z"
       style="fill:none;stroke:#000000;stroke-width:0.21580119;stroke-linecap:butt;stroke-linejoin:miter;stroke-miterlimit:10;stroke-dasharray:none;stroke-opacity:1"
       id="path840" />
    <path
       d="m 103.78286,158.8627 c 0,0.35423 -0.0345,0.70507 -0.10367,1.0525 -0.0691,0.34744 -0.17144,0.6848 -0.307,1.01207 -0.13557,0.32727 -0.30175,0.63819 -0.49855,0.93274 -0.19681,0.29454 -0.42046,0.56706 -0.67094,0.81754 -0.25049,0.25048 -0.52301,0.47413 -0.81755,0.67093 -0.29455,0.19681 -0.60545,0.36299 -0.93273,0.49855 -0.32728,0.13556 -0.664637,0.2379 -1.012069,0.30702 -0.347435,0.0691 -0.69827,0.10367 -1.052515,0.10368 -0.354245,-1e-5 -0.705088,-0.0346 -1.05252,-0.10368 -0.347438,-0.0691 -0.684795,-0.17146 -1.012074,-0.30701 -0.327276,-0.13557 -0.638186,-0.30175 -0.932722,-0.49856 -0.294543,-0.1968 -0.567061,-0.42045 -0.817547,-0.67093 -0.250489,-0.25048 -0.474136,-0.523 -0.670941,-0.81754 -0.19681,-0.29455 -0.362995,-0.60547 -0.498557,-0.93274 -0.135565,-0.32727 -0.237903,-0.66463 -0.307009,-1.01207 -0.06911,-0.34743 -0.103659,-0.69827 -0.103659,-1.0525 0,-0.35424 0.03455,-0.70508 0.103659,-1.05253 0.06911,-0.34745 0.171444,-0.68481 0.307009,-1.01208 0.135562,-0.32729 0.301747,-0.6382 0.498554,-0.93274 0.196808,-0.29454 0.420455,-0.56704 0.670944,-0.81753 0.250486,-0.25049 0.522999,-0.47414 0.817541,-0.67096 0.294542,-0.1968 0.605452,-0.36298 0.932728,-0.49854 0.327279,-0.13556 0.664636,-0.23789 1.012068,-0.30699 0.347438,-0.0691 0.698281,-0.10366 1.052526,-0.10366 0.354245,0 0.705078,0.0345 1.052512,0.10366 0.347435,0.0691 0.684792,0.17143 1.012072,0.30699 0.32728,0.13556 0.63819,0.30174 0.93273,0.49855 0.29454,0.19681 0.56706,0.42046 0.81755,0.67095 0.25048,0.25049 0.47413,0.52299 0.67093,0.81753 0.19681,0.29454 0.36299,0.60545 0.49856,0.93274 0.13556,0.32727 0.23789,0.66463 0.307,1.01208 0.0691,0.34745 0.10367,0.69829 0.10367,1.05253 z"
       style="fill:#cccccc;fill-opacity:1;fill-rule:nonzero;stroke:none;stroke-width:0.21580119"
       id="path842" />
    <path
       d="m 103.78286,158.8627 c 0,0.35423 -0.0345,0.70507 -0.10367,1.0525 -0.0691,0.34744 -0.17144,0.6848 -0.307,1.01207 -0.13557,0.32727 -0.30175,0.63819 -0.49855,0.93274 -0.19681,0.29454 -0.42046,0.56706 -0.67094,0.81754 -0.25049,0.25048 -0.52301,0.47413 -0.81755,0.67093 -0.29455,0.19681 -0.60545,0.36299 -0.93273,0.49855 -0.32728,0.13556 -0.664637,0.2379 -1.012069,0.30702 -0.347435,0.0691 -0.69827,0.10367 -1.052515,0.10368 -0.354245,-1e-5 -0.705088,-0.0346 -1.05252,-0.10368 -0.347438,-0.0691 -0.684795,-0.17146 -1.012074,-0.30701 -0.327276,-0.13557 -0.638186,-0.30175 -0.932722,-0.49856 -0.294543,-0.1968 -0.567061,-0.42045 -0.817547,-0.67093 -0.250489,-0.25048 -0.474136,-0.523 -0.670941,-0.81754 -0.19681,-0.29455 -0.362995,-0.60547 -0.498557,-0.93274 -0.135565,-0.32727 -0.237903,-0.66463 -0.307009,-1.01207 -0.06911,-0.34743 -0.103659,-0.69827 -0.103659,-1.0525 0,-0.35424 0.03455,-0.70508 0.103659,-1.05253 0.06911,-0.34745 0.171444,-0.68481 0.307009,-1.01208 0.135562,-0.32729 0.301747,-0.6382 0.498554,-0.93274 0.196808,-0.29454 0.420455,-0.56704 0.670944,-0.81753 0.250486,-0.25049 0.522999,-0.47414 0.817541,-0.67096 0.294542,-0.1968 0.605452,-0.36298 0.932728,-0.49854 0.327279,-0.13556 0.664636,-0.23789 1.012068,-0.30699 0.347438,-0.0691 0.698281,-0.10366 1.052526,-0.10366 0.354245,0 0.705078,0.0345 1.052512,0.10366 0.347435,0.0691 0.684792,0.17143 1.012072,0.30699 0.32728,0.13556 0.63819,0.30174 0.93273,0.49855 0.29454,0.19681 0.56706,0.42046 0.81755,0.67095 0.25048,0.25049 0.47413,0.52299 0.67093,0.81753 0.19681,0.29454 0.36299,0.60545 0.49856,0.93274 0.13556,0.32727 0.23789,0.66463 0.307,1.01208 0.0691,0.34745 0.10367,0.69829 0.10367,1.05253 z"
       style="fill:none;stroke:#000000;stroke-width:0.21580119;stroke-linecap:butt;stroke-linejoin:miter;stroke-miterlimit:10;stroke-dasharray:none;stroke-opacity:1"
       id="path844" />
    <path
       d="m 132.91603,158.8627 c -1e-5,0.35423 -0.0346,0.70507 -0.10368,1.0525 -0.0691,0.34744 -0.17144,0.6848 -0.30701,1.01207 -0.13556,0.32727 -0.30175,0.63819 -0.49856,0.93274 -0.1968,0.29454 -0.42045,0.56706 -0.67093,0.81754 -0.25049,0.25048 -0.523,0.47413 -0.81755,0.67093 -0.29454,0.19681 -0.60545,0.36299 -0.93273,0.49855 -0.32727,0.13556 -0.66463,0.2379 -1.01207,0.30702 -0.34743,0.0691 -0.69826,0.10367 -1.0525,0.10368 -0.35424,-1e-5 -0.70508,-0.0346 -1.05252,-0.10368 -0.34745,-0.0691 -0.6848,-0.17146 -1.01208,-0.30701 -0.32728,-0.13557 -0.63819,-0.30175 -0.93273,-0.49856 -0.29454,-0.1968 -0.56705,-0.42045 -0.81754,-0.67093 -0.25048,-0.25048 -0.47414,-0.523 -0.67095,-0.81754 -0.19681,-0.29455 -0.36299,-0.60547 -0.49855,-0.93274 -0.13557,-0.32727 -0.23791,-0.66463 -0.30701,-1.01207 -0.0691,-0.34743 -0.10366,-0.69827 -0.10365,-1.0525 -10e-6,-0.35424 0.0346,-0.70508 0.10366,-1.05253 0.0691,-0.34745 0.17143,-0.68481 0.307,-1.01208 0.13556,-0.32729 0.30174,-0.6382 0.49856,-0.93274 0.1968,-0.29454 0.42046,-0.56704 0.67094,-0.81753 0.25049,-0.25049 0.523,-0.47414 0.81755,-0.67096 0.29453,-0.1968 0.60544,-0.36298 0.93272,-0.49854 0.32728,-0.13556 0.66463,-0.23789 1.01208,-0.30699 0.34744,-0.0691 0.69828,-0.10366 1.05252,-0.10366 0.35424,0 0.70507,0.0345 1.0525,0.10366 0.34744,0.0691 0.6848,0.17143 1.01207,0.30699 0.32728,0.13556 0.63819,0.30174 0.93273,0.49855 0.29455,0.19681 0.56706,0.42046 0.81755,0.67095 0.25048,0.25049 0.47413,0.52299 0.67093,0.81753 0.19681,0.29454 0.363,0.60545 0.49856,0.93274 0.13557,0.32727 0.2379,0.66463 0.30701,1.01208 0.0691,0.34745 0.10367,0.69829 0.10368,1.05253 z"
       style="fill:#cccccc;fill-opacity:1;fill-rule:nonzero;stroke:none;stroke-width:0.21580119"
       id="path846" />
    <path
       d="m 132.91603,158.8627 c -1e-5,0.35423 -0.0346,0.70507 -0.10368,1.0525 -0.0691,0.34744 -0.17144,0.6848 -0.30701,1.01207 -0.13556,0.32727 -0.30175,0.63819 -0.49856,0.93274 -0.1968,0.29454 -0.42045,0.56706 -0.67093,0.81754 -0.25049,0.25048 -0.523,0.47413 -0.81755,0.67093 -0.29454,0.19681 -0.60545,0.36299 -0.93273,0.49855 -0.32727,0.13556 -0.66463,0.2379 -1.01207,0.30702 -0.34743,0.0691 -0.69826,0.10367 -1.0525,0.10368 -0.35424,-1e-5 -0.70508,-0.0346 -1.05252,-0.10368 -0.34745,-0.0691 -0.6848,-0.17146 -1.01208,-0.30701 -0.32728,-0.13557 -0.63819,-0.30175 -0.93273,-0.49856 -0.29454,-0.1968 -0.56705,-0.42045 -0.81754,-0.67093 -0.25048,-0.25048 -0.47414,-0.523 -0.67095,-0.81754 -0.19681,-0.29455 -0.36299,-0.60547 -0.49855,-0.93274 -0.13557,-0.32727 -0.23791,-0.66463 -0.30701,-1.01207 -0.0691,-0.34743 -0.10366,-0.69827 -0.10365,-1.0525 -10e-6,-0.35424 0.0346,-0.70508 0.10366,-1.05253 0.0691,-0.34745 0.17143,-0.68481 0.307,-1.01208 0.13556,-0.32729 0.30174,-0.6382 0.49856,-0.93274 0.1968,-0.29454 0.42046,-0.56704 0.67094,-0.81753 0.25049,-0.25049 0.523,-0.47414 0.81755,-0.67096 0.29453,-0.1968 0.60544,-0.36298 0.93272,-0.49854 0.32728,-0.13556 0.66463,-0.23789 1.01208,-0.30699 0.34744,-0.0691 0.69828,-0.10366 1.05252,-0.10366 0.35424,0 0.70507,0.0345 1.0525,0.10366 0.34744,0.0691 0.6848,0.17143 1.01207,0.30699 0.32728,0.13556 0.63819,0.30174 0.93273,0.49855 0.29455,0.19681 0.56706,0.42046 0.81755,0.67095 0.25048,0.25049 0.47413,0.52299 0.67093,0.81753 0.19681,0.29454 0.363,0.60545 0.49856,0.93274 0.13557,0.32727 0.2379,0.66463 0.30701,1.01208 0.0691,0.34745 0.10367,0.69829 0.10368,1.05253 z"
       style="fill:none;stroke:#000000;stroke-width:0.21580119;stroke-linecap:butt;stroke-linejoin:miter;stroke-miterlimit:10;stroke-dasharray:none;stroke-opacity:1"
       id="path848" />
    <path
       d="m 66.017657,176.7742 c -2e-6,0.35425 -0.03456,0.70508 -0.103666,1.0525 -0.06911,0.34743 -0.171446,0.68479 -0.307009,1.01206 -0.135563,0.32727 -0.301748,0.63818 -0.498554,0.93274 -0.196806,0.29454 -0.420454,0.56706 -0.670941,0.81754 -0.250488,0.25048 -0.523002,0.47413 -0.817544,0.67092 -0.294542,0.1968 -0.605452,0.36298 -0.93273,0.49856 -0.327276,0.13556 -0.664632,0.2379 -1.012067,0.30702 -0.347436,0.0691 -0.698276,0.10368 -1.052518,0.10369 -0.354243,-1e-5 -0.705083,-0.0346 -1.052519,-0.10369 -0.347436,-0.0691 -0.684794,-0.17146 -1.01207,-0.30702 -0.327277,-0.13558 -0.638187,-0.30175 -0.93273,-0.49854 -0.294542,-0.19681 -0.567057,-0.42046 -0.817544,-0.67094 -0.250488,-0.25048 -0.474135,-0.523 -0.670942,-0.81754 -0.196807,-0.29456 -0.362991,-0.60547 -0.498554,-0.93274 -0.135562,-0.32727 -0.237898,-0.66463 -0.307007,-1.01206 -0.06911,-0.34742 -0.103665,-0.69825 -0.103664,-1.0525 -10e-7,-0.35425 0.03455,-0.7051 0.103664,-1.05254 0.06911,-0.34744 0.171445,-0.6848 0.307007,-1.01207 0.135563,-0.32727 0.301747,-0.63819 0.498554,-0.93271 0.196807,-0.29454 0.420454,-0.56706 0.670942,-0.81754 0.250487,-0.2505 0.523002,-0.47415 0.817544,-0.67096 0.294543,-0.19679 0.605453,-0.36298 0.93273,-0.49855 0.327276,-0.13556 0.664634,-0.23789 1.01207,-0.307 0.347436,-0.0691 0.698276,-0.10366 1.052519,-0.10366 0.354242,0 0.705082,0.0346 1.052518,0.10367 0.347435,0.0691 0.684791,0.17143 1.012067,0.30699 0.327278,0.13557 0.638187,0.30176 0.932728,0.49857 0.294542,0.19679 0.567058,0.42044 0.817546,0.67094 0.250487,0.25048 0.474135,0.523 0.670941,0.81752 0.196806,0.29454 0.362991,0.60546 0.498554,0.93273 0.135563,0.32727 0.2379,0.66463 0.307009,1.01207 0.06911,0.34744 0.103664,0.69829 0.103666,1.05254 z"
       style="fill:#ffffff;fill-opacity:1;fill-rule:nonzero;stroke:none;stroke-width:0.21580119"
       id="path850" />
    <path
       d="m 66.017657,176.7742 c -2e-6,0.35425 -0.03456,0.70508 -0.103666,1.0525 -0.06911,0.34743 -0.171446,0.68479 -0.307009,1.01206 -0.135563,0.32727 -0.301748,0.63818 -0.498554,0.93274 -0.196806,0.29454 -0.420454,0.56706 -0.670941,0.81754 -0.250488,0.25048 -0.523002,0.47413 -0.817544,0.67092 -0.294542,0.1968 -0.605452,0.36298 -0.93273,0.49856 -0.327276,0.13556 -0.664632,0.2379 -1.012067,0.30702 -0.347436,0.0691 -0.698276,0.10368 -1.052518,0.10369 -0.354243,-1e-5 -0.705083,-0.0346 -1.052519,-0.10369 -0.347436,-0.0691 -0.684794,-0.17146 -1.01207,-0.30702 -0.327277,-0.13558 -0.638187,-0.30175 -0.93273,-0.49854 -0.294542,-0.19681 -0.567057,-0.42046 -0.817544,-0.67094 -0.250488,-0.25048 -0.474135,-0.523 -0.670942,-0.81754 -0.196807,-0.29456 -0.362991,-0.60547 -0.498554,-0.93274 -0.135562,-0.32727 -0.237898,-0.66463 -0.307007,-1.01206 -0.06911,-0.34742 -0.103665,-0.69825 -0.103664,-1.0525 -10e-7,-0.35425 0.03455,-0.7051 0.103664,-1.05254 0.06911,-0.34744 0.171445,-0.6848 0.307007,-1.01207 0.135563,-0.32727 0.301747,-0.63819 0.498554,-0.93271 0.196807,-0.29454 0.420454,-0.56706 0.670942,-0.81754 0.250487,-0.2505 0.523002,-0.47415 0.817544,-0.67096 0.294543,-0.19679 0.605453,-0.36298 0.93273,-0.49855 0.327276,-0.13556 0.664634,-0.23789 1.01207,-0.307 0.347436,-0.0691 0.698276,-0.10366 1.052519,-0.10366 0.354242,0 0.705082,0.0346 1.052518,0.10367 0.347435,0.0691 0.684791,0.17143 1.012067,0.30699 0.327278,0.13557 0.638187,0.30176 0.932728,0.49857 0.294542,0.19679 0.567058,0.42044 0.817546,0.67094 0.250487,0.25048 0.474135,0.523 0.670941,0.81752 0.196806,0.29454 0.362991,0.60546 0.498554,0.93273 0.135563,0.32727 0.2379,0.66463 0.307009,1.01207 0.06911,0.34744 0.103664,0.69829 0.103666,1.05254 z"
       style="fill:none;stroke:#000000;stroke-width:0.21580119;stroke-linecap:butt;stroke-linejoin:miter;stroke-miterlimit:10;stroke-dasharray:none;stroke-opacity:1"
       id="path852" />
    <path
       d="m 83.281751,176.7742 c 0,0.35425 -0.03455,0.70508 -0.103666,1.0525 -0.06911,0.34743 -0.171445,0.68479 -0.307009,1.01206 -0.135565,0.32727 -0.30175,0.63818 -0.498557,0.93274 -0.196806,0.29454 -0.420453,0.56706 -0.670936,0.81754 -0.25049,0.25048 -0.523004,0.47413 -0.817546,0.67092 -0.294545,0.1968 -0.605454,0.36298 -0.932732,0.49856 -0.327278,0.13556 -0.664635,0.2379 -1.012068,0.30702 -0.347434,0.0691 -0.698271,0.10368 -1.052515,0.10369 -0.354242,-1e-5 -0.705081,-0.0346 -1.052521,-0.10369 -0.347437,-0.0691 -0.684795,-0.17146 -1.012073,-0.30702 -0.327277,-0.13558 -0.638186,-0.30175 -0.932727,-0.49854 -0.294542,-0.19681 -0.567056,-0.42046 -0.817543,-0.67094 -0.250489,-0.25048 -0.474137,-0.523 -0.670943,-0.81754 -0.196807,-0.29456 -0.362991,-0.60547 -0.498555,-0.93274 -0.135562,-0.32727 -0.237897,-0.66463 -0.307007,-1.01206 -0.06911,-0.34742 -0.103663,-0.69825 -0.10366,-1.0525 -3e-6,-0.35425 0.03455,-0.7051 0.103662,-1.05254 0.06911,-0.34744 0.171445,-0.6848 0.307007,-1.01207 0.135562,-0.32727 0.301748,-0.63819 0.498555,-0.93271 0.196806,-0.29454 0.420452,-0.56706 0.670941,-0.81754 0.250487,-0.2505 0.523001,-0.47415 0.817543,-0.67096 0.294541,-0.19679 0.60545,-0.36298 0.932727,-0.49855 0.327278,-0.13556 0.664636,-0.23789 1.012073,-0.307 0.34744,-0.0691 0.698279,-0.10366 1.052521,-0.10366 0.354244,0 0.705081,0.0346 1.052515,0.10367 0.347433,0.0691 0.68479,0.17143 1.012068,0.30699 0.327278,0.13557 0.638187,0.30176 0.932732,0.49857 0.294542,0.19679 0.567056,0.42044 0.817546,0.67094 0.250483,0.25048 0.47413,0.523 0.670936,0.81752 0.196807,0.29454 0.362992,0.60546 0.498557,0.93273 0.135564,0.32727 0.2379,0.66463 0.307009,1.01207 0.06911,0.34744 0.103666,0.69829 0.103666,1.05254 z"
       style="fill:#ffffff;fill-opacity:1;fill-rule:nonzero;stroke:none;stroke-width:0.21580119"
       id="path854" />
    <path
       d="m 83.281751,176.7742 c 0,0.35425 -0.03455,0.70508 -0.103666,1.0525 -0.06911,0.34743 -0.171445,0.68479 -0.307009,1.01206 -0.135565,0.32727 -0.30175,0.63818 -0.498557,0.93274 -0.196806,0.29454 -0.420453,0.56706 -0.670936,0.81754 -0.25049,0.25048 -0.523004,0.47413 -0.817546,0.67092 -0.294545,0.1968 -0.605454,0.36298 -0.932732,0.49856 -0.327278,0.13556 -0.664635,0.2379 -1.012068,0.30702 -0.347434,0.0691 -0.698271,0.10368 -1.052515,0.10369 -0.354242,-1e-5 -0.705081,-0.0346 -1.052521,-0.10369 -0.347437,-0.0691 -0.684795,-0.17146 -1.012073,-0.30702 -0.327277,-0.13558 -0.638186,-0.30175 -0.932727,-0.49854 -0.294542,-0.19681 -0.567056,-0.42046 -0.817543,-0.67094 -0.250489,-0.25048 -0.474137,-0.523 -0.670943,-0.81754 -0.196807,-0.29456 -0.362991,-0.60547 -0.498555,-0.93274 -0.135562,-0.32727 -0.237897,-0.66463 -0.307007,-1.01206 -0.06911,-0.34742 -0.103663,-0.69825 -0.10366,-1.0525 -3e-6,-0.35425 0.03455,-0.7051 0.103662,-1.05254 0.06911,-0.34744 0.171445,-0.6848 0.307007,-1.01207 0.135562,-0.32727 0.301748,-0.63819 0.498555,-0.93271 0.196806,-0.29454 0.420452,-0.56706 0.670941,-0.81754 0.250487,-0.2505 0.523001,-0.47415 0.817543,-0.67096 0.294541,-0.19679 0.60545,-0.36298 0.932727,-0.49855 0.327278,-0.13556 0.664636,-0.23789 1.012073,-0.307 0.34744,-0.0691 0.698279,-0.10366 1.052521,-0.10366 0.354244,0 0.705081,0.0346 1.052515,0.10367 0.347433,0.0691 0.68479,0.17143 1.012068,0.30699 0.327278,0.13557 0.638187,0.30176 0.932732,0.49857 0.294542,0.19679 0.567056,0.42044 0.817546,0.67094 0.250483,0.25048 0.47413,0.523 0.670936,0.81752 0.196807,0.29454 0.362992,0.60546 0.498557,0.93273 0.135564,0.32727 0.2379,0.66463 0.307009,1.01207 0.06911,0.34744 0.103666,0.69829 0.103666,1.05254 z"
       style="fill:none;stroke:#000000;stroke-width:0.21580119;stroke-linecap:butt;stroke-linejoin:miter;stroke-miterlimit:10;stroke-dasharray:none;stroke-opacity:1"
       id="path856" />
    <path
       d="m 119.96795,176.7742 c 0,0.35425 -0.0345,0.70508 -0.10366,1.0525 -0.0691,0.34743 -0.17145,0.68479 -0.30702,1.01206 -0.13556,0.32727 -0.30174,0.63818 -0.49855,0.93274 -0.1968,0.29454 -0.42045,0.56706 -0.67094,0.81754 -0.25049,0.25048 -0.523,0.47413 -0.81754,0.67092 -0.29455,0.1968 -0.60545,0.36298 -0.93273,0.49856 -0.32728,0.13556 -0.66463,0.2379 -1.01207,0.30702 -0.34744,0.0691 -0.69828,0.10368 -1.05252,0.10369 -0.35424,-1e-5 -0.70508,-0.0346 -1.05253,-0.10369 -0.34743,-0.0691 -0.68479,-0.17146 -1.01206,-0.30702 -0.32728,-0.13558 -0.63819,-0.30175 -0.93273,-0.49854 -0.29454,-0.19681 -0.56706,-0.42046 -0.81754,-0.67094 -0.25049,-0.25048 -0.47414,-0.523 -0.67095,-0.81754 -0.1968,-0.29456 -0.36298,-0.60547 -0.49855,-0.93274 -0.13557,-0.32727 -0.2379,-0.66463 -0.30701,-1.01206 -0.0691,-0.34742 -0.10366,-0.69825 -0.10365,-1.0525 -10e-6,-0.35425 0.0346,-0.7051 0.10365,-1.05254 0.0691,-0.34744 0.17144,-0.6848 0.30701,-1.01207 0.13556,-0.32727 0.30175,-0.63819 0.49855,-0.93271 0.19681,-0.29454 0.42046,-0.56706 0.67095,-0.81754 0.25048,-0.2505 0.523,-0.47415 0.81754,-0.67096 0.29454,-0.19679 0.60545,-0.36298 0.93273,-0.49855 0.32728,-0.13556 0.66463,-0.23789 1.01207,-0.307 0.34744,-0.0691 0.69828,-0.10366 1.05252,-0.10366 0.35424,0 0.70508,0.0346 1.05252,0.10367 0.34743,0.0691 0.68479,0.17143 1.01207,0.30699 0.32727,0.13557 0.63818,0.30176 0.93273,0.49857 0.29454,0.19679 0.56705,0.42044 0.81754,0.67094 0.25049,0.25048 0.47414,0.523 0.67094,0.81752 0.19681,0.29454 0.36299,0.60546 0.49855,0.93273 0.13557,0.32727 0.23791,0.66463 0.30701,1.01207 0.0691,0.34744 0.10367,0.69829 0.10367,1.05254 z"
       style="fill:#ffffff;fill-opacity:1;fill-rule:nonzero;stroke:none;stroke-width:0.21580119"
       id="path858" />
    <path
       d="m 119.96795,176.7742 c 0,0.35425 -0.0345,0.70508 -0.10366,1.0525 -0.0691,0.34743 -0.17145,0.68479 -0.30702,1.01206 -0.13556,0.32727 -0.30174,0.63818 -0.49855,0.93274 -0.1968,0.29454 -0.42045,0.56706 -0.67094,0.81754 -0.25049,0.25048 -0.523,0.47413 -0.81754,0.67092 -0.29455,0.1968 -0.60545,0.36298 -0.93273,0.49856 -0.32728,0.13556 -0.66463,0.2379 -1.01207,0.30702 -0.34744,0.0691 -0.69828,0.10368 -1.05252,0.10369 -0.35424,-1e-5 -0.70508,-0.0346 -1.05253,-0.10369 -0.34743,-0.0691 -0.68479,-0.17146 -1.01206,-0.30702 -0.32728,-0.13558 -0.63819,-0.30175 -0.93273,-0.49854 -0.29454,-0.19681 -0.56706,-0.42046 -0.81754,-0.67094 -0.25049,-0.25048 -0.47414,-0.523 -0.67095,-0.81754 -0.1968,-0.29456 -0.36298,-0.60547 -0.49855,-0.93274 -0.13557,-0.32727 -0.2379,-0.66463 -0.30701,-1.01206 -0.0691,-0.34742 -0.10366,-0.69825 -0.10365,-1.0525 -10e-6,-0.35425 0.0346,-0.7051 0.10365,-1.05254 0.0691,-0.34744 0.17144,-0.6848 0.30701,-1.01207 0.13556,-0.32727 0.30175,-0.63819 0.49855,-0.93271 0.19681,-0.29454 0.42046,-0.56706 0.67095,-0.81754 0.25048,-0.2505 0.523,-0.47415 0.81754,-0.67096 0.29454,-0.19679 0.60545,-0.36298 0.93273,-0.49855 0.32728,-0.13556 0.66463,-0.23789 1.01207,-0.307 0.34744,-0.0691 0.69828,-0.10366 1.05252,-0.10366 0.35424,0 0.70508,0.0346 1.05252,0.10367 0.34743,0.0691 0.68479,0.17143 1.01207,0.30699 0.32727,0.13557 0.63818,0.30176 0.93273,0.49857 0.29454,0.19679 0.56705,0.42044 0.81754,0.67094 0.25049,0.25048 0.47414,0.523 0.67094,0.81752 0.19681,0.29454 0.36299,0.60546 0.49855,0.93273 0.13557,0.32727 0.23791,0.66463 0.30701,1.01207 0.0691,0.34744 0.10367,0.69829 0.10367,1.05254 z"
       style="fill:none;stroke:#000000;stroke-width:0.21580119;stroke-linecap:butt;stroke-linejoin:miter;stroke-miterlimit:10;stroke-dasharray:none;stroke-opacity:1"
       id="path860" />
    <path
       d="m 132.91603,176.7742 c -1e-5,0.35425 -0.0346,0.70508 -0.10368,1.0525 -0.0691,0.34743 -0.17144,0.68479 -0.30701,1.01206 -0.13556,0.32727 -0.30175,0.63818 -0.49856,0.93274 -0.1968,0.29454 -0.42045,0.56706 -0.67093,0.81754 -0.25049,0.25048 -0.523,0.47413 -0.81755,0.67092 -0.29454,0.1968 -0.60545,0.36298 -0.93273,0.49856 -0.32727,0.13556 -0.66463,0.2379 -1.01207,0.30702 -0.34743,0.0691 -0.69826,0.10368 -1.0525,0.10369 -0.35424,-1e-5 -0.70508,-0.0346 -1.05252,-0.10369 -0.34745,-0.0691 -0.6848,-0.17146 -1.01208,-0.30702 -0.32728,-0.13558 -0.63819,-0.30175 -0.93273,-0.49854 -0.29454,-0.19681 -0.56705,-0.42046 -0.81754,-0.67094 -0.25048,-0.25048 -0.47414,-0.523 -0.67095,-0.81754 -0.19681,-0.29456 -0.36299,-0.60547 -0.49855,-0.93274 -0.13557,-0.32727 -0.23791,-0.66463 -0.30701,-1.01206 -0.0691,-0.34742 -0.10366,-0.69825 -0.10365,-1.0525 -10e-6,-0.35425 0.0346,-0.7051 0.10366,-1.05254 0.0691,-0.34744 0.17143,-0.6848 0.307,-1.01207 0.13556,-0.32727 0.30174,-0.63819 0.49856,-0.93271 0.1968,-0.29454 0.42046,-0.56706 0.67094,-0.81754 0.25049,-0.2505 0.523,-0.47415 0.81755,-0.67096 0.29453,-0.19679 0.60544,-0.36298 0.93272,-0.49855 0.32728,-0.13556 0.66463,-0.23789 1.01208,-0.307 0.34744,-0.0691 0.69828,-0.10366 1.05252,-0.10366 0.35424,0 0.70507,0.0346 1.0525,0.10367 0.34744,0.0691 0.6848,0.17143 1.01207,0.30699 0.32728,0.13557 0.63819,0.30176 0.93273,0.49857 0.29455,0.19679 0.56706,0.42044 0.81755,0.67094 0.25048,0.25048 0.47413,0.523 0.67093,0.81752 0.19681,0.29454 0.363,0.60546 0.49856,0.93273 0.13557,0.32727 0.2379,0.66463 0.30701,1.01207 0.0691,0.34744 0.10367,0.69829 0.10368,1.05254 z"
       style="fill:#ffffff;fill-opacity:1;fill-rule:nonzero;stroke:none;stroke-width:0.21580119"
       id="path862" />
    <path
       d="m 132.91603,176.7742 c -1e-5,0.35425 -0.0346,0.70508 -0.10368,1.0525 -0.0691,0.34743 -0.17144,0.68479 -0.30701,1.01206 -0.13556,0.32727 -0.30175,0.63818 -0.49856,0.93274 -0.1968,0.29454 -0.42045,0.56706 -0.67093,0.81754 -0.25049,0.25048 -0.523,0.47413 -0.81755,0.67092 -0.29454,0.1968 -0.60545,0.36298 -0.93273,0.49856 -0.32727,0.13556 -0.66463,0.2379 -1.01207,0.30702 -0.34743,0.0691 -0.69826,0.10368 -1.0525,0.10369 -0.35424,-1e-5 -0.70508,-0.0346 -1.05252,-0.10369 -0.34745,-0.0691 -0.6848,-0.17146 -1.01208,-0.30702 -0.32728,-0.13558 -0.63819,-0.30175 -0.93273,-0.49854 -0.29454,-0.19681 -0.56705,-0.42046 -0.81754,-0.67094 -0.25048,-0.25048 -0.47414,-0.523 -0.67095,-0.81754 -0.19681,-0.29456 -0.36299,-0.60547 -0.49855,-0.93274 -0.13557,-0.32727 -0.23791,-0.66463 -0.30701,-1.01206 -0.0691,-0.34742 -0.10366,-0.69825 -0.10365,-1.0525 -10e-6,-0.35425 0.0346,-0.7051 0.10366,-1.05254 0.0691,-0.34744 0.17143,-0.6848 0.307,-1.01207 0.13556,-0.32727 0.30174,-0.63819 0.49856,-0.93271 0.1968,-0.29454 0.42046,-0.56706 0.67094,-0.81754 0.25049,-0.2505 0.523,-0.47415 0.81755,-0.67096 0.29453,-0.19679 0.60544,-0.36298 0.93272,-0.49855 0.32728,-0.13556 0.66463,-0.23789 1.01208,-0.307 0.34744,-0.0691 0.69828,-0.10366 1.05252,-0.10366 0.35424,0 0.70507,0.0346 1.0525,0.10367 0.34744,0.0691 0.6848,0.17143 1.01207,0.30699 0.32728,0.13557 0.63819,0.30176 0.93273,0.49857 0.29455,0.19679 0.56706,0.42044 0.81755,0.67094 0.25048,0.25048 0.47413,0.523 0.67093,0.81752 0.19681,0.29454 0.363,0.60546 0.49856,0.93273 0.13557,0.32727 0.2379,0.66463 0.30701,1.01207 0.0691,0.34744 0.10367,0.69829 0.10368,1.05254 z"
       style="fill:none;stroke:#000000;stroke-width:0.21580119;stroke-linecap:butt;stroke-linejoin:miter;stroke-miterlimit:10;stroke-dasharray:none;stroke-opacity:1"
       id="path864" />
    <path
       d="m 145.8641,176.7742 c -1e-5,0.35425 -0.0346,0.70508 -0.10367,1.0525 -0.0691,0.34743 -0.17144,0.68479 -0.30701,1.01206 -0.13557,0.32727 -0.30175,0.63818 -0.49856,0.93274 -0.1968,0.29454 -0.42045,0.56706 -0.67094,0.81754 -0.25048,0.25048 -0.523,0.47413 -0.81755,0.67092 -0.29455,0.1968 -0.60545,0.36298 -0.93273,0.49856 -0.32727,0.13556 -0.66463,0.2379 -1.01207,0.30702 -0.34743,0.0691 -0.69826,0.10368 -1.0525,0.10369 -0.35425,-1e-5 -0.70509,-0.0346 -1.05254,-0.10369 -0.34743,-0.0691 -0.68478,-0.17146 -1.01206,-0.30702 -0.32728,-0.13558 -0.63819,-0.30175 -0.93273,-0.49854 -0.29454,-0.19681 -0.56705,-0.42046 -0.81754,-0.67094 -0.25049,-0.25048 -0.47414,-0.523 -0.67095,-0.81754 -0.19681,-0.29456 -0.36299,-0.60547 -0.49855,-0.93274 -0.13556,-0.32727 -0.2379,-0.66463 -0.307,-1.01206 -0.0691,-0.34742 -0.10366,-0.69825 -0.10366,-1.0525 0,-0.35425 0.0346,-0.7051 0.10366,-1.05254 0.0691,-0.34744 0.17144,-0.6848 0.307,-1.01207 0.13556,-0.32727 0.30174,-0.63819 0.49855,-0.93271 0.19681,-0.29454 0.42046,-0.56706 0.67095,-0.81754 0.25049,-0.2505 0.523,-0.47415 0.81754,-0.67096 0.29454,-0.19679 0.60545,-0.36298 0.93273,-0.49855 0.32728,-0.13556 0.66463,-0.23789 1.01206,-0.307 0.34745,-0.0691 0.69829,-0.10366 1.05254,-0.10366 0.35424,0 0.70507,0.0346 1.05251,0.10367 0.34744,0.0691 0.68479,0.17143 1.01207,0.30699 0.32728,0.13557 0.63818,0.30176 0.93273,0.49857 0.29454,0.19679 0.56706,0.42044 0.81754,0.67094 0.25049,0.25048 0.47414,0.523 0.67094,0.81752 0.1968,0.29454 0.36298,0.60546 0.49855,0.93273 0.13557,0.32727 0.2379,0.66463 0.30701,1.01207 0.0691,0.34744 0.10367,0.69829 0.10368,1.05254 z"
       style="fill:#ffffff;fill-opacity:1;fill-rule:nonzero;stroke:none;stroke-width:0.21580119"
       id="path866" />
    <path
       d="m 145.8641,176.7742 c -1e-5,0.35425 -0.0346,0.70508 -0.10367,1.0525 -0.0691,0.34743 -0.17144,0.68479 -0.30701,1.01206 -0.13557,0.32727 -0.30175,0.63818 -0.49856,0.93274 -0.1968,0.29454 -0.42045,0.56706 -0.67094,0.81754 -0.25048,0.25048 -0.523,0.47413 -0.81755,0.67092 -0.29455,0.1968 -0.60545,0.36298 -0.93273,0.49856 -0.32727,0.13556 -0.66463,0.2379 -1.01207,0.30702 -0.34743,0.0691 -0.69826,0.10368 -1.0525,0.10369 -0.35425,-1e-5 -0.70509,-0.0346 -1.05254,-0.10369 -0.34743,-0.0691 -0.68478,-0.17146 -1.01206,-0.30702 -0.32728,-0.13558 -0.63819,-0.30175 -0.93273,-0.49854 -0.29454,-0.19681 -0.56705,-0.42046 -0.81754,-0.67094 -0.25049,-0.25048 -0.47414,-0.523 -0.67095,-0.81754 -0.19681,-0.29456 -0.36299,-0.60547 -0.49855,-0.93274 -0.13556,-0.32727 -0.2379,-0.66463 -0.307,-1.01206 -0.0691,-0.34742 -0.10366,-0.69825 -0.10366,-1.0525 0,-0.35425 0.0346,-0.7051 0.10366,-1.05254 0.0691,-0.34744 0.17144,-0.6848 0.307,-1.01207 0.13556,-0.32727 0.30174,-0.63819 0.49855,-0.93271 0.19681,-0.29454 0.42046,-0.56706 0.67095,-0.81754 0.25049,-0.2505 0.523,-0.47415 0.81754,-0.67096 0.29454,-0.19679 0.60545,-0.36298 0.93273,-0.49855 0.32728,-0.13556 0.66463,-0.23789 1.01206,-0.307 0.34745,-0.0691 0.69829,-0.10366 1.05254,-0.10366 0.35424,0 0.70507,0.0346 1.05251,0.10367 0.34744,0.0691 0.68479,0.17143 1.01207,0.30699 0.32728,0.13557 0.63818,0.30176 0.93273,0.49857 0.29454,0.19679 0.56706,0.42044 0.81754,0.67094 0.25049,0.25048 0.47414,0.523 0.67094,0.81752 0.1968,0.29454 0.36298,0.60546 0.49855,0.93273 0.13557,0.32727 0.2379,0.66463 0.30701,1.01207 0.0691,0.34744 0.10367,0.69829 0.10368,1.05254 z"
       style="fill:none;stroke:#000000;stroke-width:0.21580119;stroke-linecap:butt;stroke-linejoin:miter;stroke-miterlimit:10;stroke-dasharray:none;stroke-opacity:1"
       id="path868" />
    <path
       d="m 74.649704,194.6857 c -2e-6,0.35423 -0.03456,0.70507 -0.103668,1.05252 -0.06911,0.34742 -0.171446,0.68478 -0.307008,1.01205 -0.135562,0.32727 -0.301746,0.63819 -0.498552,0.93274 -0.196807,0.29453 -0.420455,0.56704 -0.670939,0.81754 -0.250489,0.25048 -0.523005,0.47412 -0.817546,0.67092 -0.294542,0.1968 -0.605454,0.36299 -0.932731,0.49856 -0.327278,0.13556 -0.664633,0.2379 -1.012069,0.30701 -0.347436,0.0691 -0.698274,0.10368 -1.052516,0.10369 -0.354243,-10e-6 -0.705083,-0.0346 -1.052522,-0.10369 -0.347435,-0.0691 -0.684792,-0.17144 -1.01207,-0.307 -0.327276,-0.13557 -0.638185,-0.30175 -0.932727,-0.49855 -0.294542,-0.19682 -0.567056,-0.42046 -0.817544,-0.67094 -0.250487,-0.2505 -0.474134,-0.52301 -0.670942,-0.81754 -0.196807,-0.29455 -0.362991,-0.60547 -0.498553,-0.93274 -0.135564,-0.32727 -0.2379,-0.66463 -0.307007,-1.01207 -0.06911,-0.34743 -0.103664,-0.69827 -0.103664,-1.0525 0,-0.35425 0.03455,-0.7051 0.103664,-1.05253 0.06911,-0.34744 0.171443,-0.6848 0.307007,-1.01209 0.135562,-0.32728 0.301746,-0.63819 0.498553,-0.93272 0.196808,-0.29455 0.420455,-0.56706 0.670942,-0.81754 0.250488,-0.25049 0.523002,-0.47414 0.817544,-0.67094 0.294542,-0.1968 0.605451,-0.36299 0.932729,-0.49856 0.327276,-0.13555 0.664633,-0.23789 1.01207,-0.30701 0.347437,-0.0691 0.698277,-0.10364 1.05252,-0.10364 0.354242,0 0.70508,0.0345 1.052516,0.10364 0.347436,0.0691 0.684791,0.17146 1.012069,0.30701 0.327277,0.13557 0.638189,0.30176 0.932731,0.49855 0.294541,0.19681 0.567057,0.42046 0.817546,0.67095 0.250484,0.25048 0.474132,0.52299 0.670939,0.81754 0.196806,0.29453 0.36299,0.60544 0.498552,0.93272 0.135562,0.32729 0.237899,0.66465 0.30701,1.01207 0.06911,0.34745 0.103664,0.6983 0.103666,1.05255 z"
       style="fill:#cccccc;fill-opacity:1;fill-rule:nonzero;stroke:none;stroke-width:0.21580119"
       id="path870" />
    <path
       d="m 74.649704,194.6857 c -2e-6,0.35423 -0.03456,0.70507 -0.103668,1.05252 -0.06911,0.34742 -0.171446,0.68478 -0.307008,1.01205 -0.135562,0.32727 -0.301746,0.63819 -0.498552,0.93274 -0.196807,0.29453 -0.420455,0.56704 -0.670939,0.81754 -0.250489,0.25048 -0.523005,0.47412 -0.817546,0.67092 -0.294542,0.1968 -0.605454,0.36299 -0.932731,0.49856 -0.327278,0.13556 -0.664633,0.2379 -1.012069,0.30701 -0.347436,0.0691 -0.698274,0.10368 -1.052516,0.10369 -0.354243,-10e-6 -0.705083,-0.0346 -1.052522,-0.10369 -0.347435,-0.0691 -0.684792,-0.17144 -1.01207,-0.307 -0.327276,-0.13557 -0.638185,-0.30175 -0.932727,-0.49855 -0.294542,-0.19682 -0.567056,-0.42046 -0.817544,-0.67094 -0.250487,-0.2505 -0.474134,-0.52301 -0.670942,-0.81754 -0.196807,-0.29455 -0.362991,-0.60547 -0.498553,-0.93274 -0.135564,-0.32727 -0.2379,-0.66463 -0.307007,-1.01207 -0.06911,-0.34743 -0.103664,-0.69827 -0.103664,-1.0525 0,-0.35425 0.03455,-0.7051 0.103664,-1.05253 0.06911,-0.34744 0.171443,-0.6848 0.307007,-1.01209 0.135562,-0.32728 0.301746,-0.63819 0.498553,-0.93272 0.196808,-0.29455 0.420455,-0.56706 0.670942,-0.81754 0.250488,-0.25049 0.523002,-0.47414 0.817544,-0.67094 0.294542,-0.1968 0.605451,-0.36299 0.932729,-0.49856 0.327276,-0.13555 0.664633,-0.23789 1.01207,-0.30701 0.347437,-0.0691 0.698277,-0.10364 1.05252,-0.10364 0.354242,0 0.70508,0.0345 1.052516,0.10364 0.347436,0.0691 0.684791,0.17146 1.012069,0.30701 0.327277,0.13557 0.638189,0.30176 0.932731,0.49855 0.294541,0.19681 0.567057,0.42046 0.817546,0.67095 0.250484,0.25048 0.474132,0.52299 0.670939,0.81754 0.196806,0.29453 0.36299,0.60544 0.498552,0.93272 0.135562,0.32729 0.237899,0.66465 0.30701,1.01207 0.06911,0.34745 0.103664,0.6983 0.103666,1.05255 z"
       style="fill:none;stroke:#000000;stroke-width:0.21580119;stroke-linecap:butt;stroke-linejoin:miter;stroke-miterlimit:10;stroke-dasharray:none;stroke-opacity:1"
       id="path872" />
    <path
       d="m 91.913799,194.6857 c 0,0.35423 -0.03456,0.70507 -0.103671,1.05252 -0.06911,0.34742 -0.171445,0.68478 -0.307007,1.01205 -0.135562,0.32727 -0.301747,0.63819 -0.498554,0.93274 -0.196803,0.29453 -0.420452,0.56704 -0.670936,0.81754 -0.250492,0.25048 -0.523005,0.47412 -0.817549,0.67092 -0.294545,0.1968 -0.605452,0.36299 -0.932728,0.49856 -0.327279,0.13556 -0.664636,0.2379 -1.012072,0.30701 -0.347435,0.0691 -0.698272,0.10368 -1.052512,0.10369 -0.354243,-10e-6 -0.705086,-0.0346 -1.052521,-0.10369 -0.347432,-0.0691 -0.684792,-0.17144 -1.012068,-0.307 -0.327282,-0.13557 -0.638191,-0.30175 -0.932733,-0.49855 -0.294548,-0.19682 -0.567055,-0.42046 -0.817541,-0.67094 -0.250489,-0.2505 -0.474136,-0.52301 -0.670944,-0.81754 -0.196805,-0.29455 -0.36299,-0.60547 -0.498553,-0.93274 -0.135564,-0.32727 -0.2379,-0.66463 -0.307008,-1.01207 -0.06911,-0.34743 -0.103664,-0.69827 -0.103662,-1.0525 -2e-6,-0.35425 0.03455,-0.7051 0.103662,-1.05253 0.06911,-0.34744 0.171444,-0.6848 0.307008,-1.01209 0.135563,-0.32728 0.301748,-0.63819 0.498553,-0.93272 0.196808,-0.29455 0.420455,-0.56706 0.670944,-0.81754 0.250486,-0.25049 0.522993,-0.47414 0.817541,-0.67094 0.294542,-0.1968 0.605451,-0.36299 0.932733,-0.49856 0.327276,-0.13555 0.66463,-0.23789 1.012063,-0.30701 0.34744,-0.0691 0.698283,-0.10364 1.052526,-0.10364 0.35424,0 0.705077,0.0345 1.052515,0.10364 0.347433,0.0691 0.68479,0.17146 1.012066,0.30701 0.327279,0.13557 0.638186,0.30176 0.932731,0.49855 0.294544,0.19681 0.567057,0.42046 0.817549,0.67095 0.250484,0.25048 0.474133,0.52299 0.670936,0.81754 0.196807,0.29453 0.362992,0.60544 0.498557,0.93272 0.135559,0.32729 0.237897,0.66465 0.307009,1.01207 0.06911,0.34745 0.103666,0.6983 0.103666,1.05255 z"
       style="fill:#cccccc;fill-opacity:1;fill-rule:nonzero;stroke:none;stroke-width:0.21580119"
       id="path874" />
    <path
       d="m 91.913799,194.6857 c 0,0.35423 -0.03456,0.70507 -0.103671,1.05252 -0.06911,0.34742 -0.171445,0.68478 -0.307007,1.01205 -0.135562,0.32727 -0.301747,0.63819 -0.498554,0.93274 -0.196803,0.29453 -0.420452,0.56704 -0.670936,0.81754 -0.250492,0.25048 -0.523005,0.47412 -0.817549,0.67092 -0.294545,0.1968 -0.605452,0.36299 -0.932728,0.49856 -0.327279,0.13556 -0.664636,0.2379 -1.012072,0.30701 -0.347435,0.0691 -0.698272,0.10368 -1.052512,0.10369 -0.354243,-10e-6 -0.705086,-0.0346 -1.052521,-0.10369 -0.347432,-0.0691 -0.684792,-0.17144 -1.012068,-0.307 -0.327282,-0.13557 -0.638191,-0.30175 -0.932733,-0.49855 -0.294548,-0.19682 -0.567055,-0.42046 -0.817541,-0.67094 -0.250489,-0.2505 -0.474136,-0.52301 -0.670944,-0.81754 -0.196805,-0.29455 -0.36299,-0.60547 -0.498553,-0.93274 -0.135564,-0.32727 -0.2379,-0.66463 -0.307008,-1.01207 -0.06911,-0.34743 -0.103664,-0.69827 -0.103662,-1.0525 -2e-6,-0.35425 0.03455,-0.7051 0.103662,-1.05253 0.06911,-0.34744 0.171444,-0.6848 0.307008,-1.01209 0.135563,-0.32728 0.301748,-0.63819 0.498553,-0.93272 0.196808,-0.29455 0.420455,-0.56706 0.670944,-0.81754 0.250486,-0.25049 0.522993,-0.47414 0.817541,-0.67094 0.294542,-0.1968 0.605451,-0.36299 0.932733,-0.49856 0.327276,-0.13555 0.66463,-0.23789 1.012063,-0.30701 0.34744,-0.0691 0.698283,-0.10364 1.052526,-0.10364 0.35424,0 0.705077,0.0345 1.052515,0.10364 0.347433,0.0691 0.68479,0.17146 1.012066,0.30701 0.327279,0.13557 0.638186,0.30176 0.932731,0.49855 0.294544,0.19681 0.567057,0.42046 0.817549,0.67095 0.250484,0.25048 0.474133,0.52299 0.670936,0.81754 0.196807,0.29453 0.362992,0.60544 0.498557,0.93272 0.135559,0.32729 0.237897,0.66465 0.307009,1.01207 0.06911,0.34745 0.103666,0.6983 0.103666,1.05255 z"
       style="fill:none;stroke:#000000;stroke-width:0.21580119;stroke-linecap:butt;stroke-linejoin:miter;stroke-miterlimit:10;stroke-dasharray:none;stroke-opacity:1"
       id="path876" />
    <path
       d="M 93.630498,143.75662 73.345186,154.97828"
       style="fill:none;stroke:#000000;stroke-width:0.21580119;stroke-linecap:butt;stroke-linejoin:miter;stroke-miterlimit:10;stroke-dasharray:none;stroke-opacity:1"
       id="path878" />
    <path
       d="m 103.12575,143.75662 20.50111,11.22166"
       style="fill:none;stroke:#000000;stroke-width:0.21580119;stroke-linecap:butt;stroke-linejoin:miter;stroke-miterlimit:10;stroke-dasharray:none;stroke-opacity:1"
       id="path880" />
    <path
       d="m 98.378126,146.34623 v 7.13451"
       style="fill:none;stroke:#000000;stroke-width:0.21580119;stroke-linecap:butt;stroke-linejoin:miter;stroke-miterlimit:10;stroke-dasharray:none;stroke-opacity:1"
       id="path882" />
    <path
       d="m 66.65535,163.61033 -4.316023,8.41624"
       style="fill:none;stroke:#000000;stroke-width:0.21580119;stroke-linecap:butt;stroke-linejoin:miter;stroke-miterlimit:10;stroke-dasharray:none;stroke-opacity:1"
       id="path884" />
    <path
       d="m 71.834578,163.61033 4.100222,8.41624"
       style="fill:none;stroke:#000000;stroke-width:0.21580119;stroke-linecap:butt;stroke-linejoin:miter;stroke-miterlimit:10;stroke-dasharray:none;stroke-opacity:1"
       id="path886" />
    <path
       d="m 75.071596,181.52183 -4.316024,8.41624"
       style="fill:none;stroke:#000000;stroke-width:0.21580119;stroke-linecap:butt;stroke-linejoin:miter;stroke-miterlimit:10;stroke-dasharray:none;stroke-opacity:1"
       id="path888" />
    <path
       d="m 80.250824,181.52183 4.100222,8.41624"
       style="fill:none;stroke:#000000;stroke-width:0.21580119;stroke-linecap:butt;stroke-linejoin:miter;stroke-miterlimit:10;stroke-dasharray:none;stroke-opacity:1"
       id="path890" />
    <path
       d="m 127.51128,164.04193 v 7.1345"
       style="fill:none;stroke:#000000;stroke-width:0.21580119;stroke-linecap:butt;stroke-linejoin:miter;stroke-miterlimit:10;stroke-dasharray:none;stroke-opacity:1"
       id="path892" />
    <path
       d="m 124.49007,163.39453 -6.89593,8.63204"
       style="fill:none;stroke:#000000;stroke-width:0.21580119;stroke-linecap:butt;stroke-linejoin:miter;stroke-miterlimit:10;stroke-dasharray:none;stroke-opacity:1"
       id="path894" />
    <path
       d="m 130.7483,163.17873 6.90564,8.84784"
       style="fill:none;stroke:#000000;stroke-width:0.21580119;stroke-linecap:butt;stroke-linejoin:miter;stroke-miterlimit:10;stroke-dasharray:none;stroke-opacity:1"
       id="path896" />
    <path
       d="m 91.913807,212.68454 c -2e-6,0.35424 -0.03456,0.70508 -0.103669,1.0525 -0.06911,0.34743 -0.171447,0.68479 -0.307006,1.01207 -0.135565,0.32727 -0.30175,0.63818 -0.498555,0.93274 -0.196802,0.29452 -0.420452,0.56704 -0.670941,0.81754 -0.250489,0.25048 -0.523004,0.47412 -0.817544,0.67092 -0.294545,0.19681 -0.605456,0.363 -0.932733,0.49856 -0.327276,0.13557 -0.664633,0.23791 -1.012069,0.30702 -0.347435,0.0691 -0.698275,0.10366 -1.052513,0.10368 -0.354242,-2e-5 -0.705085,-0.0346 -1.052525,-0.10368 -0.347435,-0.0691 -0.684792,-0.17145 -1.012069,-0.30702 -0.327279,-0.13556 -0.638188,-0.30175 -0.93273,-0.49856 -0.294542,-0.1968 -0.567058,-0.42044 -0.817544,-0.67092 -0.250484,-0.2505 -0.474131,-0.52302 -0.670941,-0.81754 -0.196805,-0.29456 -0.362992,-0.60547 -0.498554,-0.93274 -0.135564,-0.32728 -0.237901,-0.66464 -0.307007,-1.01207 -0.06911,-0.34742 -0.103663,-0.69826 -0.10366,-1.0525 -3e-6,-0.35425 0.03455,-0.7051 0.10366,-1.05255 0.06911,-0.34745 0.171443,-0.68481 0.307007,-1.01208 0.135562,-0.32728 0.301749,-0.6382 0.498551,-0.93272 0.196813,-0.29454 0.42046,-0.56705 0.670944,-0.81753 0.250486,-0.25048 0.523002,-0.47413 0.817544,-0.67095 0.294542,-0.19681 0.605451,-0.363 0.93273,-0.49856 0.327277,-0.13554 0.664634,-0.23787 1.012071,-0.30698 0.347438,-0.0691 0.698281,-0.10366 1.052523,-0.10366 0.354238,0 0.705078,0.0345 1.052518,0.10366 0.347434,0.0691 0.684788,0.17144 1.012064,0.30698 0.327277,0.13556 0.638188,0.30175 0.932733,0.49856 0.29454,0.19682 0.567055,0.42047 0.817544,0.67095 0.250489,0.25048 0.474139,0.52299 0.670941,0.81753 0.196805,0.29452 0.362987,0.60544 0.498552,0.93272 0.135562,0.32727 0.2379,0.66463 0.307004,1.01208 0.06911,0.34745 0.103672,0.6983 0.103674,1.05255 z"
       style="fill:#ffffff;fill-opacity:1;fill-rule:nonzero;stroke:none;stroke-width:0.21580119"
       id="path898" />
    <path
       d="m 91.913807,212.68454 c -2e-6,0.35424 -0.03456,0.70508 -0.103669,1.0525 -0.06911,0.34743 -0.171447,0.68479 -0.307006,1.01207 -0.135565,0.32727 -0.30175,0.63818 -0.498555,0.93274 -0.196802,0.29452 -0.420452,0.56704 -0.670941,0.81754 -0.250489,0.25048 -0.523004,0.47412 -0.817544,0.67092 -0.294545,0.19681 -0.605456,0.363 -0.932733,0.49856 -0.327276,0.13557 -0.664633,0.23791 -1.012069,0.30702 -0.347435,0.0691 -0.698275,0.10366 -1.052513,0.10368 -0.354242,-2e-5 -0.705085,-0.0346 -1.052525,-0.10368 -0.347435,-0.0691 -0.684792,-0.17145 -1.012069,-0.30702 -0.327279,-0.13556 -0.638188,-0.30175 -0.93273,-0.49856 -0.294542,-0.1968 -0.567058,-0.42044 -0.817544,-0.67092 -0.250484,-0.2505 -0.474131,-0.52302 -0.670941,-0.81754 -0.196805,-0.29456 -0.362992,-0.60547 -0.498554,-0.93274 -0.135564,-0.32728 -0.237901,-0.66464 -0.307007,-1.01207 -0.06911,-0.34742 -0.103663,-0.69826 -0.10366,-1.0525 -3e-6,-0.35425 0.03455,-0.7051 0.10366,-1.05255 0.06911,-0.34745 0.171443,-0.68481 0.307007,-1.01208 0.135562,-0.32728 0.301749,-0.6382 0.498551,-0.93272 0.196813,-0.29454 0.42046,-0.56705 0.670944,-0.81753 0.250486,-0.25048 0.523002,-0.47413 0.817544,-0.67095 0.294542,-0.19681 0.605451,-0.363 0.93273,-0.49856 0.327277,-0.13554 0.664634,-0.23787 1.012071,-0.30698 0.347438,-0.0691 0.698281,-0.10366 1.052523,-0.10366 0.354238,0 0.705078,0.0345 1.052518,0.10366 0.347434,0.0691 0.684788,0.17144 1.012064,0.30698 0.327277,0.13556 0.638188,0.30175 0.932733,0.49856 0.29454,0.19682 0.567055,0.42047 0.817544,0.67095 0.250489,0.25048 0.474139,0.52299 0.670941,0.81753 0.196805,0.29452 0.362987,0.60544 0.498552,0.93272 0.135562,0.32727 0.2379,0.66463 0.307004,1.01208 0.06911,0.34745 0.103672,0.6983 0.103674,1.05255 z"
       style="fill:none;stroke:#000000;stroke-width:0.21580119;stroke-linecap:butt;stroke-linejoin:miter;stroke-miterlimit:10;stroke-dasharray:none;stroke-opacity:1"
       id="path900" />
    <path
       d="m 86.518775,200.29653 v 7.1345"
       style="fill:none;stroke:#000000;stroke-width:0.21580119;stroke-linecap:butt;stroke-linejoin:miter;stroke-miterlimit:10;stroke-dasharray:none;stroke-opacity:1"
       id="path902" />
    <g
       id="g980"
       transform="matrix(0.21580119,0,0,0.21580119,-50.228923,2.0978922)">
      <path
         d="m 630.62706,1013.2754 c -2e-5,0.3977 -0.0761,0.7803 -0.2284,1.1479 -0.15223,0.3675 -0.36901,0.692 -0.65031,0.9733 -0.28131,0.2813 -0.60574,0.4981 -0.97328,0.6504 -0.36753,0.1522 -0.7502,0.2284 -1.14801,0.2284 -0.39783,0 -0.78052,-0.076 -1.14806,-0.2284 -0.36755,-0.1523 -0.69197,-0.3691 -0.97327,-0.6504 -0.28132,-0.2813 -0.49809,-0.6058 -0.65032,-0.9734 -0.15224,-0.3675 -0.22837,-0.7501 -0.22835,-1.1478 -2e-5,-0.3979 0.0761,-0.7806 0.22835,-1.1482 0.15223,-0.3675 0.369,-0.6918 0.65032,-0.9731 0.2813,-0.2814 0.60572,-0.4982 0.97327,-0.6504 0.36754,-0.1522 0.75023,-0.2283 1.14806,-0.2283 0.39781,0 0.78048,0.076 1.14802,0.2283 0.36754,0.1522 0.69196,0.369 0.97327,0.6504 0.2813,0.2813 0.49806,0.6056 0.6503,0.9731 0.15227,0.3676 0.22839,0.7503 0.22841,1.1482 z"
         style="fill:#000000;fill-opacity:1;fill-rule:nonzero;stroke:none"
         id="path982" />
      <path
         d="m 630.62706,1013.2754 c -2e-5,0.3977 -0.0761,0.7803 -0.2284,1.1479 -0.15223,0.3675 -0.36901,0.692 -0.65031,0.9733 -0.28131,0.2813 -0.60574,0.4981 -0.97328,0.6504 -0.36753,0.1522 -0.7502,0.2284 -1.14801,0.2284 -0.39783,0 -0.78052,-0.076 -1.14806,-0.2284 -0.36755,-0.1523 -0.69197,-0.3691 -0.97327,-0.6504 -0.28132,-0.2813 -0.49809,-0.6058 -0.65032,-0.9734 -0.15224,-0.3675 -0.22837,-0.7501 -0.22835,-1.1478 -2e-5,-0.3979 0.0761,-0.7806 0.22835,-1.1482 0.15223,-0.3675 0.369,-0.6918 0.65032,-0.9731 0.2813,-0.2814 0.60572,-0.4982 0.97327,-0.6504 0.36754,-0.1522 0.75023,-0.2283 1.14806,-0.2283 0.39781,0 0.78048,0.076 1.14802,0.2283 0.36754,0.1522 0.69196,0.369 0.97327,0.6504 0.2813,0.2813 0.49806,0.6056 0.6503,0.9731 0.15227,0.3676 0.22839,0.7503 0.22841,1.1482 z"
         style="fill:none;stroke:#000000;stroke-width:1;stroke-linecap:butt;stroke-linejoin:miter;stroke-miterlimit:10;stroke-dasharray:none;stroke-opacity:1"
         id="path984" />
      <path
         d="m 640.62706,1024.0161 c -2e-5,0.3978 -0.0761,0.7804 -0.22838,1.1479 -0.15224,0.3676 -0.369,0.692 -0.6503,0.9734 -0.28131,0.2813 -0.60573,0.498 -0.97327,0.6502 -0.36753,0.1523 -0.75023,0.2285 -1.14805,0.2285 -0.39784,0 -0.78054,-0.076 -1.14807,-0.2285 -0.36756,-0.1522 -0.69197,-0.3689 -0.97327,-0.6502 -0.28133,-0.2814 -0.49809,-0.6058 -0.65033,-0.9733 -0.15224,-0.3676 -0.22835,-0.7502 -0.22833,-1.148 -2e-5,-0.3979 0.0761,-0.7806 0.22833,-1.1482 0.15224,-0.3676 0.369,-0.692 0.65033,-0.9732 0.2813,-0.2813 0.60571,-0.4981 0.97327,-0.6503 0.36753,-0.1522 0.75023,-0.2283 1.14807,-0.2283 0.39782,0 0.7805,0.076 1.14804,0.2283 0.36754,0.1522 0.69197,0.369 0.97328,0.6503 0.2813,0.2812 0.49806,0.6056 0.6503,0.9732 0.15224,0.3676 0.22836,0.7503 0.22838,1.1482 z"
         style="fill:#000000;fill-opacity:1;fill-rule:nonzero;stroke:none"
         id="path986" />
      <path
         d="m 640.62706,1024.0161 c -2e-5,0.3978 -0.0761,0.7804 -0.22838,1.1479 -0.15224,0.3676 -0.369,0.692 -0.6503,0.9734 -0.28131,0.2813 -0.60573,0.498 -0.97327,0.6502 -0.36753,0.1523 -0.75023,0.2285 -1.14805,0.2285 -0.39784,0 -0.78054,-0.076 -1.14807,-0.2285 -0.36756,-0.1522 -0.69197,-0.3689 -0.97327,-0.6502 -0.28133,-0.2814 -0.49809,-0.6058 -0.65033,-0.9733 -0.15224,-0.3676 -0.22835,-0.7502 -0.22833,-1.148 -2e-5,-0.3979 0.0761,-0.7806 0.22833,-1.1482 0.15224,-0.3676 0.369,-0.692 0.65033,-0.9732 0.2813,-0.2813 0.60571,-0.4981 0.97327,-0.6503 0.36753,-0.1522 0.75023,-0.2283 1.14807,-0.2283 0.39782,0 0.7805,0.076 1.14804,0.2283 0.36754,0.1522 0.69197,0.369 0.97328,0.6503 0.2813,0.2812 0.49806,0.6056 0.6503,0.9732 0.15224,0.3676 0.22836,0.7503 0.22838,1.1482 z"
         style="fill:none;stroke:#000000;stroke-width:1;stroke-linecap:butt;stroke-linejoin:miter;stroke-miterlimit:10;stroke-dasharray:none;stroke-opacity:1"
         id="path988" />
      <path
         d="m 640.62706,1036.6088 c -2e-5,0.3978 -0.0761,0.7804 -0.22838,1.1479 -0.15224,0.3675 -0.369,0.692 -0.6503,0.9734 -0.28131,0.2813 -0.60573,0.498 -0.97327,0.6502 -0.36753,0.1523 -0.75023,0.2284 -1.14805,0.2285 -0.39784,-10e-5 -0.78054,-0.076 -1.14807,-0.2284 -0.36756,-0.1523 -0.69197,-0.369 -0.97327,-0.6503 -0.28133,-0.2814 -0.49809,-0.6059 -0.65033,-0.9734 -0.15224,-0.3675 -0.22835,-0.7501 -0.22833,-1.1479 -2e-5,-0.3979 0.0761,-0.7807 0.22833,-1.1481 0.15224,-0.3676 0.369,-0.692 0.65033,-0.9733 0.2813,-0.2813 0.60571,-0.4981 0.97327,-0.6503 0.36753,-0.1522 0.75023,-0.2283 1.14807,-0.2283 0.39782,0 0.7805,0.076 1.14804,0.2283 0.36754,0.1522 0.69197,0.369 0.97328,0.6503 0.2813,0.2813 0.49806,0.6057 0.6503,0.9733 0.15224,0.3674 0.22836,0.7502 0.22838,1.1481 z"
         style="fill:#000000;fill-opacity:1;fill-rule:nonzero;stroke:none"
         id="path990" />
      <path
         d="m 640.62706,1036.6088 c -2e-5,0.3978 -0.0761,0.7804 -0.22838,1.1479 -0.15224,0.3675 -0.369,0.692 -0.6503,0.9734 -0.28131,0.2813 -0.60573,0.498 -0.97327,0.6502 -0.36753,0.1523 -0.75023,0.2284 -1.14805,0.2285 -0.39784,-10e-5 -0.78054,-0.076 -1.14807,-0.2284 -0.36756,-0.1523 -0.69197,-0.369 -0.97327,-0.6503 -0.28133,-0.2814 -0.49809,-0.6059 -0.65033,-0.9734 -0.15224,-0.3675 -0.22835,-0.7501 -0.22833,-1.1479 -2e-5,-0.3979 0.0761,-0.7807 0.22833,-1.1481 0.15224,-0.3676 0.369,-0.692 0.65033,-0.9733 0.2813,-0.2813 0.60571,-0.4981 0.97327,-0.6503 0.36753,-0.1522 0.75023,-0.2283 1.14807,-0.2283 0.39782,0 0.7805,0.076 1.14804,0.2283 0.36754,0.1522 0.69197,0.369 0.97328,0.6503 0.2813,0.2813 0.49806,0.6057 0.6503,0.9733 0.15224,0.3674 0.22836,0.7502 0.22838,1.1481 z"
         style="fill:none;stroke:#000000;stroke-width:1;stroke-linecap:butt;stroke-linejoin:miter;stroke-miterlimit:10;stroke-dasharray:none;stroke-opacity:1"
         id="path992" />
      <path
         d="m 630.62706,1046.6088 c -2e-5,0.3978 -0.0761,0.7804 -0.2284,1.1479 -0.15223,0.3675 -0.36901,0.692 -0.65031,0.9734 -0.28131,0.2812 -0.60574,0.498 -0.97328,0.6502 -0.36753,0.1523 -0.7502,0.2284 -1.14801,0.2285 -0.39783,-10e-5 -0.78052,-0.076 -1.14806,-0.2284 -0.36755,-0.1523 -0.69197,-0.3691 -0.97327,-0.6503 -0.28132,-0.2814 -0.49809,-0.6059 -0.65032,-0.9734 -0.15224,-0.3675 -0.22837,-0.7501 -0.22835,-1.1479 -2e-5,-0.3979 0.0761,-0.7806 0.22835,-1.1481 0.15223,-0.3676 0.369,-0.692 0.65032,-0.9733 0.2813,-0.2814 0.60572,-0.4982 0.97327,-0.6503 0.36754,-0.1522 0.75023,-0.2283 1.14806,-0.2283 0.39781,0 0.78048,0.076 1.14802,0.2283 0.36754,0.1521 0.69196,0.3689 0.97327,0.6503 0.2813,0.2813 0.49806,0.6057 0.6503,0.9732 0.15227,0.3676 0.22839,0.7503 0.22841,1.1482 z"
         style="fill:#000000;fill-opacity:1;fill-rule:nonzero;stroke:none"
         id="path994" />
      <path
         d="m 630.62706,1046.6088 c -2e-5,0.3978 -0.0761,0.7804 -0.2284,1.1479 -0.15223,0.3675 -0.36901,0.692 -0.65031,0.9734 -0.28131,0.2812 -0.60574,0.498 -0.97328,0.6502 -0.36753,0.1523 -0.7502,0.2284 -1.14801,0.2285 -0.39783,-10e-5 -0.78052,-0.076 -1.14806,-0.2284 -0.36755,-0.1523 -0.69197,-0.3691 -0.97327,-0.6503 -0.28132,-0.2814 -0.49809,-0.6059 -0.65032,-0.9734 -0.15224,-0.3675 -0.22837,-0.7501 -0.22835,-1.1479 -2e-5,-0.3979 0.0761,-0.7806 0.22835,-1.1481 0.15223,-0.3676 0.369,-0.692 0.65032,-0.9733 0.2813,-0.2814 0.60572,-0.4982 0.97327,-0.6503 0.36754,-0.1522 0.75023,-0.2283 1.14806,-0.2283 0.39781,0 0.78048,0.076 1.14802,0.2283 0.36754,0.1521 0.69196,0.3689 0.97327,0.6503 0.2813,0.2813 0.49806,0.6057 0.6503,0.9732 0.15227,0.3676 0.22839,0.7503 0.22841,1.1482 z"
         style="fill:none;stroke:#000000;stroke-width:1;stroke-linecap:butt;stroke-linejoin:miter;stroke-miterlimit:10;stroke-dasharray:none;stroke-opacity:1"
         id="path996" />
      <path
         d="m 620.62706,1056.6088 c -2e-5,0.3978 -0.0761,0.7804 -0.2284,1.148 -0.15223,0.3675 -0.369,0.692 -0.6503,0.9733 -0.28131,0.2812 -0.60574,0.498 -0.97328,0.6502 -0.36754,0.1523 -0.75021,0.2284 -1.14802,0.2285 -0.39785,-10e-5 -0.78054,-0.076 -1.14807,-0.2285 -0.36754,-0.1522 -0.69196,-0.369 -0.97326,-0.6502 -0.28132,-0.2813 -0.4981,-0.6058 -0.65034,-0.9734 -0.15224,-0.3675 -0.22835,-0.7501 -0.22833,-1.1479 -2e-5,-0.3979 0.0761,-0.7807 0.22834,-1.1482 0.15224,-0.3676 0.36901,-0.692 0.65033,-0.9732 0.2813,-0.2813 0.6057,-0.4981 0.97324,-0.6503 0.36755,-0.1522 0.75024,-0.2283 1.14809,-0.2283 0.39781,0 0.78048,0.076 1.14802,0.2283 0.36754,0.1522 0.69197,0.369 0.97328,0.6503 0.2813,0.2812 0.49807,0.6056 0.6503,0.9732 0.15226,0.3675 0.22838,0.7503 0.2284,1.1482 z"
         style="fill:#000000;fill-opacity:1;fill-rule:nonzero;stroke:none"
         id="path998" />
      <path
         d="m 620.62706,1056.6088 c -2e-5,0.3978 -0.0761,0.7804 -0.2284,1.148 -0.15223,0.3675 -0.369,0.692 -0.6503,0.9733 -0.28131,0.2812 -0.60574,0.498 -0.97328,0.6502 -0.36754,0.1523 -0.75021,0.2284 -1.14802,0.2285 -0.39785,-10e-5 -0.78054,-0.076 -1.14807,-0.2285 -0.36754,-0.1522 -0.69196,-0.369 -0.97326,-0.6502 -0.28132,-0.2813 -0.4981,-0.6058 -0.65034,-0.9734 -0.15224,-0.3675 -0.22835,-0.7501 -0.22833,-1.1479 -2e-5,-0.3979 0.0761,-0.7807 0.22834,-1.1482 0.15224,-0.3676 0.36901,-0.692 0.65033,-0.9732 0.2813,-0.2813 0.6057,-0.4981 0.97324,-0.6503 0.36755,-0.1522 0.75024,-0.2283 1.14809,-0.2283 0.39781,0 0.78048,0.076 1.14802,0.2283 0.36754,0.1522 0.69197,0.369 0.97328,0.6503 0.2813,0.2812 0.49807,0.6056 0.6503,0.9732 0.15226,0.3675 0.22838,0.7503 0.2284,1.1482 z"
         style="fill:none;stroke:#000000;stroke-width:1;stroke-linecap:butt;stroke-linejoin:miter;stroke-miterlimit:10;stroke-dasharray:none;stroke-opacity:1"
         id="path1000" />
      <path
         d="m 620.62706,1070.6829 c -2e-5,0.3977 -0.0761,0.7803 -0.2284,1.1479 -0.15223,0.3676 -0.369,0.692 -0.6503,0.9733 -0.28131,0.2813 -0.60574,0.4981 -0.97328,0.6504 -0.36754,0.1522 -0.75021,0.2284 -1.14802,0.2284 -0.39785,0 -0.78054,-0.076 -1.14807,-0.2284 -0.36754,-0.1523 -0.69196,-0.3691 -0.97326,-0.6504 -0.28132,-0.2813 -0.4981,-0.6057 -0.65034,-0.9732 -0.15224,-0.3677 -0.22835,-0.7503 -0.22833,-1.148 -2e-5,-0.3979 0.0761,-0.7806 0.22834,-1.1481 0.15224,-0.3675 0.36901,-0.6919 0.65033,-0.9732 0.2813,-0.2813 0.6057,-0.4981 0.97324,-0.6504 0.36755,-0.1522 0.75024,-0.2283 1.14809,-0.2283 0.39781,0 0.78048,0.076 1.14802,0.2283 0.36754,0.1523 0.69197,0.3691 0.97328,0.6504 0.2813,0.2813 0.49807,0.6057 0.6503,0.9732 0.15226,0.3675 0.22838,0.7502 0.2284,1.1481 z"
         style="fill:#000000;fill-opacity:1;fill-rule:nonzero;stroke:none"
         id="path1002" />
      <path
         d="m 620.62706,1070.6829 c -2e-5,0.3977 -0.0761,0.7803 -0.2284,1.1479 -0.15223,0.3676 -0.369,0.692 -0.6503,0.9733 -0.28131,0.2813 -0.60574,0.4981 -0.97328,0.6504 -0.36754,0.1522 -0.75021,0.2284 -1.14802,0.2284 -0.39785,0 -0.78054,-0.076 -1.14807,-0.2284 -0.36754,-0.1523 -0.69196,-0.3691 -0.97326,-0.6504 -0.28132,-0.2813 -0.4981,-0.6057 -0.65034,-0.9732 -0.15224,-0.3677 -0.22835,-0.7503 -0.22833,-1.148 -2e-5,-0.3979 0.0761,-0.7806 0.22834,-1.1481 0.15224,-0.3675 0.36901,-0.6919 0.65033,-0.9732 0.2813,-0.2813 0.6057,-0.4981 0.97324,-0.6504 0.36755,-0.1522 0.75024,-0.2283 1.14809,-0.2283 0.39781,0 0.78048,0.076 1.14802,0.2283 0.36754,0.1523 0.69197,0.3691 0.97328,0.6504 0.2813,0.2813 0.49807,0.6057 0.6503,0.9732 0.15226,0.3675 0.22838,0.7502 0.2284,1.1481 z"
         style="fill:none;stroke:#000000;stroke-width:1;stroke-linecap:butt;stroke-linejoin:miter;stroke-miterlimit:10;stroke-dasharray:none;stroke-opacity:1"
         id="path1004" />
      <path
         d="m 630.62706,1080.6829 c -2e-5,0.3978 -0.0761,0.7805 -0.2284,1.148 -0.15223,0.3676 -0.36901,0.692 -0.65031,0.9734 -0.28131,0.2812 -0.60574,0.4979 -0.97328,0.6502 -0.36753,0.1522 -0.7502,0.2284 -1.14801,0.2284 -0.39783,0 -0.78052,-0.076 -1.14806,-0.2284 -0.36755,-0.1523 -0.69197,-0.369 -0.97327,-0.6502 -0.28132,-0.2814 -0.49809,-0.6058 -0.65032,-0.9734 -0.15224,-0.3675 -0.22837,-0.7502 -0.22835,-1.148 -2e-5,-0.3979 0.0761,-0.7806 0.22835,-1.1482 0.15223,-0.3675 0.369,-0.6919 0.65032,-0.9731 0.2813,-0.2813 0.60572,-0.4981 0.97327,-0.6504 0.36754,-0.1522 0.75023,-0.2283 1.14806,-0.2283 0.39781,0 0.78048,0.076 1.14802,0.2283 0.36754,0.1523 0.69196,0.3691 0.97327,0.6504 0.2813,0.2812 0.49806,0.6056 0.6503,0.9731 0.15227,0.3676 0.22839,0.7503 0.22841,1.1482 z"
         style="fill:#000000;fill-opacity:1;fill-rule:nonzero;stroke:none"
         id="path1006" />
      <path
         d="m 630.62706,1080.6829 c -2e-5,0.3978 -0.0761,0.7805 -0.2284,1.148 -0.15223,0.3676 -0.36901,0.692 -0.65031,0.9734 -0.28131,0.2812 -0.60574,0.4979 -0.97328,0.6502 -0.36753,0.1522 -0.7502,0.2284 -1.14801,0.2284 -0.39783,0 -0.78052,-0.076 -1.14806,-0.2284 -0.36755,-0.1523 -0.69197,-0.369 -0.97327,-0.6502 -0.28132,-0.2814 -0.49809,-0.6058 -0.65032,-0.9734 -0.15224,-0.3675 -0.22837,-0.7502 -0.22835,-1.148 -2e-5,-0.3979 0.0761,-0.7806 0.22835,-1.1482 0.15223,-0.3675 0.369,-0.6919 0.65032,-0.9731 0.2813,-0.2813 0.60572,-0.4981 0.97327,-0.6504 0.36754,-0.1522 0.75023,-0.2283 1.14806,-0.2283 0.39781,0 0.78048,0.076 1.14802,0.2283 0.36754,0.1523 0.69196,0.3691 0.97327,0.6504 0.2813,0.2812 0.49806,0.6056 0.6503,0.9731 0.15227,0.3676 0.22839,0.7503 0.22841,1.1482 z"
         style="fill:none;stroke:#000000;stroke-width:1;stroke-linecap:butt;stroke-linejoin:miter;stroke-miterlimit:10;stroke-dasharray:none;stroke-opacity:1"
         id="path1008" />
      <path
         d="m 614.40243,1125.0605 17.69248,-30.9618 17.69247,30.9618 h -35.38493 z"
         style="fill:#cccccc;fill-opacity:1;fill-rule:nonzero;stroke:none"
         id="path1010" />
      <path
         d="m 614.40243,1125.0605 17.69248,-30.9618 17.69247,30.9618 h -35.38493 z"
         style="fill:none;stroke:#000000;stroke-width:1;stroke-linecap:butt;stroke-linejoin:miter;stroke-miterlimit:10;stroke-dasharray:none;stroke-opacity:1"
         id="path1012" />
    </g>
  </g>
</svg>
